<?xml version="1.0" encoding="utf-8"?>
<!-- Generator: Adobe Illustrator 18.1.1, SVG Export Plug-In . SVG Version: 6.00 Build 0)  -->
<!DOCTYPE svg PUBLIC "-//W3C//DTD SVG 1.1//EN" "http://www.w3.org/Graphics/SVG/1.1/DTD/svg11.dtd">
<svg version="1.1" id="Layer_1" xmlns="http://www.w3.org/2000/svg" xmlns:xlink="http://www.w3.org/1999/xlink" x="0px" y="0px"
	 viewBox="0 0 360 360" enable-background="new 0 0 360 360" xml:space="preserve">
<path id="White_2_" fill="#C49A6C" d="M330.3,11.6H33c-9.9,0-18.2,8.3-18.2,18.2V327c0,9.9,8.3,18.2,18.2,18.2h160.2V214.7h-44.6
	v-49.5h42.9v-36.3c0-42.9,26.4-66.1,64.4-66.1c18.2,0,34.7,1.7,39.6,1.7V109h-26.4c-21.5,0-24.8,9.9-24.8,24.8v33h49.5l-6.6,51.2
	h-42.9v130.5h85.9c9.9,0,18.2-8.3,18.2-18.2V33C348.4,19.8,340.2,11.6,330.3,11.6z"/>
</svg>
