<?xml version="1.0" encoding="utf-8"?>
<!-- Generator: Adobe Illustrator 18.1.1, SVG Export Plug-In . SVG Version: 6.00 Build 0)  -->
<!DOCTYPE svg PUBLIC "-//W3C//DTD SVG 1.1//EN" "http://www.w3.org/Graphics/SVG/1.1/DTD/svg11.dtd">
<svg version="1.1" id="Layer_1" xmlns="http://www.w3.org/2000/svg" xmlns:xlink="http://www.w3.org/1999/xlink" x="0px" y="0px"
	 viewBox="0 0 360 360" enable-background="new 0 0 360 360" xml:space="preserve">
<path fill="#C49A6C" d="M310.5,155.2h-29.7c1.7,8.3,3.3,16.5,3.3,26.4c0,56.1-46.2,102.4-102.4,102.4S79.3,237.8,79.3,181.7
	c0-8.3,1.7-18.2,3.3-26.4H54.5v142c0,6.6,5,13.2,13.2,13.2h231.2c6.6,0,13.2-5,13.2-13.2v-142H310.5z M310.5,64.4
	c0-6.6-5-13.2-13.2-13.2h-38c-6.6,0-13.2,5-13.2,13.2v38c0,8.3,6.6,13.2,13.2,13.2h38c6.6,0,13.2-5,13.2-13.2L310.5,64.4L310.5,64.4
	z M183.3,115.6c-34.7,0-64.4,28.1-64.4,64.4c0,34.7,28.1,64.4,64.4,64.4s64.4-28.1,64.4-64.4C246.1,145.3,218,115.6,183.3,115.6
	 M310.5,346.8h-256c-21.5,0-38-16.5-38-38V51.2c0-21.5,16.5-38,38-38h257.6c21.5,0,38,16.5,38,38v257.6
	C350.1,330.3,331.9,346.8,310.5,346.8"/>
</svg>
