<?xml version="1.0" encoding="utf-8"?>
<!-- Generator: Adobe Illustrator 18.1.1, SVG Export Plug-In . SVG Version: 6.00 Build 0)  -->
<!DOCTYPE svg PUBLIC "-//W3C//DTD SVG 1.1//EN" "http://www.w3.org/Graphics/SVG/1.1/DTD/svg11.dtd">
<svg version="1.1" id="Layer_1" xmlns="http://www.w3.org/2000/svg" xmlns:xlink="http://www.w3.org/1999/xlink" x="0px" y="0px"
	 viewBox="0 0 118.5 115" enable-background="new 0 0 118.5 115" xml:space="preserve">
<path fill="#B8D9DD" d="M61.8,100.8c1.4-0.2,2.4-1.4,2.4-2.8h-1c0,1-0.8,1.9-1.9,1.9c-0.9,0-1.6-0.6-1.8-1.5
	c0.6-0.1,1.1-0.4,1.4-0.7c-0.5,0-1-0.1-1.4-0.3c-0.2,0.1-0.4,0.1-0.5,0.1c-0.9,0-1.6-0.6-1.8-1.5c0.1,0,0.1,0,0.2-0.1
	c-0.2-0.2-0.4-0.5-0.5-0.8c0,0,0,0,0,0c-0.1,0-0.2,0-0.2,0c-0.9,0-1.6-0.6-1.8-1.5c0.8-0.1,1.4-0.6,1.9-1.2c0,0,0,0,0,0
	c0-0.4,0-0.7-0.1-1c-0.2-0.6-0.6-1-1-1.4c-0.1-0.1-0.2-0.1-0.3-0.2c-0.8-0.7-1.8-1.2-2.6-1.9c-0.5-0.4-0.9-0.9-1.4-1.3
	c-0.2,0.8-0.9,1.4-1.8,1.4c-0.9,0-1.6-0.6-1.8-1.5c0.7-0.2,1.4-0.6,1.8-1.2c0.4,0.6,1,1,1.7,1.2c-1.7-1.7-3.2-3.6-4.4-5.7
	c-0.7-0.1-1.3-0.7-1.5-1.4c0.2,0,0.4-0.1,0.6-0.2c-0.2-0.3-0.3-0.6-0.5-0.9c-0.2,0.1-0.4,0.1-0.6,0.1c-0.9,0-1.6-0.6-1.8-1.5
	c0.5-0.1,1-0.4,1.4-0.7c-0.1-0.3-0.3-0.7-0.4-1c-0.3,0.5-0.9,0.8-1.5,0.8c-0.9,0-1.6-0.6-1.8-1.5c0.8-0.1,1.4-0.6,1.9-1.2
	c0.3,0.4,0.7,0.8,1.2,1c-0.4-1-0.8-2-1.1-3.1c0,0-0.1,0-0.1,0c-0.9,0-1.6-0.6-1.8-1.5c0.5-0.1,1-0.3,1.3-0.6
	c-0.1-0.4-0.2-0.8-0.3-1.1c-0.3,0.5-0.9,0.9-1.6,0.9c-0.9,0-1.6-0.6-1.8-1.5c0.7-0.2,1.4-0.6,1.8-1.2c0.3,0.5,0.8,0.9,1.4,1.1
	c-0.1-0.4-0.2-0.8-0.2-1.2c-0.3-0.3-0.6-0.6-0.6-1c0.2,0,0.3-0.1,0.5-0.1c0-0.4,0-0.8,0.1-1.2c-0.3,0.2-0.7,0.4-1.1,0.4
	c-0.9,0-1.6-0.6-1.8-1.5c0.7-0.2,1.4-0.6,1.8-1.2c0.4,0.6,1,1,1.6,1.1c0.2-0.3,0.5-0.6,0.8-0.9c0,0,0,0,0,0c-0.9,0-1.6-0.6-1.8-1.5
	c0.8-0.1,1.4-0.6,1.9-1.2c0.4,0.6,1.1,1.1,1.8,1.2c-0.1,0.3-0.2,0.5-0.4,0.8c0.5-0.1,1.1-0.1,1.6,0.1c-0.5-0.5-0.8-1.1-0.9-1.8
	c-0.8-0.1-1.5-0.7-1.6-1.4c0.7-0.2,1.4-0.6,1.8-1.2c0.1,0.1,0.2,0.2,0.3,0.3c0.1-0.4,0.3-0.7,0.4-1.1c-0.1-0.1-0.1-0.2-0.1-0.4
	c0.1,0,0.2-0.1,0.3-0.1c0.5-1.1,1-2.2,1.7-3.2c-0.1,0-0.1,0-0.2,0c-0.9,0-1.6-0.6-1.8-1.5c0.8-0.1,1.4-0.6,1.9-1.2
	c0.3,0.4,0.7,0.8,1.2,1c0.2-0.3,0.4-0.6,0.6-0.8c-0.6-0.2-1.1-0.7-1.3-1.4c0.7-0.2,1.4-0.6,1.8-1.2c0.2,0.3,0.5,0.6,0.9,0.8
	c0.2-0.3,0.4-0.5,0.7-0.7c-0.5-0.2-0.9-0.7-1-1.3c0.8-0.1,1.4-0.6,1.9-1.2c0.2,0.3,0.5,0.6,0.8,0.8c0.3-0.2,0.5-0.5,0.8-0.7
	c-0.5-0.2-0.9-0.7-1-1.3c0.7-0.2,1.4-0.6,1.8-1.2c0.3,0.4,0.7,0.7,1.1,0.9c0.3-0.2,0.6-0.5,0.9-0.7c-0.7-0.1-1.3-0.7-1.5-1.4
	c0.8-0.1,1.4-0.6,1.9-1.2c0.3,0.5,0.9,0.9,1.5,1.1c0.4-0.3,0.8-0.6,1.1-0.8c-0.1,0-0.1,0-0.2,0c-0.9,0-1.6-0.6-1.8-1.5
	c0.7-0.2,1.4-0.6,1.8-1.2c0.4,0.6,1.1,1.1,1.9,1.2c0,0.2-0.1,0.4-0.2,0.6c0.8-0.5,1.7-0.9,2.4-1.1c0.7-0.5,1.2-1.4,1.2-2.3h-1
	c0,1-0.8,1.9-1.9,1.9c-0.9,0-1.6-0.6-1.8-1.5c1.2-0.2,2.1-1.2,2.3-2.4c1.4-0.2,2.4-1.4,2.4-2.8h-1c0,1-0.8,1.9-1.9,1.9
	c-0.9,0-1.6-0.6-1.8-1.5c1.2-0.2,2.1-1.2,2.3-2.4c1.4-0.2,2.4-1.4,2.4-2.8h-1c0,1-0.8,1.9-1.9,1.9c-0.9,0-1.6-0.6-1.8-1.5
	c1.2-0.2,2.1-1.2,2.3-2.4c1.4-0.2,2.4-1.4,2.4-2.8h-1c0,1-0.8,1.9-1.9,1.9c-0.9,0-1.6-0.6-1.8-1.5c1.2-0.2,2.1-1.2,2.3-2.4
	c1.4-0.2,2.4-1.4,2.4-2.8h-1c0,1-0.8,1.9-1.9,1.9c-0.9,0-1.6-0.6-1.8-1.5c1.2-0.2,2.1-1.2,2.3-2.4c1.4-0.2,2.4-1.4,2.4-2.8h-1
	c0,1-0.8,1.9-1.9,1.9c-0.9,0-1.6-0.6-1.8-1.5c1.2-0.2,2.1-1.2,2.3-2.4c1.4-0.2,2.4-1.4,2.4-2.8h-1c0,1-0.8,1.9-1.9,1.9
	c-0.9,0-1.6-0.6-1.8-1.5c1.2-0.2,2.1-1.2,2.3-2.4c1.4-0.2,2.4-1.4,2.4-2.8h-1c0,1-0.8,1.9-1.9,1.9c-1,0-1.9-0.8-1.9-1.9h-1
	c0,1-0.8,1.9-1.9,1.9c-1,0-1.9-0.8-1.9-1.9h-1c0,1-0.8,1.9-1.9,1.9c-1,0-1.9-0.8-1.9-1.9h-1c0,1-0.8,1.9-1.9,1.9
	c-1,0-1.9-0.8-1.9-1.9h-1c0,1-0.8,1.9-1.9,1.9c-1,0-1.9-0.8-1.9-1.9h-1c0,1-0.8,1.9-1.9,1.9c-1,0-1.9-0.8-1.9-1.9h-1
	c0,1-0.8,1.9-1.9,1.9c-1,0-1.9-0.8-1.9-1.9h-1c0,1-0.8,1.9-1.9,1.9c-1,0-1.9-0.8-1.9-1.9h-1c0,1-0.8,1.9-1.9,1.9
	c-1,0-1.9-0.8-1.9-1.9h-1c0,1-0.8,1.9-1.9,1.9c-1,0-1.9-0.8-1.9-1.9h-1c0,1-0.8,1.9-1.9,1.9c-1,0-1.9-0.8-1.9-1.9h-1
	c0,1-0.8,1.9-1.9,1.9C7.9,4.6,7,3.7,7,2.7H6c0,1.4,1,2.6,2.4,2.8C8.2,6.3,7.4,7,6.5,7c-1,0-1.9-0.8-1.9-1.9h-1c0,1.4,1,2.6,2.4,2.8
	c0.2,1.2,1.1,2.2,2.3,2.4c-0.2,0.8-0.9,1.5-1.8,1.5c-1,0-1.9-0.8-1.9-1.9h-1c0,1.4,1,2.6,2.4,2.8c0.2,1.2,1.1,2.2,2.3,2.4
	c-0.2,0.8-0.9,1.5-1.8,1.5c-1,0-1.9-0.8-1.9-1.9h-1c0,1.4,1,2.6,2.4,2.8c0.2,1.2,1.1,2.2,2.3,2.4c-0.2,0.8-0.9,1.5-1.8,1.5
	c-1,0-1.9-0.8-1.9-1.9h-1c0,1.4,1,2.6,2.4,2.8c0.2,1.2,1.1,2.2,2.3,2.4C8.2,25.4,7.4,26,6.5,26c-1,0-1.9-0.8-1.9-1.9h-1
	c0,1.4,1,2.6,2.4,2.8c0.2,1.2,1.1,2.2,2.3,2.4c-0.2,0.8-0.9,1.5-1.8,1.5c-1,0-1.9-0.8-1.9-1.9h-1c0,1.4,1,2.6,2.4,2.8
	c0.2,1.2,1.1,2.2,2.3,2.4c-0.2,0.8-0.9,1.5-1.8,1.5c-1,0-1.9-0.8-1.9-1.9h-1c0,1.4,1,2.6,2.4,2.8c0.2,1.2,1.1,2.2,2.3,2.4
	c-0.2,0.8-0.9,1.5-1.8,1.5c-1,0-1.9-0.8-1.9-1.9h-1c0,1.4,1,2.6,2.4,2.8c0.2,1.2,1.1,2.2,2.3,2.4c-0.2,0.8-0.9,1.5-1.8,1.5
	c-1,0-1.9-0.8-1.9-1.9h-1c0,1.4,1,2.6,2.4,2.8c0.2,1.2,1.1,2.2,2.3,2.4c-0.2,0.8-0.9,1.5-1.8,1.5c-1,0-1.9-0.8-1.9-1.9h-1
	c0,1.4,1,2.6,2.4,2.8c0.2,1.2,1.1,2.2,2.3,2.4c-0.2,0.8-0.9,1.5-1.8,1.5c-1,0-1.9-0.8-1.9-1.9h-1c0,1.4,1,2.6,2.4,2.8
	c0.2,1.2,1.1,2.2,2.3,2.4c-0.2,0.8-0.9,1.5-1.8,1.5c-1,0-1.9-0.8-1.9-1.9h-1c0,1.4,1,2.6,2.4,2.8c0.2,1.2,1.1,2.2,2.3,2.4
	c-0.2,0.8-0.9,1.5-1.8,1.5c-1,0-1.9-0.8-1.9-1.9h-1c0,1.4,1,2.6,2.4,2.8c0.2,1.2,1.1,2.2,2.3,2.4c-0.2,0.8-0.9,1.5-1.8,1.5
	c-1,0-1.9-0.8-1.9-1.9h-1c0,1.4,1,2.6,2.4,2.8C6.3,71,7.2,72,8.4,72.2c-0.2,0.8-0.9,1.5-1.8,1.5c-1,0-1.9-0.8-1.9-1.9h-1
	c0,1.4,1,2.6,2.4,2.8c0.2,1.2,1.1,2.2,2.3,2.4c-0.2,0.8-0.9,1.5-1.8,1.5c-1,0-1.9-0.8-1.9-1.9h-1c0,1.4,1,2.6,2.4,2.8
	c0.2,1.2,1.1,2.2,2.3,2.4c-0.2,0.8-0.9,1.5-1.8,1.5c-1,0-1.9-0.8-1.9-1.9h-1c0,1.4,1,2.6,2.4,2.8c0.2,1.2,1.1,2.2,2.3,2.4
	c-0.2,0.8-0.9,1.5-1.8,1.5c-1,0-1.9-0.8-1.9-1.9h-1c0,1.4,1,2.6,2.4,2.8c0.2,1.2,1.1,2.2,2.3,2.4c-0.2,0.8-0.9,1.5-1.8,1.5
	c-1,0-1.9-0.8-1.9-1.9h-1c0,1.4,1,2.6,2.4,2.8c0.2,1.2,1.1,2.2,2.3,2.4c-0.2,0.8-0.9,1.5-1.8,1.5c-1,0-1.9-0.8-1.9-1.9h-1
	c0,1.4,1,2.6,2.4,2.8c0.2,1.2,1.1,2.2,2.3,2.4c-0.2,0.8-0.9,1.5-1.8,1.5c-1,0-1.9-0.8-1.9-1.9h-1c0,1.4,1,2.6,2.4,2.8
	c0.2,1.2,1.1,2.2,2.3,2.4c-0.2,0.8-0.9,1.5-1.8,1.5c-1,0-1.9-0.8-1.9-1.9h-1c0,1.4,1,2.6,2.4,2.8c0.2,1.2,1.1,2.2,2.3,2.4
	c-0.2,0.8-0.9,1.5-1.8,1.5c-1,0-1.9-0.8-1.9-1.9h-1c0,1.6,1.3,2.9,2.9,2.9c1,0,1.9-0.5,2.4-1.3c0.5,0.8,1.4,1.3,2.4,1.3
	s1.9-0.5,2.4-1.3c0.5,0.8,1.4,1.3,2.4,1.3c1,0,1.9-0.5,2.4-1.3c0.5,0.8,1.4,1.3,2.4,1.3s1.9-0.5,2.4-1.3c0.5,0.8,1.4,1.3,2.4,1.3
	s1.9-0.5,2.4-1.3c0.5,0.8,1.4,1.3,2.4,1.3c1,0,1.9-0.5,2.4-1.3c0.5,0.8,1.4,1.3,2.4,1.3s1.9-0.5,2.4-1.3c0.5,0.8,1.4,1.3,2.4,1.3
	s1.9-0.5,2.4-1.3c0.5,0.8,1.4,1.3,2.4,1.3c1,0,1.9-0.5,2.4-1.3c0.5,0.8,1.4,1.3,2.4,1.3s1.9-0.5,2.4-1.3c0.5,0.8,1.4,1.3,2.4,1.3
	s1.9-0.5,2.4-1.3c0.5,0.8,1.4,1.3,2.4,1.3c1.4,0,2.6-1.1,2.8-2.4c1.4-0.2,2.4-1.4,2.4-2.8h-1c0,1-0.8,1.9-1.9,1.9
	c-0.9,0-1.6-0.6-1.8-1.5c1.2-0.2,2.1-1.2,2.3-2.4c1.4-0.2,2.4-1.4,2.4-2.8h-1c0,1-0.8,1.9-1.9,1.9c-0.9,0-1.6-0.6-1.8-1.5
	C60.6,102.9,61.6,102,61.8,100.8z M56.6,97.2c0.4,0.6,1.1,1.1,1.8,1.2c-0.2,0.8-0.9,1.5-1.8,1.5c-0.9,0-1.6-0.6-1.8-1.5
	C55.5,98.2,56.1,97.8,56.6,97.2z M51.8,99.8c-0.9,0-1.6-0.6-1.8-1.5c0.8-0.1,1.4-0.6,1.9-1.2c0.4,0.6,1.1,1.1,1.8,1.2
	C53.4,99.2,52.7,99.8,51.8,99.8z M54.1,99.5c0.4,0.6,1.1,1.1,1.9,1.2c-0.2,0.8-0.9,1.5-1.8,1.5c-0.9,0-1.6-0.6-1.8-1.5
	C53.1,100.6,53.7,100.2,54.1,99.5z M42.2,95.1c-0.9,0-1.6-0.6-1.8-1.5c0.8-0.1,1.4-0.6,1.9-1.2c0.4,0.6,1.1,1.1,1.8,1.2
	C43.9,94.4,43.1,95.1,42.2,95.1z M44.6,94.8c0.4,0.6,1.1,1.1,1.9,1.2c-0.2,0.8-0.9,1.5-1.8,1.5c-0.9,0-1.6-0.6-1.8-1.5
	C43.6,95.8,44.2,95.4,44.6,94.8z M37.5,90.3c-0.9,0-1.6-0.6-1.8-1.5c0.8-0.1,1.4-0.6,1.9-1.2c0.4,0.6,1.1,1.1,1.8,1.2
	C39.1,89.7,38.4,90.3,37.5,90.3z M39.9,90c0.4,0.6,1.1,1.1,1.9,1.2c-0.2,0.8-0.9,1.5-1.8,1.5c-0.9,0-1.6-0.6-1.8-1.5
	C38.8,91.1,39.4,90.6,39.9,90z M48.8,26.9c-0.2,0.8-0.9,1.5-1.8,1.5c-0.9,0-1.6-0.6-1.8-1.5c0.8-0.1,1.4-0.6,1.9-1.2
	C47.4,26.3,48.1,26.8,48.8,26.9z M47.6,24.5c0.7-0.2,1.4-0.6,1.8-1.2c0.4,0.6,1.1,1.1,1.9,1.2C51,25.4,50.3,26,49.4,26
	C48.5,26,47.8,25.4,47.6,24.5z M39.3,31.7c-0.2,0.8-0.9,1.5-1.8,1.5c-0.9,0-1.6-0.6-1.8-1.5c0.8-0.1,1.4-0.6,1.9-1.2
	C37.9,31.1,38.6,31.5,39.3,31.7z M38,29.3c0.7-0.2,1.4-0.6,1.8-1.2c0.4,0.6,1.1,1.1,1.9,1.2c-0.2,0.8-0.9,1.5-1.8,1.5
	C39,30.8,38.2,30.1,38,29.3z M25.6,42.4c0.4,0.6,1.1,1.1,1.9,1.2c-0.2,0.8-0.9,1.5-1.8,1.5c-0.9,0-1.6-0.6-1.8-1.5
	C24.5,43.4,25.2,43,25.6,42.4z M23.8,38.8c0.7-0.2,1.4-0.6,1.8-1.2c0.4,0.6,1.1,1.1,1.9,1.2c-0.2,0.8-0.9,1.5-1.8,1.5
	C24.7,40.3,24,39.7,23.8,38.8z M26.1,41.2c0.8-0.1,1.4-0.6,1.9-1.2c0.4,0.6,1.1,1.1,1.8,1.2c-0.2,0.8-0.9,1.5-1.8,1.5
	C27.1,42.7,26.3,42.1,26.1,41.2z M28.5,38.8c0.7-0.2,1.4-0.6,1.8-1.2c0.4,0.6,1.1,1.1,1.9,1.2c-0.2,0.8-0.9,1.5-1.8,1.5
	C29.5,40.3,28.7,39.7,28.5,38.8z M30.4,35.5c-0.9,0-1.6-0.6-1.8-1.5c0.7-0.2,1.4-0.6,1.8-1.2c0.4,0.6,1.1,1.1,1.9,1.2
	C32,34.9,31.3,35.5,30.4,35.5z M29.8,36.5c-0.2,0.8-0.9,1.5-1.8,1.5c-0.9,0-1.6-0.6-1.8-1.5c0.8-0.1,1.4-0.6,1.9-1.2
	C28.4,35.9,29,36.3,29.8,36.5z M25.6,35.5c-0.9,0-1.6-0.6-1.8-1.5c0.7-0.2,1.4-0.6,1.8-1.2c0.4,0.6,1.1,1.1,1.9,1.2
	C27.2,34.9,26.5,35.5,25.6,35.5z M25,36.5c-0.2,0.8-0.9,1.5-1.8,1.5c-0.9,0-1.6-0.6-1.8-1.5c0.8-0.1,1.4-0.6,1.9-1.2
	C23.6,35.9,24.3,36.3,25,36.5z M23.2,40c0.4,0.6,1.1,1.1,1.8,1.2c-0.2,0.8-0.9,1.5-1.8,1.5c-0.9,0-1.6-0.6-1.8-1.5
	C22.1,41.1,22.8,40.6,23.2,40z M23.2,44.8c0.4,0.6,1.1,1.1,1.8,1.2c-0.2,0.8-0.9,1.5-1.8,1.5c-0.9,0-1.6-0.6-1.8-1.5
	C22.1,45.8,22.8,45.4,23.2,44.8z M23.2,49.5c0.4,0.6,1.1,1.1,1.8,1.2c-0.2,0.8-0.9,1.5-1.8,1.5c-0.9,0-1.6-0.6-1.8-1.5
	C22.1,50.6,22.8,50.2,23.2,49.5z M23.2,54.3c0.4,0.6,1.1,1.1,1.8,1.2c-0.2,0.8-0.9,1.5-1.8,1.5c-0.9,0-1.6-0.6-1.8-1.5
	C22.1,55.4,22.8,54.9,23.2,54.3z M23.2,59.1c0.4,0.6,1.1,1.1,1.8,1.2c-0.2,0.8-0.9,1.5-1.8,1.5c-0.9,0-1.6-0.6-1.8-1.5
	C22.1,60.1,22.8,59.7,23.2,59.1z M23.2,63.8c0.4,0.6,1.1,1.1,1.8,1.2c-0.2,0.8-0.9,1.5-1.8,1.5c-0.9,0-1.6-0.6-1.8-1.5
	C22.1,64.9,22.8,64.4,23.2,63.8z M23.2,68.6c0.4,0.6,1.1,1.1,1.8,1.2c-0.2,0.8-0.9,1.5-1.8,1.5c-0.9,0-1.6-0.6-1.8-1.5
	C22.1,69.7,22.8,69.2,23.2,68.6z M23.2,73.3c0.4,0.6,1.1,1.1,1.8,1.2c-0.2,0.8-0.9,1.5-1.8,1.5c-0.9,0-1.6-0.6-1.8-1.5
	C22.1,74.4,22.8,74,23.2,73.3z M23.2,78.1c0.4,0.6,1.1,1.1,1.8,1.2c-0.2,0.8-0.9,1.5-1.8,1.5c-0.9,0-1.6-0.6-1.8-1.5
	C22.1,79.2,22.8,78.7,23.2,78.1z M25.6,80.5c0.4,0.6,1.1,1.1,1.9,1.2c-0.2,0.8-0.9,1.5-1.8,1.5c-0.9,0-1.6-0.6-1.8-1.5
	C24.5,81.5,25.2,81.1,25.6,80.5z M25.6,78.4c-0.9,0-1.6-0.6-1.8-1.5c0.7-0.2,1.4-0.6,1.8-1.2c0.4,0.6,1.1,1.1,1.9,1.2
	C27.2,77.8,26.5,78.4,25.6,78.4z M25.6,73.6c-0.9,0-1.6-0.6-1.8-1.5c0.7-0.2,1.4-0.6,1.8-1.2c0.4,0.6,1.1,1.1,1.9,1.2
	C27.2,73,26.5,73.6,25.6,73.6z M25.6,68.9c-0.9,0-1.6-0.6-1.8-1.5c0.7-0.2,1.4-0.6,1.8-1.2c0.4,0.6,1.1,1.1,1.9,1.2
	C27.2,68.2,26.5,68.9,25.6,68.9z M25.6,64.1c-0.9,0-1.6-0.6-1.8-1.5c0.7-0.2,1.4-0.6,1.8-1.2c0.4,0.6,1.1,1.1,1.9,1.2
	C27.2,63.5,26.5,64.1,25.6,64.1z M25.6,59.3c-0.9,0-1.6-0.6-1.8-1.5c0.7-0.2,1.4-0.6,1.8-1.2c0.4,0.6,1.1,1.1,1.9,1.2
	C27.2,58.7,26.5,59.3,25.6,59.3z M25.6,54.6c-0.9,0-1.6-0.6-1.8-1.5c0.7-0.2,1.4-0.6,1.8-1.2c0.4,0.6,1.1,1.1,1.9,1.2
	C27.2,54,26.5,54.6,25.6,54.6z M25.6,49.8c-0.9,0-1.6-0.6-1.8-1.5c0.7-0.2,1.4-0.6,1.8-1.2c0.4,0.6,1.1,1.1,1.9,1.2
	C27.2,49.2,26.5,49.8,25.6,49.8z M26.1,46c0.8-0.1,1.4-0.6,1.9-1.2c0.4,0.6,1.1,1.1,1.8,1.2c-0.2,0.8-0.9,1.5-1.8,1.5
	C27.1,47.4,26.3,46.8,26.1,46z M28.5,43.6c0.7-0.2,1.4-0.6,1.8-1.2c0.4,0.6,1.1,1.1,1.9,1.2c-0.2,0.8-0.9,1.5-1.8,1.5
	C29.5,45.1,28.7,44.4,28.5,43.6z M30.9,41.2c0.8-0.1,1.4-0.6,1.9-1.2c0.4,0.6,1.1,1.1,1.8,1.2c-0.2,0.8-0.9,1.5-1.8,1.5
	C31.8,42.7,31.1,42.1,30.9,41.2z M32.7,37.9c-0.9,0-1.6-0.6-1.8-1.5c0.8-0.1,1.4-0.6,1.9-1.2c0.4,0.6,1.1,1.1,1.8,1.2
	C34.3,37.3,33.6,37.9,32.7,37.9z M33.3,34.1c0.7-0.2,1.4-0.6,1.8-1.2c0.4,0.6,1.1,1.1,1.9,1.2c-0.2,0.8-0.9,1.5-1.8,1.5
	C34.2,35.5,33.5,34.9,33.3,34.1z M35.1,30.8c-0.9,0-1.6-0.6-1.8-1.5c0.7-0.2,1.4-0.6,1.8-1.2c0.4,0.6,1.1,1.1,1.9,1.2
	C36.8,30.1,36,30.8,35.1,30.8z M34.5,31.7c-0.2,0.8-0.9,1.5-1.8,1.5c-0.9,0-1.6-0.6-1.8-1.5c0.8-0.1,1.4-0.6,1.9-1.2
	C33.2,31.1,33.8,31.5,34.5,31.7z M30.4,30.8c-0.9,0-1.6-0.6-1.8-1.5c0.7-0.2,1.4-0.6,1.8-1.2c0.4,0.6,1.1,1.1,1.9,1.2
	C32,30.1,31.3,30.8,30.4,30.8z M29.8,31.7c-0.2,0.8-0.9,1.5-1.8,1.5c-0.9,0-1.6-0.6-1.8-1.5c0.8-0.1,1.4-0.6,1.9-1.2
	C28.4,31.1,29,31.5,29.8,31.7z M25.6,30.8c-0.9,0-1.6-0.6-1.8-1.5c0.7-0.2,1.4-0.6,1.8-1.2c0.4,0.6,1.1,1.1,1.9,1.2
	C27.2,30.1,26.5,30.8,25.6,30.8z M25,31.7c-0.2,0.8-0.9,1.5-1.8,1.5c-0.9,0-1.6-0.6-1.8-1.5c0.8-0.1,1.4-0.6,1.9-1.2
	C23.6,31.1,24.3,31.5,25,31.7z M20.8,30.8c-0.9,0-1.6-0.6-1.8-1.5c0.7-0.2,1.4-0.6,1.8-1.2c0.4,0.6,1.1,1.1,1.9,1.2
	C22.5,30.1,21.7,30.8,20.8,30.8z M20.8,32.9c0.4,0.6,1.1,1.1,1.9,1.2c-0.2,0.8-0.9,1.5-1.8,1.5c-0.9,0-1.6-0.6-1.8-1.5
	C19.7,33.9,20.4,33.5,20.8,32.9z M20.8,37.6c0.4,0.6,1.1,1.1,1.9,1.2c-0.2,0.8-0.9,1.5-1.8,1.5c-0.9,0-1.6-0.6-1.8-1.5
	C19.7,38.7,20.4,38.2,20.8,37.6z M20.8,42.4c0.4,0.6,1.1,1.1,1.9,1.2c-0.2,0.8-0.9,1.5-1.8,1.5c-0.9,0-1.6-0.6-1.8-1.5
	C19.7,43.4,20.4,43,20.8,42.4z M20.8,47.1c0.4,0.6,1.1,1.1,1.9,1.2c-0.2,0.8-0.9,1.5-1.8,1.5c-0.9,0-1.6-0.6-1.8-1.5
	C19.7,48.2,20.4,47.8,20.8,47.1z M20.8,51.9c0.4,0.6,1.1,1.1,1.9,1.2c-0.2,0.8-0.9,1.5-1.8,1.5c-0.9,0-1.6-0.6-1.8-1.5
	C19.7,53,20.4,52.5,20.8,51.9z M20.8,56.7c0.4,0.6,1.1,1.1,1.9,1.2c-0.2,0.8-0.9,1.5-1.8,1.5c-0.9,0-1.6-0.6-1.8-1.5
	C19.7,57.7,20.4,57.3,20.8,56.7z M20.8,61.4c0.4,0.6,1.1,1.1,1.9,1.2c-0.2,0.8-0.9,1.5-1.8,1.5c-0.9,0-1.6-0.6-1.8-1.5
	C19.7,62.5,20.4,62.1,20.8,61.4z M20.8,66.2c0.4,0.6,1.1,1.1,1.9,1.2c-0.2,0.8-0.9,1.5-1.8,1.5c-0.9,0-1.6-0.6-1.8-1.5
	C19.7,67.3,20.4,66.8,20.8,66.2z M20.8,71c0.4,0.6,1.1,1.1,1.9,1.2c-0.2,0.8-0.9,1.5-1.8,1.5c-0.9,0-1.6-0.6-1.8-1.5
	C19.7,72,20.4,71.6,20.8,71z M20.8,75.7c0.4,0.6,1.1,1.1,1.9,1.2c-0.2,0.8-0.9,1.5-1.8,1.5c-0.9,0-1.6-0.6-1.8-1.5
	C19.7,76.8,20.4,76.3,20.8,75.7z M20.8,80.5c0.4,0.6,1.1,1.1,1.9,1.2c-0.2,0.8-0.9,1.5-1.8,1.5c-0.9,0-1.6-0.6-1.8-1.5
	C19.7,81.5,20.4,81.1,20.8,80.5z M20.8,85.3c0.4,0.6,1.1,1.1,1.9,1.2c-0.2,0.8-0.9,1.5-1.8,1.5c-0.9,0-1.6-0.6-1.8-1.5
	C19.7,86.3,20.4,85.9,20.8,85.3z M21.3,84.1c0.8-0.1,1.4-0.6,1.9-1.2c0.4,0.6,1.1,1.1,1.8,1.2c-0.2,0.8-0.9,1.5-1.8,1.5
	C22.3,85.5,21.5,84.9,21.3,84.1z M25.6,85.3c0.4,0.6,1.1,1.1,1.9,1.2c-0.2,0.8-0.9,1.5-1.8,1.5c-0.9,0-1.6-0.6-1.8-1.5
	C24.5,86.3,25.2,85.9,25.6,85.3z M26.1,84.1c0.8-0.1,1.4-0.6,1.9-1.2c0.4,0.6,1.1,1.1,1.8,1.2c-0.2,0.8-0.9,1.5-1.8,1.5
	C27.1,85.5,26.3,84.9,26.1,84.1z M30.3,85.3c0.4,0.6,1.1,1.1,1.9,1.2c-0.2,0.8-0.9,1.5-1.8,1.5c-0.9,0-1.6-0.6-1.8-1.5
	C29.3,86.3,29.9,85.9,30.3,85.3z M30.4,83.2c-0.9,0-1.6-0.6-1.8-1.5c0.7-0.2,1.4-0.6,1.8-1.2c0.4,0.6,1.1,1.1,1.9,1.2
	C32,82.5,31.3,83.2,30.4,83.2z M27.9,80.8c-0.9,0-1.6-0.6-1.8-1.5c0.8-0.1,1.4-0.6,1.9-1.2c0.4,0.6,1.1,1.1,1.8,1.2
	C29.6,80.2,28.8,80.8,27.9,80.8z M27.9,76c-0.9,0-1.6-0.6-1.8-1.5c0.8-0.1,1.4-0.6,1.9-1.2c0.4,0.6,1.1,1.1,1.8,1.2
	C29.6,75.4,28.8,76,27.9,76z M27.9,71.3c-0.9,0-1.6-0.6-1.8-1.5c0.8-0.1,1.4-0.6,1.9-1.2c0.4,0.6,1.1,1.1,1.8,1.2
	C29.6,70.6,28.8,71.3,27.9,71.3z M27.9,66.5c-0.9,0-1.6-0.6-1.8-1.5c0.8-0.1,1.4-0.6,1.9-1.2c0.4,0.6,1.1,1.1,1.8,1.2
	C29.6,65.9,28.8,66.5,27.9,66.5z M27.9,61.7c-0.9,0-1.6-0.6-1.8-1.5c0.8-0.1,1.4-0.6,1.9-1.2c0.4,0.6,1.1,1.1,1.8,1.2
	C29.6,61.1,28.8,61.7,27.9,61.7z M27.9,57c-0.9,0-1.6-0.6-1.8-1.5c0.8-0.1,1.4-0.6,1.9-1.2c0.4,0.6,1.1,1.1,1.8,1.2
	C29.6,56.3,28.8,57,27.9,57z M27.9,52.2c-0.9,0-1.6-0.6-1.8-1.5c0.8-0.1,1.4-0.6,1.9-1.2c0.4,0.6,1.1,1.1,1.8,1.2
	C29.6,51.6,28.8,52.2,27.9,52.2z M28.5,48.4c0.7-0.2,1.4-0.6,1.8-1.2c0.4,0.6,1.1,1.1,1.9,1.2c-0.2,0.8-0.9,1.5-1.8,1.5
	C29.5,49.8,28.7,49.2,28.5,48.4z M30.9,46c0.8-0.1,1.4-0.6,1.9-1.2c0.4,0.6,1.1,1.1,1.8,1.2c-0.2,0.8-0.9,1.5-1.8,1.5
	C31.8,47.4,31.1,46.8,30.9,46z M33.3,43.6c0.7-0.2,1.4-0.6,1.8-1.2c0.4,0.6,1.1,1.1,1.9,1.2c-0.2,0.8-0.9,1.5-1.8,1.5
	C34.2,45.1,33.5,44.4,33.3,43.6z M35.1,40.3c-0.9,0-1.6-0.6-1.8-1.5c0.7-0.2,1.4-0.6,1.8-1.2c0.4,0.6,1.1,1.1,1.9,1.2
	C36.8,39.7,36,40.3,35.1,40.3z M35.6,36.5c0.8-0.1,1.4-0.6,1.9-1.2c0.4,0.6,1.1,1.1,1.8,1.2c-0.2,0.8-0.9,1.5-1.8,1.5
	C36.6,37.9,35.8,37.3,35.6,36.5z M38,34.1c0.7-0.2,1.4-0.6,1.8-1.2c0.4,0.6,1.1,1.1,1.9,1.2c-0.2,0.8-0.9,1.5-1.8,1.5
	C39,35.5,38.2,34.9,38,34.1z M40.4,31.7c0.8-0.1,1.4-0.6,1.9-1.2c0.4,0.6,1.1,1.1,1.8,1.2c-0.2,0.8-0.9,1.5-1.8,1.5
	C41.3,33.2,40.6,32.5,40.4,31.7z M42.8,29.3c0.7-0.2,1.4-0.6,1.8-1.2c0.4,0.6,1.1,1.1,1.9,1.2c-0.2,0.8-0.9,1.5-1.8,1.5
	C43.8,30.8,43,30.1,42.8,29.3z M44.6,26c-0.9,0-1.6-0.6-1.8-1.5c0.7-0.2,1.4-0.6,1.8-1.2c0.4,0.6,1.1,1.1,1.9,1.2
	C46.3,25.4,45.5,26,44.6,26z M44.1,26.9c-0.2,0.8-0.9,1.5-1.8,1.5c-0.9,0-1.6-0.6-1.8-1.5c0.8-0.1,1.4-0.6,1.9-1.2
	C42.7,26.3,43.3,26.8,44.1,26.9z M39.9,26c-0.9,0-1.6-0.6-1.8-1.5c0.7-0.2,1.4-0.6,1.8-1.2c0.4,0.6,1.1,1.1,1.9,1.2
	C41.5,25.4,40.8,26,39.9,26z M39.3,26.9c-0.2,0.8-0.9,1.5-1.8,1.5c-0.9,0-1.6-0.6-1.8-1.5c0.8-0.1,1.4-0.6,1.9-1.2
	C37.9,26.3,38.6,26.8,39.3,26.9z M35.1,26c-0.9,0-1.6-0.6-1.8-1.5c0.7-0.2,1.4-0.6,1.8-1.2c0.4,0.6,1.1,1.1,1.9,1.2
	C36.8,25.4,36,26,35.1,26z M34.5,26.9c-0.2,0.8-0.9,1.5-1.8,1.5c-0.9,0-1.6-0.6-1.8-1.5c0.8-0.1,1.4-0.6,1.9-1.2
	C33.2,26.3,33.8,26.8,34.5,26.9z M30.4,26c-0.9,0-1.6-0.6-1.8-1.5c0.7-0.2,1.4-0.6,1.8-1.2c0.4,0.6,1.1,1.1,1.9,1.2
	C32,25.4,31.3,26,30.4,26z M29.8,26.9c-0.2,0.8-0.9,1.5-1.8,1.5c-0.9,0-1.6-0.6-1.8-1.5c0.8-0.1,1.4-0.6,1.9-1.2
	C28.4,26.3,29,26.8,29.8,26.9z M25.6,26c-0.9,0-1.6-0.6-1.8-1.5c0.7-0.2,1.4-0.6,1.8-1.2c0.4,0.6,1.1,1.1,1.9,1.2
	C27.2,25.4,26.5,26,25.6,26z M25,26.9c-0.2,0.8-0.9,1.5-1.8,1.5c-0.9,0-1.6-0.6-1.8-1.5c0.8-0.1,1.4-0.6,1.9-1.2
	C23.6,26.3,24.3,26.8,25,26.9z M20.8,26c-0.9,0-1.6-0.6-1.8-1.5c0.7-0.2,1.4-0.6,1.8-1.2c0.4,0.6,1.1,1.1,1.9,1.2
	C22.5,25.4,21.7,26,20.8,26z M20.3,26.9c-0.2,0.8-0.9,1.5-1.8,1.5c-0.9,0-1.6-0.6-1.8-1.5c0.8-0.1,1.4-0.6,1.9-1.2
	C18.9,26.3,19.5,26.8,20.3,26.9z M18.5,30.5c0.4,0.6,1.1,1.1,1.8,1.2c-0.2,0.8-0.9,1.5-1.8,1.5c-0.9,0-1.6-0.6-1.8-1.5
	C17.4,31.6,18,31.1,18.5,30.5z M18.5,35.2c0.4,0.6,1.1,1.1,1.8,1.2c-0.2,0.8-0.9,1.5-1.8,1.5c-0.9,0-1.6-0.6-1.8-1.5
	C17.4,36.3,18,35.9,18.5,35.2z M18.5,40c0.4,0.6,1.1,1.1,1.8,1.2c-0.2,0.8-0.9,1.5-1.8,1.5c-0.9,0-1.6-0.6-1.8-1.5
	C17.4,41.1,18,40.6,18.5,40z M18.5,44.8c0.4,0.6,1.1,1.1,1.8,1.2c-0.2,0.8-0.9,1.5-1.8,1.5c-0.9,0-1.6-0.6-1.8-1.5
	C17.4,45.8,18,45.4,18.5,44.8z M18.5,49.5c0.4,0.6,1.1,1.1,1.8,1.2c-0.2,0.8-0.9,1.5-1.8,1.5c-0.9,0-1.6-0.6-1.8-1.5
	C17.4,50.6,18,50.2,18.5,49.5z M18.5,54.3c0.4,0.6,1.1,1.1,1.8,1.2c-0.2,0.8-0.9,1.5-1.8,1.5c-0.9,0-1.6-0.6-1.8-1.5
	C17.4,55.4,18,54.9,18.5,54.3z M18.5,59.1c0.4,0.6,1.1,1.1,1.8,1.2c-0.2,0.8-0.9,1.5-1.8,1.5c-0.9,0-1.6-0.6-1.8-1.5
	C17.4,60.1,18,59.7,18.5,59.1z M18.5,63.8c0.4,0.6,1.1,1.1,1.8,1.2c-0.2,0.8-0.9,1.5-1.8,1.5c-0.9,0-1.6-0.6-1.8-1.5
	C17.4,64.9,18,64.4,18.5,63.8z M18.5,68.6c0.4,0.6,1.1,1.1,1.8,1.2c-0.2,0.8-0.9,1.5-1.8,1.5c-0.9,0-1.6-0.6-1.8-1.5
	C17.4,69.7,18,69.2,18.5,68.6z M18.5,73.3c0.4,0.6,1.1,1.1,1.8,1.2c-0.2,0.8-0.9,1.5-1.8,1.5c-0.9,0-1.6-0.6-1.8-1.5
	C17.4,74.4,18,74,18.5,73.3z M18.5,78.1c0.4,0.6,1.1,1.1,1.8,1.2c-0.2,0.8-0.9,1.5-1.8,1.5c-0.9,0-1.6-0.6-1.8-1.5
	C17.4,79.2,18,78.7,18.5,78.1z M18.5,82.9c0.4,0.6,1.1,1.1,1.8,1.2c-0.2,0.8-0.9,1.5-1.8,1.5c-0.9,0-1.6-0.6-1.8-1.5
	C17.4,83.9,18,83.5,18.5,82.9z M18.5,87.6c0.4,0.6,1.1,1.1,1.8,1.2c-0.2,0.8-0.9,1.5-1.8,1.5c-0.9,0-1.6-0.6-1.8-1.5
	C17.4,88.7,18,88.3,18.5,87.6z M20.8,90c0.4,0.6,1.1,1.1,1.9,1.2c-0.2,0.8-0.9,1.5-1.8,1.5c-0.9,0-1.6-0.6-1.8-1.5
	C19.7,91.1,20.4,90.6,20.8,90z M21.3,88.9c0.8-0.1,1.4-0.6,1.9-1.2c0.4,0.6,1.1,1.1,1.8,1.2c-0.2,0.8-0.9,1.5-1.8,1.5
	C22.3,90.3,21.5,89.7,21.3,88.9z M25.6,90c0.4,0.6,1.1,1.1,1.9,1.2c-0.2,0.8-0.9,1.5-1.8,1.5c-0.9,0-1.6-0.6-1.8-1.5
	C24.5,91.1,25.2,90.6,25.6,90z M26.1,88.9c0.8-0.1,1.4-0.6,1.9-1.2c0.4,0.6,1.1,1.1,1.8,1.2c-0.2,0.8-0.9,1.5-1.8,1.5
	C27.1,90.3,26.3,89.7,26.1,88.9z M30.3,90c0.4,0.6,1.1,1.1,1.9,1.2c-0.2,0.8-0.9,1.5-1.8,1.5c-0.9,0-1.6-0.6-1.8-1.5
	C29.3,91.1,29.9,90.6,30.3,90z M30.9,88.9c0.8-0.1,1.4-0.6,1.9-1.2c0.4,0.6,1.1,1.1,1.8,1.2c-0.2,0.8-0.9,1.5-1.8,1.5
	C31.8,90.3,31.1,89.7,30.9,88.9z M35.1,90c0.4,0.6,1.1,1.1,1.9,1.2c-0.2,0.8-0.9,1.5-1.8,1.5c-0.9,0-1.6-0.6-1.8-1.5
	C34,91.1,34.7,90.6,35.1,90z M35.1,87.9c-0.9,0-1.6-0.6-1.8-1.5c0.7-0.2,1.4-0.6,1.8-1.2c0.4,0.6,1.1,1.1,1.9,1.2
	C36.8,87.3,36,87.9,35.1,87.9z M32.7,85.5c-0.9,0-1.6-0.6-1.8-1.5c0.8-0.1,1.4-0.6,1.9-1.2c0.4,0.6,1.1,1.1,1.8,1.2
	C34.3,84.9,33.6,85.5,32.7,85.5z M32.7,80.8c-0.9,0-1.6-0.6-1.8-1.5c0.8-0.1,1.4-0.6,1.9-1.2c0.4,0.6,1.1,1.1,1.8,1.2
	C34.3,80.2,33.6,80.8,32.7,80.8z M30.4,78.4c-0.9,0-1.6-0.6-1.8-1.5c0.7-0.2,1.4-0.6,1.8-1.2c0.4,0.6,1.1,1.1,1.9,1.2
	C32,77.8,31.3,78.4,30.4,78.4z M30.4,73.6c-0.9,0-1.6-0.6-1.8-1.5c0.7-0.2,1.4-0.6,1.8-1.2c0.4,0.6,1.1,1.1,1.9,1.2
	C32,73,31.3,73.6,30.4,73.6z M30.4,68.9c-0.9,0-1.6-0.6-1.8-1.5c0.7-0.2,1.4-0.6,1.8-1.2c0.4,0.6,1.1,1.1,1.9,1.2
	C32,68.2,31.3,68.9,30.4,68.9z M30.4,64.1c-0.9,0-1.6-0.6-1.8-1.5c0.7-0.2,1.4-0.6,1.8-1.2c0.4,0.6,1.1,1.1,1.9,1.2
	C32,63.5,31.3,64.1,30.4,64.1z M30.4,59.3c-0.9,0-1.6-0.6-1.8-1.5c0.7-0.2,1.4-0.6,1.8-1.2c0.4,0.6,1.1,1.1,1.9,1.2
	C32,58.7,31.3,59.3,30.4,59.3z M30.4,54.6c-0.9,0-1.6-0.6-1.8-1.5c0.7-0.2,1.4-0.6,1.8-1.2c0.4,0.6,1.1,1.1,1.9,1.2
	C32,54,31.3,54.6,30.4,54.6z M30.9,50.7c0.8-0.1,1.4-0.6,1.9-1.2c0.4,0.6,1.1,1.1,1.8,1.2c-0.2,0.8-0.9,1.5-1.8,1.5
	C31.8,52.2,31.1,51.6,30.9,50.7z M33.3,48.4c0.7-0.2,1.4-0.6,1.8-1.2c0.4,0.6,1.1,1.1,1.9,1.2c-0.2,0.8-0.9,1.5-1.8,1.5
	C34.2,49.8,33.5,49.2,33.3,48.4z M35.6,46c0.8-0.1,1.4-0.6,1.9-1.2c0.4,0.6,1.1,1.1,1.8,1.2c-0.2,0.8-0.9,1.5-1.8,1.5
	C36.6,47.4,35.8,46.8,35.6,46z M37.5,42.7c-0.9,0-1.6-0.6-1.8-1.5c0.8-0.1,1.4-0.6,1.9-1.2c0.4,0.6,1.1,1.1,1.8,1.2
	C39.1,42.1,38.4,42.7,37.5,42.7z M38,38.8c0.7-0.2,1.4-0.6,1.8-1.2c0.4,0.6,1.1,1.1,1.9,1.2c-0.2,0.8-0.9,1.5-1.8,1.5
	C39,40.3,38.2,39.7,38,38.8z M40.4,36.5c0.8-0.1,1.4-0.6,1.9-1.2c0.4,0.6,1.1,1.1,1.8,1.2c-0.2,0.8-0.9,1.5-1.8,1.5
	C41.3,37.9,40.6,37.3,40.4,36.5z M42.8,34.1c0.7-0.2,1.4-0.6,1.8-1.2c0.4,0.6,1.1,1.1,1.9,1.2c-0.2,0.8-0.9,1.5-1.8,1.5
	C43.8,35.5,43,34.9,42.8,34.1z M45.2,31.7c0.8-0.1,1.4-0.6,1.9-1.2c0.4,0.6,1.1,1.1,1.8,1.2c-0.2,0.8-0.9,1.5-1.8,1.5
	C46.1,33.2,45.4,32.5,45.2,31.7z M47.6,29.3c0.7-0.2,1.4-0.6,1.8-1.2c0.4,0.6,1.1,1.1,1.9,1.2c-0.2,0.8-0.9,1.5-1.8,1.5
	C48.5,30.8,47.8,30.1,47.6,29.3z M49.9,26.9c0.8-0.1,1.4-0.6,1.9-1.2c0.4,0.6,1.1,1.1,1.8,1.2c-0.2,0.8-0.9,1.5-1.8,1.5
	C50.9,28.4,50.1,27.8,49.9,26.9z M51.8,23.6c-0.9,0-1.6-0.6-1.8-1.5c0.8-0.1,1.4-0.6,1.9-1.2c0.4,0.6,1.1,1.1,1.8,1.2
	C53.4,23,52.7,23.6,51.8,23.6z M49.4,21.2c-0.9,0-1.6-0.6-1.8-1.5c0.7-0.2,1.4-0.6,1.8-1.2c0.4,0.6,1.1,1.1,1.9,1.2
	C51,20.6,50.3,21.2,49.4,21.2z M48.8,22.2c-0.2,0.8-0.9,1.5-1.8,1.5c-0.9,0-1.6-0.6-1.8-1.5c0.8-0.1,1.4-0.6,1.9-1.2
	C47.4,21.6,48.1,22,48.8,22.2z M44.6,21.2c-0.9,0-1.6-0.6-1.8-1.5c0.7-0.2,1.4-0.6,1.8-1.2c0.4,0.6,1.1,1.1,1.9,1.2
	C46.3,20.6,45.5,21.2,44.6,21.2z M44.1,22.2c-0.2,0.8-0.9,1.5-1.8,1.5c-0.9,0-1.6-0.6-1.8-1.5c0.8-0.1,1.4-0.6,1.9-1.2
	C42.7,21.6,43.3,22,44.1,22.2z M39.9,21.2c-0.9,0-1.6-0.6-1.8-1.5c0.7-0.2,1.4-0.6,1.8-1.2c0.4,0.6,1.1,1.1,1.9,1.2
	C41.5,20.6,40.8,21.2,39.9,21.2z M39.3,22.2c-0.2,0.8-0.9,1.5-1.8,1.5c-0.9,0-1.6-0.6-1.8-1.5c0.8-0.1,1.4-0.6,1.9-1.2
	C37.9,21.6,38.6,22,39.3,22.2z M35.1,21.2c-0.9,0-1.6-0.6-1.8-1.5c0.7-0.2,1.4-0.6,1.8-1.2c0.4,0.6,1.1,1.1,1.9,1.2
	C36.8,20.6,36,21.2,35.1,21.2z M34.5,22.2c-0.2,0.8-0.9,1.5-1.8,1.5c-0.9,0-1.6-0.6-1.8-1.5c0.8-0.1,1.4-0.6,1.9-1.2
	C33.2,21.6,33.8,22,34.5,22.2z M30.4,21.2c-0.9,0-1.6-0.6-1.8-1.5c0.7-0.2,1.4-0.6,1.8-1.2c0.4,0.6,1.1,1.1,1.9,1.2
	C32,20.6,31.3,21.2,30.4,21.2z M29.8,22.2c-0.2,0.8-0.9,1.5-1.8,1.5c-0.9,0-1.6-0.6-1.8-1.5c0.8-0.1,1.4-0.6,1.9-1.2
	C28.4,21.6,29,22,29.8,22.2z M25.6,21.2c-0.9,0-1.6-0.6-1.8-1.5c0.7-0.2,1.4-0.6,1.8-1.2c0.4,0.6,1.1,1.1,1.9,1.2
	C27.2,20.6,26.5,21.2,25.6,21.2z M25,22.2c-0.2,0.8-0.9,1.5-1.8,1.5c-0.9,0-1.6-0.6-1.8-1.5c0.8-0.1,1.4-0.6,1.9-1.2
	C23.6,21.6,24.3,22,25,22.2z M20.8,21.2c-0.9,0-1.6-0.6-1.8-1.5c0.7-0.2,1.4-0.6,1.8-1.2c0.4,0.6,1.1,1.1,1.9,1.2
	C22.5,20.6,21.7,21.2,20.8,21.2z M20.3,22.2c-0.2,0.8-0.9,1.5-1.8,1.5c-0.9,0-1.6-0.6-1.8-1.5c0.8-0.1,1.4-0.6,1.9-1.2
	C18.9,21.6,19.5,22,20.3,22.2z M16.1,21.2c-0.9,0-1.6-0.6-1.8-1.5c0.7-0.2,1.4-0.6,1.8-1.2c0.4,0.6,1.1,1.1,1.9,1.2
	C17.7,20.6,17,21.2,16.1,21.2z M16,23.3c0.4,0.6,1.1,1.1,1.9,1.2C17.7,25.4,17,26,16.1,26c-0.9,0-1.6-0.6-1.8-1.5
	C15,24.4,15.6,23.9,16,23.3z M16,28.1c0.4,0.6,1.1,1.1,1.9,1.2c-0.2,0.8-0.9,1.5-1.8,1.5c-0.9,0-1.6-0.6-1.8-1.5
	C15,29.2,15.6,28.7,16,28.1z M16,32.9c0.4,0.6,1.1,1.1,1.9,1.2c-0.2,0.8-0.9,1.5-1.8,1.5c-0.9,0-1.6-0.6-1.8-1.5
	C15,33.9,15.6,33.5,16,32.9z M16,37.6c0.4,0.6,1.1,1.1,1.9,1.2c-0.2,0.8-0.9,1.5-1.8,1.5c-0.9,0-1.6-0.6-1.8-1.5
	C15,38.7,15.6,38.2,16,37.6z M16,42.4c0.4,0.6,1.1,1.1,1.9,1.2c-0.2,0.8-0.9,1.5-1.8,1.5c-0.9,0-1.6-0.6-1.8-1.5
	C15,43.4,15.6,43,16,42.4z M16,47.1c0.4,0.6,1.1,1.1,1.9,1.2c-0.2,0.8-0.9,1.5-1.8,1.5c-0.9,0-1.6-0.6-1.8-1.5
	C15,48.2,15.6,47.8,16,47.1z M16,51.9c0.4,0.6,1.1,1.1,1.9,1.2c-0.2,0.8-0.9,1.5-1.8,1.5c-0.9,0-1.6-0.6-1.8-1.5
	C15,53,15.6,52.5,16,51.9z M16,56.7c0.4,0.6,1.1,1.1,1.9,1.2c-0.2,0.8-0.9,1.5-1.8,1.5c-0.9,0-1.6-0.6-1.8-1.5
	C15,57.7,15.6,57.3,16,56.7z M16,61.4c0.4,0.6,1.1,1.1,1.9,1.2c-0.2,0.8-0.9,1.5-1.8,1.5c-0.9,0-1.6-0.6-1.8-1.5
	C15,62.5,15.6,62.1,16,61.4z M16,66.2c0.4,0.6,1.1,1.1,1.9,1.2c-0.2,0.8-0.9,1.5-1.8,1.5c-0.9,0-1.6-0.6-1.8-1.5
	C15,67.3,15.6,66.8,16,66.2z M16,71c0.4,0.6,1.1,1.1,1.9,1.2c-0.2,0.8-0.9,1.5-1.8,1.5c-0.9,0-1.6-0.6-1.8-1.5
	C15,72,15.6,71.6,16,71z M16,75.7c0.4,0.6,1.1,1.1,1.9,1.2c-0.2,0.8-0.9,1.5-1.8,1.5c-0.9,0-1.6-0.6-1.8-1.5
	C15,76.8,15.6,76.3,16,75.7z M16,80.5c0.4,0.6,1.1,1.1,1.9,1.2c-0.2,0.8-0.9,1.5-1.8,1.5c-0.9,0-1.6-0.6-1.8-1.5
	C15,81.5,15.6,81.1,16,80.5z M16,85.3c0.4,0.6,1.1,1.1,1.9,1.2c-0.2,0.8-0.9,1.5-1.8,1.5c-0.9,0-1.6-0.6-1.8-1.5
	C15,86.3,15.6,85.9,16,85.3z M16,90c0.4,0.6,1.1,1.1,1.9,1.2c-0.2,0.8-0.9,1.5-1.8,1.5c-0.9,0-1.6-0.6-1.8-1.5
	C15,91.1,15.6,90.6,16,90z M16,94.8c0.4,0.6,1.1,1.1,1.9,1.2c-0.2,0.8-0.9,1.5-1.8,1.5c-0.9,0-1.6-0.6-1.8-1.5
	C15,95.8,15.6,95.4,16,94.8z M16.6,93.6c0.8-0.1,1.4-0.6,1.9-1.2c0.4,0.6,1.1,1.1,1.8,1.2c-0.2,0.8-0.9,1.5-1.8,1.5
	C17.5,95.1,16.8,94.4,16.6,93.6z M20.8,94.8c0.4,0.6,1.1,1.1,1.9,1.2c-0.2,0.8-0.9,1.5-1.8,1.5c-0.9,0-1.6-0.6-1.8-1.5
	C19.7,95.8,20.4,95.4,20.8,94.8z M21.3,93.6c0.8-0.1,1.4-0.6,1.9-1.2c0.4,0.6,1.1,1.1,1.8,1.2c-0.2,0.8-0.9,1.5-1.8,1.5
	C22.3,95.1,21.5,94.4,21.3,93.6z M25.6,94.8c0.4,0.6,1.1,1.1,1.9,1.2c-0.2,0.8-0.9,1.5-1.8,1.5c-0.9,0-1.6-0.6-1.8-1.5
	C24.5,95.8,25.2,95.4,25.6,94.8z M26.1,93.6c0.8-0.1,1.4-0.6,1.9-1.2c0.4,0.6,1.1,1.1,1.8,1.2c-0.2,0.8-0.9,1.5-1.8,1.5
	C27.1,95.1,26.3,94.4,26.1,93.6z M30.3,94.8c0.4,0.6,1.1,1.1,1.9,1.2c-0.2,0.8-0.9,1.5-1.8,1.5c-0.9,0-1.6-0.6-1.8-1.5
	C29.3,95.8,29.9,95.4,30.3,94.8z M30.9,93.6c0.8-0.1,1.4-0.6,1.9-1.2c0.4,0.6,1.1,1.1,1.8,1.2c-0.2,0.8-0.9,1.5-1.8,1.5
	C31.8,95.1,31.1,94.4,30.9,93.6z M35.1,94.8c0.4,0.6,1.1,1.1,1.9,1.2c-0.2,0.8-0.9,1.5-1.8,1.5c-0.9,0-1.6-0.6-1.8-1.5
	C34,95.8,34.7,95.4,35.1,94.8z M35.6,93.6c0.8-0.1,1.4-0.6,1.9-1.2c0.4,0.6,1.1,1.1,1.8,1.2c-0.2,0.8-0.9,1.5-1.8,1.5
	C36.6,95.1,35.8,94.4,35.6,93.6z M39.9,94.8c0.4,0.6,1.1,1.1,1.9,1.2c-0.2,0.8-0.9,1.5-1.8,1.5c-0.9,0-1.6-0.6-1.8-1.5
	C38.8,95.8,39.4,95.4,39.9,94.8z M42.2,90.3c-0.9,0-1.6-0.6-1.8-1.5c0.8-0.1,1.4-0.6,1.9-1.2c0.4,0.6,1.1,1.1,1.8,1.2
	C43.9,89.7,43.1,90.3,42.2,90.3z M39.9,87.9c-0.9,0-1.6-0.6-1.8-1.5c0.7-0.2,1.4-0.6,1.8-1.2c0.4,0.6,1.1,1.1,1.9,1.2
	C41.5,87.3,40.8,87.9,39.9,87.9z M37.5,85.5c-0.9,0-1.6-0.6-1.8-1.5c0.8-0.1,1.4-0.6,1.9-1.2c0.4,0.6,1.1,1.1,1.8,1.2
	C39.1,84.9,38.4,85.5,37.5,85.5z M35.1,83.2c-0.9,0-1.6-0.6-1.8-1.5c0.7-0.2,1.4-0.6,1.8-1.2c0.4,0.6,1.1,1.1,1.9,1.2
	C36.8,82.5,36,83.2,35.1,83.2z M35.1,78.4c-0.9,0-1.6-0.6-1.8-1.5c0.7-0.2,1.4-0.6,1.8-1.2c0.4,0.6,1.1,1.1,1.9,1.2
	C36.8,77.8,36,78.4,35.1,78.4z M32.7,76c-0.9,0-1.6-0.6-1.8-1.5c0.8-0.1,1.4-0.6,1.9-1.2c0.4,0.6,1.1,1.1,1.8,1.2
	C34.3,75.4,33.6,76,32.7,76z M32.7,71.3c-0.9,0-1.6-0.6-1.8-1.5c0.8-0.1,1.4-0.6,1.9-1.2c0.4,0.6,1.1,1.1,1.8,1.2
	C34.3,70.6,33.6,71.3,32.7,71.3z M32.7,66.5c-0.9,0-1.6-0.6-1.8-1.5c0.8-0.1,1.4-0.6,1.9-1.2c0.4,0.6,1.1,1.1,1.8,1.2
	C34.3,65.9,33.6,66.5,32.7,66.5z M32.7,61.7c-0.9,0-1.6-0.6-1.8-1.5c0.8-0.1,1.4-0.6,1.9-1.2c0.4,0.6,1.1,1.1,1.8,1.2
	C34.3,61.1,33.6,61.7,32.7,61.7z M32.7,57c-0.9,0-1.6-0.6-1.8-1.5c0.8-0.1,1.4-0.6,1.9-1.2c0.4,0.6,1.1,1.1,1.8,1.2
	C34.3,56.3,33.6,57,32.7,57z M33.3,53.1c0.7-0.2,1.4-0.6,1.8-1.2c0.4,0.6,1.1,1.1,1.9,1.2c-0.2,0.8-0.9,1.5-1.8,1.5
	C34.2,54.6,33.5,54,33.3,53.1z M35.6,50.7c0.8-0.1,1.4-0.6,1.9-1.2c0.4,0.6,1.1,1.1,1.8,1.2c-0.2,0.8-0.9,1.5-1.8,1.5
	C36.6,52.2,35.8,51.6,35.6,50.7z M38,48.4c0.7-0.2,1.4-0.6,1.8-1.2c0.4,0.6,1.1,1.1,1.9,1.2c-0.2,0.8-0.9,1.5-1.8,1.5
	C39,49.8,38.2,49.2,38,48.4z M39.9,45.1c-0.9,0-1.6-0.6-1.8-1.5c0.7-0.2,1.4-0.6,1.8-1.2c0.4,0.6,1.1,1.1,1.9,1.2
	C41.5,44.4,40.8,45.1,39.9,45.1z M40.4,41.2c0.8-0.1,1.4-0.6,1.9-1.2c0.4,0.6,1.1,1.1,1.8,1.2c-0.2,0.8-0.9,1.5-1.8,1.5
	C41.3,42.7,40.6,42.1,40.4,41.2z M42.8,38.8c0.7-0.2,1.4-0.6,1.8-1.2c0.4,0.6,1.1,1.1,1.9,1.2c-0.2,0.8-0.9,1.5-1.8,1.5
	C43.8,40.3,43,39.7,42.8,38.8z M45.2,36.5c0.8-0.1,1.4-0.6,1.9-1.2c0.4,0.6,1.1,1.1,1.8,1.2c-0.2,0.8-0.9,1.5-1.8,1.5
	C46.1,37.9,45.4,37.3,45.2,36.5z M47.6,34.1c0.7-0.2,1.4-0.6,1.8-1.2c0.4,0.6,1.1,1.1,1.9,1.2c-0.2,0.8-0.9,1.5-1.8,1.5
	C48.5,35.5,47.8,34.9,47.6,34.1z M49.9,31.7c0.8-0.1,1.4-0.6,1.9-1.2c0.4,0.6,1.1,1.1,1.8,1.2c-0.2,0.8-0.9,1.5-1.8,1.5
	C50.9,33.2,50.1,32.5,49.9,31.7z M52.3,29.3c0.7-0.2,1.4-0.6,1.8-1.2c0.4,0.6,1.1,1.1,1.9,1.2c-0.2,0.8-0.9,1.5-1.8,1.5
	C53.3,30.8,52.5,30.1,52.3,29.3z M54.2,26c-0.9,0-1.6-0.6-1.8-1.5c0.7-0.2,1.4-0.6,1.8-1.2c0.4,0.6,1.1,1.1,1.9,1.2
	C55.8,25.4,55.1,26,54.2,26z M54.2,21.2c-0.9,0-1.6-0.6-1.8-1.5c0.7-0.2,1.4-0.6,1.8-1.2c0.4,0.6,1.1,1.1,1.9,1.2
	C55.8,20.6,55.1,21.2,54.2,21.2z M54.2,16.5c-0.9,0-1.6-0.6-1.8-1.5c0.7-0.2,1.4-0.6,1.8-1.2c0.4,0.6,1.1,1.1,1.9,1.2
	C55.8,15.9,55.1,16.5,54.2,16.5z M53.6,17.4c-0.2,0.8-0.9,1.5-1.8,1.5c-0.9,0-1.6-0.6-1.8-1.5c0.8-0.1,1.4-0.6,1.9-1.2
	C52.2,16.8,52.8,17.2,53.6,17.4z M49.4,16.5c-0.9,0-1.6-0.6-1.8-1.5c0.7-0.2,1.4-0.6,1.8-1.2c0.4,0.6,1.1,1.1,1.9,1.2
	C51,15.9,50.3,16.5,49.4,16.5z M48.8,17.4c-0.2,0.8-0.9,1.5-1.8,1.5c-0.9,0-1.6-0.6-1.8-1.5c0.8-0.1,1.4-0.6,1.9-1.2
	C47.4,16.8,48.1,17.2,48.8,17.4z M44.6,16.5c-0.9,0-1.6-0.6-1.8-1.5c0.7-0.2,1.4-0.6,1.8-1.2c0.4,0.6,1.1,1.1,1.9,1.2
	C46.3,15.9,45.5,16.5,44.6,16.5z M44.1,17.4c-0.2,0.8-0.9,1.5-1.8,1.5c-0.9,0-1.6-0.6-1.8-1.5c0.8-0.1,1.4-0.6,1.9-1.2
	C42.7,16.8,43.3,17.2,44.1,17.4z M39.9,16.5c-0.9,0-1.6-0.6-1.8-1.5c0.7-0.2,1.4-0.6,1.8-1.2c0.4,0.6,1.1,1.1,1.9,1.2
	C41.5,15.9,40.8,16.5,39.9,16.5z M39.3,17.4c-0.2,0.8-0.9,1.5-1.8,1.5c-0.9,0-1.6-0.6-1.8-1.5c0.8-0.1,1.4-0.6,1.9-1.2
	C37.9,16.8,38.6,17.2,39.3,17.4z M35.1,16.5c-0.9,0-1.6-0.6-1.8-1.5c0.7-0.2,1.4-0.6,1.8-1.2c0.4,0.6,1.1,1.1,1.9,1.2
	C36.8,15.9,36,16.5,35.1,16.5z M34.5,17.4c-0.2,0.8-0.9,1.5-1.8,1.5c-0.9,0-1.6-0.6-1.8-1.5c0.8-0.1,1.4-0.6,1.9-1.2
	C33.2,16.8,33.8,17.2,34.5,17.4z M30.4,16.5c-0.9,0-1.6-0.6-1.8-1.5c0.7-0.2,1.4-0.6,1.8-1.2c0.4,0.6,1.1,1.1,1.9,1.2
	C32,15.9,31.3,16.5,30.4,16.5z M29.8,17.4c-0.2,0.8-0.9,1.5-1.8,1.5c-0.9,0-1.6-0.6-1.8-1.5c0.8-0.1,1.4-0.6,1.9-1.2
	C28.4,16.8,29,17.2,29.8,17.4z M25.6,16.5c-0.9,0-1.6-0.6-1.8-1.5c0.7-0.2,1.4-0.6,1.8-1.2c0.4,0.6,1.1,1.1,1.9,1.2
	C27.2,15.9,26.5,16.5,25.6,16.5z M25,17.4c-0.2,0.8-0.9,1.5-1.8,1.5c-0.9,0-1.6-0.6-1.8-1.5c0.8-0.1,1.4-0.6,1.9-1.2
	C23.6,16.8,24.3,17.2,25,17.4z M20.8,16.5c-0.9,0-1.6-0.6-1.8-1.5c0.7-0.2,1.4-0.6,1.8-1.2c0.4,0.6,1.1,1.1,1.9,1.2
	C22.5,15.9,21.7,16.5,20.8,16.5z M20.3,17.4c-0.2,0.8-0.9,1.5-1.8,1.5c-0.9,0-1.6-0.6-1.8-1.5c0.8-0.1,1.4-0.6,1.9-1.2
	C18.9,16.8,19.5,17.2,20.3,17.4z M16.1,16.5c-0.9,0-1.6-0.6-1.8-1.5c0.7-0.2,1.4-0.6,1.8-1.2c0.4,0.6,1.1,1.1,1.9,1.2
	C17.7,15.9,17,16.5,16.1,16.5z M15.5,17.4c-0.2,0.8-0.9,1.5-1.8,1.5c-0.9,0-1.6-0.6-1.8-1.5c0.8-0.1,1.4-0.6,1.9-1.2
	C14.1,16.8,14.7,17.2,15.5,17.4z M13.7,21c0.4,0.6,1.1,1.1,1.8,1.2c-0.2,0.8-0.9,1.5-1.8,1.5c-0.9,0-1.6-0.6-1.8-1.5
	C12.6,22,13.3,21.6,13.7,21z M13.7,25.7c0.4,0.6,1.1,1.1,1.8,1.2c-0.2,0.8-0.9,1.5-1.8,1.5c-0.9,0-1.6-0.6-1.8-1.5
	C12.6,26.8,13.3,26.3,13.7,25.7z M13.7,30.5c0.4,0.6,1.1,1.1,1.8,1.2c-0.2,0.8-0.9,1.5-1.8,1.5c-0.9,0-1.6-0.6-1.8-1.5
	C12.6,31.6,13.3,31.1,13.7,30.5z M13.7,35.2c0.4,0.6,1.1,1.1,1.8,1.2c-0.2,0.8-0.9,1.5-1.8,1.5c-0.9,0-1.6-0.6-1.8-1.5
	C12.6,36.3,13.3,35.9,13.7,35.2z M13.7,40c0.4,0.6,1.1,1.1,1.8,1.2c-0.2,0.8-0.9,1.5-1.8,1.5c-0.9,0-1.6-0.6-1.8-1.5
	C12.6,41.1,13.3,40.6,13.7,40z M13.7,44.8c0.4,0.6,1.1,1.1,1.8,1.2c-0.2,0.8-0.9,1.5-1.8,1.5c-0.9,0-1.6-0.6-1.8-1.5
	C12.6,45.8,13.3,45.4,13.7,44.8z M13.7,49.5c0.4,0.6,1.1,1.1,1.8,1.2c-0.2,0.8-0.9,1.5-1.8,1.5c-0.9,0-1.6-0.6-1.8-1.5
	C12.6,50.6,13.3,50.2,13.7,49.5z M13.7,54.3c0.4,0.6,1.1,1.1,1.8,1.2c-0.2,0.8-0.9,1.5-1.8,1.5c-0.9,0-1.6-0.6-1.8-1.5
	C12.6,55.4,13.3,54.9,13.7,54.3z M13.7,59.1c0.4,0.6,1.1,1.1,1.8,1.2c-0.2,0.8-0.9,1.5-1.8,1.5c-0.9,0-1.6-0.6-1.8-1.5
	C12.6,60.1,13.3,59.7,13.7,59.1z M13.7,63.8c0.4,0.6,1.1,1.1,1.8,1.2c-0.2,0.8-0.9,1.5-1.8,1.5c-0.9,0-1.6-0.6-1.8-1.5
	C12.6,64.9,13.3,64.4,13.7,63.8z M13.7,68.6c0.4,0.6,1.1,1.1,1.8,1.2c-0.2,0.8-0.9,1.5-1.8,1.5c-0.9,0-1.6-0.6-1.8-1.5
	C12.6,69.7,13.3,69.2,13.7,68.6z M13.7,73.3c0.4,0.6,1.1,1.1,1.8,1.2c-0.2,0.8-0.9,1.5-1.8,1.5c-0.9,0-1.6-0.6-1.8-1.5
	C12.6,74.4,13.3,74,13.7,73.3z M13.7,78.1c0.4,0.6,1.1,1.1,1.8,1.2c-0.2,0.8-0.9,1.5-1.8,1.5c-0.9,0-1.6-0.6-1.8-1.5
	C12.6,79.2,13.3,78.7,13.7,78.1z M13.7,82.9c0.4,0.6,1.1,1.1,1.8,1.2c-0.2,0.8-0.9,1.5-1.8,1.5c-0.9,0-1.6-0.6-1.8-1.5
	C12.6,83.9,13.3,83.5,13.7,82.9z M13.7,87.6c0.4,0.6,1.1,1.1,1.8,1.2c-0.2,0.8-0.9,1.5-1.8,1.5c-0.9,0-1.6-0.6-1.8-1.5
	C12.6,88.7,13.3,88.3,13.7,87.6z M13.7,92.4c0.4,0.6,1.1,1.1,1.8,1.2c-0.2,0.8-0.9,1.5-1.8,1.5c-0.9,0-1.6-0.6-1.8-1.5
	C12.6,93.5,13.3,93,13.7,92.4z M13.7,97.2c0.4,0.6,1.1,1.1,1.8,1.2c-0.2,0.8-0.9,1.5-1.8,1.5c-0.9,0-1.6-0.6-1.8-1.5
	C12.6,98.2,13.3,97.8,13.7,97.2z M16,99.5c0.4,0.6,1.1,1.1,1.9,1.2c-0.2,0.8-0.9,1.5-1.8,1.5c-0.9,0-1.6-0.6-1.8-1.5
	C15,100.6,15.6,100.2,16,99.5z M16.6,98.4c0.8-0.1,1.4-0.6,1.9-1.2c0.4,0.6,1.1,1.1,1.8,1.2c-0.2,0.8-0.9,1.5-1.8,1.5
	C17.5,99.8,16.8,99.2,16.6,98.4z M20.8,99.5c0.4,0.6,1.1,1.1,1.9,1.2c-0.2,0.8-0.9,1.5-1.8,1.5c-0.9,0-1.6-0.6-1.8-1.5
	C19.7,100.6,20.4,100.2,20.8,99.5z M21.3,98.4c0.8-0.1,1.4-0.6,1.9-1.2c0.4,0.6,1.1,1.1,1.8,1.2c-0.2,0.8-0.9,1.5-1.8,1.5
	C22.3,99.8,21.5,99.2,21.3,98.4z M25.6,99.5c0.4,0.6,1.1,1.1,1.9,1.2c-0.2,0.8-0.9,1.5-1.8,1.5c-0.9,0-1.6-0.6-1.8-1.5
	C24.5,100.6,25.2,100.2,25.6,99.5z M26.1,98.4c0.8-0.1,1.4-0.6,1.9-1.2c0.4,0.6,1.1,1.1,1.8,1.2c-0.2,0.8-0.9,1.5-1.8,1.5
	C27.1,99.8,26.3,99.2,26.1,98.4z M30.3,99.5c0.4,0.6,1.1,1.1,1.9,1.2c-0.2,0.8-0.9,1.5-1.8,1.5c-0.9,0-1.6-0.6-1.8-1.5
	C29.3,100.6,29.9,100.2,30.3,99.5z M30.9,98.4c0.8-0.1,1.4-0.6,1.9-1.2c0.4,0.6,1.1,1.1,1.8,1.2c-0.2,0.8-0.9,1.5-1.8,1.5
	C31.8,99.8,31.1,99.2,30.9,98.4z M35.1,99.5c0.4,0.6,1.1,1.1,1.9,1.2c-0.2,0.8-0.9,1.5-1.8,1.5c-0.9,0-1.6-0.6-1.8-1.5
	C34,100.6,34.7,100.2,35.1,99.5z M35.6,98.4c0.8-0.1,1.4-0.6,1.9-1.2c0.4,0.6,1.1,1.1,1.8,1.2c-0.2,0.8-0.9,1.5-1.8,1.5
	C36.6,99.8,35.8,99.2,35.6,98.4z M39.9,99.5c0.4,0.6,1.1,1.1,1.9,1.2c-0.2,0.8-0.9,1.5-1.8,1.5c-0.9,0-1.6-0.6-1.8-1.5
	C38.8,100.6,39.4,100.2,39.9,99.5z M40.4,98.4c0.8-0.1,1.4-0.6,1.9-1.2c0.4,0.6,1.1,1.1,1.8,1.2c-0.2,0.8-0.9,1.5-1.8,1.5
	C41.3,99.8,40.6,99.2,40.4,98.4z M44.6,99.5c0.4,0.6,1.1,1.1,1.9,1.2c-0.2,0.8-0.9,1.5-1.8,1.5c-0.9,0-1.6-0.6-1.8-1.5
	C43.6,100.6,44.2,100.2,44.6,99.5z M45.2,98.4c0.8-0.1,1.4-0.6,1.9-1.2c0.4,0.6,1.1,1.1,1.8,1.2c-0.2,0.8-0.9,1.5-1.8,1.5
	C46.1,99.8,45.4,99.2,45.2,98.4z M49.4,99.5c0.4,0.6,1.1,1.1,1.9,1.2c-0.2,0.8-0.9,1.5-1.8,1.5c-0.9,0-1.6-0.6-1.8-1.5
	C48.3,100.6,49,100.2,49.4,99.5z M51.8,95.1c-0.9,0-1.6-0.6-1.8-1.5c0.8-0.1,1.4-0.6,1.9-1.2c0.4,0.6,1.1,1.1,1.8,1.2
	C53.4,94.4,52.7,95.1,51.8,95.1z M51.2,96c-0.2,0.8-0.9,1.5-1.8,1.5c-0.9,0-1.6-0.6-1.8-1.5c0.7-0.2,1.4-0.6,1.8-1.2
	C49.8,95.4,50.5,95.9,51.2,96z M47,95.1c-0.9,0-1.6-0.6-1.8-1.5c0.8-0.1,1.4-0.6,1.9-1.2c0.4,0.6,1.1,1.1,1.8,1.2
	C48.6,94.4,47.9,95.1,47,95.1z M44.6,92.7c-0.9,0-1.6-0.6-1.8-1.5c0.7-0.2,1.4-0.6,1.8-1.2c0.4,0.6,1.1,1.1,1.9,1.2
	C46.3,92.1,45.5,92.7,44.6,92.7z M44.6,87.9c-0.9,0-1.6-0.6-1.8-1.5c0.7-0.2,1.4-0.6,1.8-1.2c0.4,0.6,1.1,1.1,1.9,1.2
	C46.3,87.3,45.5,87.9,44.6,87.9z M42.2,85.5c-0.9,0-1.6-0.6-1.8-1.5c0.8-0.1,1.4-0.6,1.9-1.2c0.4,0.6,1.1,1.1,1.8,1.2
	C43.9,84.9,43.1,85.5,42.2,85.5z M39.9,83.2c-0.9,0-1.6-0.6-1.8-1.5c0.7-0.2,1.4-0.6,1.8-1.2c0.4,0.6,1.1,1.1,1.9,1.2
	C41.5,82.5,40.8,83.2,39.9,83.2z M37.5,80.8c-0.9,0-1.6-0.6-1.8-1.5c0.8-0.1,1.4-0.6,1.9-1.2c0.4,0.6,1.1,1.1,1.8,1.2
	C39.1,80.2,38.4,80.8,37.5,80.8z M37.5,76c-0.9,0-1.6-0.6-1.8-1.5c0.8-0.1,1.4-0.6,1.9-1.2c0.4,0.6,1.1,1.1,1.8,1.2
	C39.1,75.4,38.4,76,37.5,76z M35.1,73.6c-0.9,0-1.6-0.6-1.8-1.5c0.7-0.2,1.4-0.6,1.8-1.2c0.4,0.6,1.1,1.1,1.9,1.2
	C36.8,73,36,73.6,35.1,73.6z M35.1,68.9c-0.9,0-1.6-0.6-1.8-1.5c0.7-0.2,1.4-0.6,1.8-1.2c0.4,0.6,1.1,1.1,1.9,1.2
	C36.8,68.2,36,68.9,35.1,68.9z M35.1,64.1c-0.9,0-1.6-0.6-1.8-1.5c0.7-0.2,1.4-0.6,1.8-1.2c0.4,0.6,1.1,1.1,1.9,1.2
	C36.8,63.5,36,64.1,35.1,64.1z M35.1,59.3c-0.9,0-1.6-0.6-1.8-1.5c0.7-0.2,1.4-0.6,1.8-1.2c0.4,0.6,1.1,1.1,1.9,1.2
	C36.8,58.7,36,59.3,35.1,59.3z M35.6,55.5c0.8-0.1,1.4-0.6,1.9-1.2c0.4,0.6,1.1,1.1,1.8,1.2c-0.2,0.8-0.9,1.5-1.8,1.5
	C36.6,57,35.8,56.3,35.6,55.5z M38,53.1c0.7-0.2,1.4-0.6,1.8-1.2c0.4,0.6,1.1,1.1,1.9,1.2c-0.2,0.8-0.9,1.5-1.8,1.5
	C39,54.6,38.2,54,38,53.1z M40.4,50.7c0.8-0.1,1.4-0.6,1.9-1.2c0.4,0.6,1.1,1.1,1.8,1.2c-0.2,0.8-0.9,1.5-1.8,1.5
	C41.3,52.2,40.6,51.6,40.4,50.7z M42.2,47.4c-0.9,0-1.6-0.6-1.8-1.5c0.8-0.1,1.4-0.6,1.9-1.2c0.4,0.6,1.1,1.1,1.8,1.2
	C43.9,46.8,43.1,47.4,42.2,47.4z M42.8,43.6c0.7-0.2,1.4-0.6,1.8-1.2c0.4,0.6,1.1,1.1,1.9,1.2c-0.2,0.8-0.9,1.5-1.8,1.5
	C43.8,45.1,43,44.4,42.8,43.6z M45.2,41.2c0.8-0.1,1.4-0.6,1.9-1.2c0.4,0.6,1.1,1.1,1.8,1.2c-0.2,0.8-0.9,1.5-1.8,1.5
	C46.1,42.7,45.4,42.1,45.2,41.2z M47.6,38.8c0.7-0.2,1.4-0.6,1.8-1.2c0.4,0.6,1.1,1.1,1.9,1.2c-0.2,0.8-0.9,1.5-1.8,1.5
	C48.5,40.3,47.8,39.7,47.6,38.8z M49.9,36.5c0.8-0.1,1.4-0.6,1.9-1.2c0.4,0.6,1.1,1.1,1.8,1.2c-0.2,0.8-0.9,1.5-1.8,1.5
	C50.9,37.9,50.1,37.3,49.9,36.5z M52.3,34.1c0.7-0.2,1.4-0.6,1.8-1.2c0.4,0.6,1.1,1.1,1.9,1.2c-0.2,0.8-0.9,1.5-1.8,1.5
	C53.3,35.5,52.5,34.9,52.3,34.1z M54.7,31.7c0.8-0.1,1.4-0.6,1.9-1.2c0.4,0.6,1.1,1.1,1.8,1.2c-0.2,0.8-0.9,1.5-1.8,1.5
	C55.6,33.2,54.9,32.5,54.7,31.7z M56.5,28.4c-0.9,0-1.6-0.6-1.8-1.5c0.8-0.1,1.4-0.6,1.9-1.2c0.4,0.6,1.1,1.1,1.8,1.2
	C58.2,27.8,57.4,28.4,56.5,28.4z M56.5,23.6c-0.9,0-1.6-0.6-1.8-1.5c0.8-0.1,1.4-0.6,1.9-1.2c0.4,0.6,1.1,1.1,1.8,1.2
	C58.2,23,57.4,23.6,56.5,23.6z M56.5,18.9c-0.9,0-1.6-0.6-1.8-1.5c0.8-0.1,1.4-0.6,1.9-1.2c0.4,0.6,1.1,1.1,1.8,1.2
	C58.2,18.2,57.4,18.9,56.5,18.9z M56.5,14.1c-0.9,0-1.6-0.6-1.8-1.5c0.8-0.1,1.4-0.6,1.9-1.2c0.4,0.6,1.1,1.1,1.8,1.2
	C58.2,13.5,57.4,14.1,56.5,14.1z M54.2,11.7c-0.9,0-1.6-0.6-1.8-1.5c0.7-0.2,1.4-0.6,1.8-1.2c0.4,0.6,1.1,1.1,1.9,1.2
	C55.8,11.1,55.1,11.7,54.2,11.7z M53.6,12.6c-0.2,0.8-0.9,1.5-1.8,1.5c-0.9,0-1.6-0.6-1.8-1.5c0.8-0.1,1.4-0.6,1.9-1.2
	C52.2,12,52.8,12.5,53.6,12.6z M49.4,11.7c-0.9,0-1.6-0.6-1.8-1.5c0.7-0.2,1.4-0.6,1.8-1.2c0.4,0.6,1.1,1.1,1.9,1.2
	C51,11.1,50.3,11.7,49.4,11.7z M48.8,12.6c-0.2,0.8-0.9,1.5-1.8,1.5c-0.9,0-1.6-0.6-1.8-1.5c0.8-0.1,1.4-0.6,1.9-1.2
	C47.4,12,48.1,12.5,48.8,12.6z M44.6,11.7c-0.9,0-1.6-0.6-1.8-1.5c0.7-0.2,1.4-0.6,1.8-1.2c0.4,0.6,1.1,1.1,1.9,1.2
	C46.3,11.1,45.5,11.7,44.6,11.7z M44.1,12.6c-0.2,0.8-0.9,1.5-1.8,1.5c-0.9,0-1.6-0.6-1.8-1.5c0.8-0.1,1.4-0.6,1.9-1.2
	C42.7,12,43.3,12.5,44.1,12.6z M39.9,11.7c-0.9,0-1.6-0.6-1.8-1.5c0.7-0.2,1.4-0.6,1.8-1.2c0.4,0.6,1.1,1.1,1.9,1.2
	C41.5,11.1,40.8,11.7,39.9,11.7z M39.3,12.6c-0.2,0.8-0.9,1.5-1.8,1.5c-0.9,0-1.6-0.6-1.8-1.5c0.8-0.1,1.4-0.6,1.9-1.2
	C37.9,12,38.6,12.5,39.3,12.6z M35.1,11.7c-0.9,0-1.6-0.6-1.8-1.5c0.7-0.2,1.4-0.6,1.8-1.2c0.4,0.6,1.1,1.1,1.9,1.2
	C36.8,11.1,36,11.7,35.1,11.7z M34.5,12.6c-0.2,0.8-0.9,1.5-1.8,1.5c-0.9,0-1.6-0.6-1.8-1.5c0.8-0.1,1.4-0.6,1.9-1.2
	C33.2,12,33.8,12.5,34.5,12.6z M30.4,11.7c-0.9,0-1.6-0.6-1.8-1.5c0.7-0.2,1.4-0.6,1.8-1.2c0.4,0.6,1.1,1.1,1.9,1.2
	C32,11.1,31.3,11.7,30.4,11.7z M29.8,12.6c-0.2,0.8-0.9,1.5-1.8,1.5c-0.9,0-1.6-0.6-1.8-1.5c0.8-0.1,1.4-0.6,1.9-1.2
	C28.4,12,29,12.5,29.8,12.6z M25.6,11.7c-0.9,0-1.6-0.6-1.8-1.5c0.7-0.2,1.4-0.6,1.8-1.2c0.4,0.6,1.1,1.1,1.9,1.2
	C27.2,11.1,26.5,11.7,25.6,11.7z M25,12.6c-0.2,0.8-0.9,1.5-1.8,1.5c-0.9,0-1.6-0.6-1.8-1.5c0.8-0.1,1.4-0.6,1.9-1.2
	C23.6,12,24.3,12.5,25,12.6z M20.8,11.7c-0.9,0-1.6-0.6-1.8-1.5c0.7-0.2,1.4-0.6,1.8-1.2c0.4,0.6,1.1,1.1,1.9,1.2
	C22.5,11.1,21.7,11.7,20.8,11.7z M20.3,12.6c-0.2,0.8-0.9,1.5-1.8,1.5c-0.9,0-1.6-0.6-1.8-1.5c0.8-0.1,1.4-0.6,1.9-1.2
	C18.9,12,19.5,12.5,20.3,12.6z M16.1,11.7c-0.9,0-1.6-0.6-1.8-1.5C15,10.1,15.6,9.7,16,9c0.4,0.6,1.1,1.1,1.9,1.2
	C17.7,11.1,17,11.7,16.1,11.7z M15.5,12.6c-0.2,0.8-0.9,1.5-1.8,1.5c-0.9,0-1.6-0.6-1.8-1.5c0.8-0.1,1.4-0.6,1.9-1.2
	C14.1,12,14.7,12.5,15.5,12.6z M11.3,11.7c-0.9,0-1.6-0.6-1.8-1.5c0.7-0.2,1.4-0.6,1.8-1.2c0.4,0.6,1.1,1.1,1.9,1.2
	C12.9,11.1,12.2,11.7,11.3,11.7z M11.3,13.8c0.4,0.6,1.1,1.1,1.9,1.2c-0.2,0.8-0.9,1.5-1.8,1.5c-0.9,0-1.6-0.6-1.8-1.5
	C10.2,14.9,10.9,14.4,11.3,13.8z M11.3,18.6c0.4,0.6,1.1,1.1,1.9,1.2c-0.2,0.8-0.9,1.5-1.8,1.5c-0.9,0-1.6-0.6-1.8-1.5
	C10.2,19.6,10.9,19.2,11.3,18.6z M11.3,23.3c0.4,0.6,1.1,1.1,1.9,1.2c-0.2,0.8-0.9,1.5-1.8,1.5c-0.9,0-1.6-0.6-1.8-1.5
	C10.2,24.4,10.9,23.9,11.3,23.3z M11.3,28.1c0.4,0.6,1.1,1.1,1.9,1.2c-0.2,0.8-0.9,1.5-1.8,1.5c-0.9,0-1.6-0.6-1.8-1.5
	C10.2,29.2,10.9,28.7,11.3,28.1z M11.3,32.9c0.4,0.6,1.1,1.1,1.9,1.2c-0.2,0.8-0.9,1.5-1.8,1.5c-0.9,0-1.6-0.6-1.8-1.5
	C10.2,33.9,10.9,33.5,11.3,32.9z M11.3,37.6c0.4,0.6,1.1,1.1,1.9,1.2c-0.2,0.8-0.9,1.5-1.8,1.5c-0.9,0-1.6-0.6-1.8-1.5
	C10.2,38.7,10.9,38.2,11.3,37.6z M11.3,42.4c0.4,0.6,1.1,1.1,1.9,1.2c-0.2,0.8-0.9,1.5-1.8,1.5c-0.9,0-1.6-0.6-1.8-1.5
	C10.2,43.4,10.9,43,11.3,42.4z M11.3,47.1c0.4,0.6,1.1,1.1,1.9,1.2c-0.2,0.8-0.9,1.5-1.8,1.5c-0.9,0-1.6-0.6-1.8-1.5
	C10.2,48.2,10.9,47.8,11.3,47.1z M11.3,51.9c0.4,0.6,1.1,1.1,1.9,1.2c-0.2,0.8-0.9,1.5-1.8,1.5c-0.9,0-1.6-0.6-1.8-1.5
	C10.2,53,10.9,52.5,11.3,51.9z M11.3,56.7c0.4,0.6,1.1,1.1,1.9,1.2c-0.2,0.8-0.9,1.5-1.8,1.5c-0.9,0-1.6-0.6-1.8-1.5
	C10.2,57.7,10.9,57.3,11.3,56.7z M11.3,61.4c0.4,0.6,1.1,1.1,1.9,1.2c-0.2,0.8-0.9,1.5-1.8,1.5c-0.9,0-1.6-0.6-1.8-1.5
	C10.2,62.5,10.9,62.1,11.3,61.4z M11.3,66.2c0.4,0.6,1.1,1.1,1.9,1.2c-0.2,0.8-0.9,1.5-1.8,1.5c-0.9,0-1.6-0.6-1.8-1.5
	C10.2,67.3,10.9,66.8,11.3,66.2z M11.3,71c0.4,0.6,1.1,1.1,1.9,1.2c-0.2,0.8-0.9,1.5-1.8,1.5c-0.9,0-1.6-0.6-1.8-1.5
	C10.2,72,10.9,71.6,11.3,71z M11.3,75.7c0.4,0.6,1.1,1.1,1.9,1.2c-0.2,0.8-0.9,1.5-1.8,1.5c-0.9,0-1.6-0.6-1.8-1.5
	C10.2,76.8,10.9,76.3,11.3,75.7z M11.3,80.5c0.4,0.6,1.1,1.1,1.9,1.2c-0.2,0.8-0.9,1.5-1.8,1.5c-0.9,0-1.6-0.6-1.8-1.5
	C10.2,81.5,10.9,81.1,11.3,80.5z M11.3,85.3c0.4,0.6,1.1,1.1,1.9,1.2c-0.2,0.8-0.9,1.5-1.8,1.5c-0.9,0-1.6-0.6-1.8-1.5
	C10.2,86.3,10.9,85.9,11.3,85.3z M11.3,90c0.4,0.6,1.1,1.1,1.9,1.2c-0.2,0.8-0.9,1.5-1.8,1.5c-0.9,0-1.6-0.6-1.8-1.5
	C10.2,91.1,10.9,90.6,11.3,90z M11.3,94.8c0.4,0.6,1.1,1.1,1.9,1.2c-0.2,0.8-0.9,1.5-1.8,1.5c-0.9,0-1.6-0.6-1.8-1.5
	C10.2,95.8,10.9,95.4,11.3,94.8z M11.3,99.5c0.4,0.6,1.1,1.1,1.9,1.2c-0.2,0.8-0.9,1.5-1.8,1.5c-0.9,0-1.6-0.6-1.8-1.5
	C10.2,100.6,10.9,100.2,11.3,99.5z M11.3,104.3c0.4,0.6,1.1,1.1,1.9,1.2c-0.2,0.8-0.9,1.5-1.8,1.5c-0.9,0-1.6-0.6-1.8-1.5
	C10.2,105.4,10.9,104.9,11.3,104.3z M11.8,103.1c0.8-0.1,1.4-0.6,1.9-1.2c0.4,0.6,1.1,1.1,1.8,1.2c-0.2,0.8-0.9,1.5-1.8,1.5
	C12.8,104.6,12,104,11.8,103.1z M16,104.3c0.4,0.6,1.1,1.1,1.9,1.2c-0.2,0.8-0.9,1.5-1.8,1.5c-0.9,0-1.6-0.6-1.8-1.5
	C15,105.4,15.6,104.9,16,104.3z M16.6,103.1c0.8-0.1,1.4-0.6,1.9-1.2c0.4,0.6,1.1,1.1,1.8,1.2c-0.2,0.8-0.9,1.5-1.8,1.5
	C17.5,104.6,16.8,104,16.6,103.1z M20.8,104.3c0.4,0.6,1.1,1.1,1.9,1.2c-0.2,0.8-0.9,1.5-1.8,1.5c-0.9,0-1.6-0.6-1.8-1.5
	C19.7,105.4,20.4,104.9,20.8,104.3z M21.3,103.1c0.8-0.1,1.4-0.6,1.9-1.2c0.4,0.6,1.1,1.1,1.8,1.2c-0.2,0.8-0.9,1.5-1.8,1.5
	C22.3,104.6,21.5,104,21.3,103.1z M25.6,104.3c0.4,0.6,1.1,1.1,1.9,1.2c-0.2,0.8-0.9,1.5-1.8,1.5c-0.9,0-1.6-0.6-1.8-1.5
	C24.5,105.4,25.2,104.9,25.6,104.3z M26.1,103.1c0.8-0.1,1.4-0.6,1.9-1.2c0.4,0.6,1.1,1.1,1.8,1.2c-0.2,0.8-0.9,1.5-1.8,1.5
	C27.1,104.6,26.3,104,26.1,103.1z M30.3,104.3c0.4,0.6,1.1,1.1,1.9,1.2c-0.2,0.8-0.9,1.5-1.8,1.5c-0.9,0-1.6-0.6-1.8-1.5
	C29.3,105.4,29.9,104.9,30.3,104.3z M30.9,103.1c0.8-0.1,1.4-0.6,1.9-1.2c0.4,0.6,1.1,1.1,1.8,1.2c-0.2,0.8-0.9,1.5-1.8,1.5
	C31.8,104.6,31.1,104,30.9,103.1z M35.1,104.3c0.4,0.6,1.1,1.1,1.9,1.2c-0.2,0.8-0.9,1.5-1.8,1.5c-0.9,0-1.6-0.6-1.8-1.5
	C34,105.4,34.7,104.9,35.1,104.3z M35.6,103.1c0.8-0.1,1.4-0.6,1.9-1.2c0.4,0.6,1.1,1.1,1.8,1.2c-0.2,0.8-0.9,1.5-1.8,1.5
	C36.6,104.6,35.8,104,35.6,103.1z M39.9,104.3c0.4,0.6,1.1,1.1,1.9,1.2c-0.2,0.8-0.9,1.5-1.8,1.5c-0.9,0-1.6-0.6-1.8-1.5
	C38.8,105.4,39.4,104.9,39.9,104.3z M40.4,103.1c0.8-0.1,1.4-0.6,1.9-1.2c0.4,0.6,1.1,1.1,1.8,1.2c-0.2,0.8-0.9,1.5-1.8,1.5
	C41.3,104.6,40.6,104,40.4,103.1z M44.6,104.3c0.4,0.6,1.1,1.1,1.9,1.2c-0.2,0.8-0.9,1.5-1.8,1.5c-0.9,0-1.6-0.6-1.8-1.5
	C43.6,105.4,44.2,104.9,44.6,104.3z M45.2,103.1c0.8-0.1,1.4-0.6,1.9-1.2c0.4,0.6,1.1,1.1,1.8,1.2c-0.2,0.8-0.9,1.5-1.8,1.5
	C46.1,104.6,45.4,104,45.2,103.1z M49.4,104.3c0.4,0.6,1.1,1.1,1.9,1.2c-0.2,0.8-0.9,1.5-1.8,1.5c-0.9,0-1.6-0.6-1.8-1.5
	C48.3,105.4,49,104.9,49.4,104.3z M49.9,103.1c0.8-0.1,1.4-0.6,1.9-1.2c0.4,0.6,1.1,1.1,1.8,1.2c-0.2,0.8-0.9,1.5-1.8,1.5
	C50.9,104.6,50.1,104,49.9,103.1z M54.1,104.3c0.4,0.6,1.1,1.1,1.9,1.2c-0.2,0.8-0.9,1.5-1.8,1.5c-0.9,0-1.6-0.6-1.8-1.5
	C53.1,105.4,53.7,104.9,54.1,104.3z M54.7,103.1c0.8-0.1,1.4-0.6,1.9-1.2c0.4,0.6,1.1,1.1,1.8,1.2c-0.2,0.8-0.9,1.5-1.8,1.5
	C55.6,104.6,54.9,104,54.7,103.1z M56,96c-0.2,0.8-0.9,1.5-1.8,1.5c-0.9,0-1.6-0.6-1.8-1.5c0.7-0.2,1.4-0.6,1.8-1.2
	C54.6,95.4,55.2,95.9,56,96z M54.1,90c0.4,0.6,1.1,1.1,1.9,1.2c-0.2,0.8-0.9,1.5-1.8,1.5c-0.9,0-1.6-0.6-1.8-1.5
	C53.1,91.1,53.7,90.6,54.1,90z M51.8,87.6c0.4,0.6,1.1,1.1,1.8,1.2c-0.2,0.8-0.9,1.5-1.8,1.5c-0.9,0-1.6-0.6-1.8-1.5
	C50.7,88.7,51.4,88.3,51.8,87.6z M49.4,90c0.4,0.6,1.1,1.1,1.9,1.2c-0.2,0.8-0.9,1.5-1.8,1.5c-0.9,0-1.6-0.6-1.8-1.5
	C48.3,91.1,49,90.6,49.4,90z M48.8,88.8c-0.2,0.8-0.9,1.5-1.8,1.5c-0.9,0-1.6-0.6-1.8-1.5c0.8-0.1,1.4-0.6,1.9-1.2
	C47.4,88.2,48.1,88.7,48.8,88.8z M47,82.9c0.4,0.6,1.1,1.1,1.8,1.2c-0.2,0.8-0.9,1.5-1.8,1.5c-0.9,0-1.6-0.6-1.8-1.5
	C45.9,83.9,46.6,83.5,47,82.9z M44.6,80.5c0.4,0.6,1.1,1.1,1.9,1.2c-0.2,0.8-0.9,1.5-1.8,1.5c-0.9,0-1.6-0.6-1.8-1.5
	C43.6,81.5,44.2,81.1,44.6,80.5z M42.3,78.1c0.4,0.6,1.1,1.1,1.8,1.2c-0.2,0.8-0.9,1.5-1.8,1.5c-0.9,0-1.6-0.6-1.8-1.5
	C41.2,79.2,41.8,78.7,42.3,78.1z M41.7,76.9c-0.2,0.8-0.9,1.5-1.8,1.5c-0.9,0-1.6-0.6-1.8-1.5c0.7-0.2,1.4-0.6,1.8-1.2
	C40.3,76.4,40.9,76.8,41.7,76.9z M39.9,71c0.4,0.6,1.1,1.1,1.9,1.2c-0.2,0.8-0.9,1.5-1.8,1.5c-0.9,0-1.6-0.6-1.8-1.5
	C38.8,72,39.4,71.6,39.9,71z M39.3,69.8c-0.2,0.8-0.9,1.5-1.8,1.5c-0.9,0-1.6-0.6-1.8-1.5c0.8-0.1,1.4-0.6,1.9-1.2
	C37.9,69.2,38.6,69.6,39.3,69.8z M39.3,65c-0.2,0.8-0.9,1.5-1.8,1.5c-0.9,0-1.6-0.6-1.8-1.5c0.8-0.1,1.4-0.6,1.9-1.2
	C37.9,64.4,38.6,64.9,39.3,65z M37.5,61.7c-0.9,0-1.6-0.6-1.8-1.5c0.8-0.1,1.4-0.6,1.9-1.2c0.4,0.6,1.1,1.1,1.8,1.2
	C39.1,61.1,38.4,61.7,37.5,61.7z M39.9,59.3c-0.9,0-1.6-0.6-1.8-1.5c0.7-0.2,1.4-0.6,1.8-1.2c0.4,0.6,1.1,1.1,1.9,1.2
	C41.5,58.7,40.8,59.3,39.9,59.3z M42.2,57c-0.9,0-1.6-0.6-1.8-1.5c0.8-0.1,1.4-0.6,1.9-1.2c0.4,0.6,1.1,1.1,1.8,1.2
	C43.9,56.3,43.1,57,42.2,57z M46.5,53.1c-0.2,0.8-0.9,1.5-1.8,1.5c-0.9,0-1.6-0.6-1.8-1.5c0.7-0.2,1.4-0.6,1.8-1.2
	C45,52.5,45.7,53,46.5,53.1z M44.6,49.8c-0.9,0-1.6-0.6-1.8-1.5c0.7-0.2,1.4-0.6,1.8-1.2c0.4,0.6,1.1,1.1,1.9,1.2
	C46.3,49.2,45.5,49.8,44.6,49.8z M47,47.4c-0.9,0-1.6-0.6-1.8-1.5c0.8-0.1,1.4-0.6,1.9-1.2c0.4,0.6,1.1,1.1,1.8,1.2
	C48.6,46.8,47.9,47.4,47,47.4z M49.4,45.1c-0.9,0-1.6-0.6-1.8-1.5c0.7-0.2,1.4-0.6,1.8-1.2c0.4,0.6,1.1,1.1,1.9,1.2
	C51,44.4,50.3,45.1,49.4,45.1z M51.8,42.7c-0.9,0-1.6-0.6-1.8-1.5c0.8-0.1,1.4-0.6,1.9-1.2c0.4,0.6,1.1,1.1,1.8,1.2
	C53.4,42.1,52.7,42.7,51.8,42.7z M54.2,40.3c-0.9,0-1.6-0.6-1.8-1.5c0.7-0.2,1.4-0.6,1.8-1.2c0.4,0.6,1.1,1.1,1.9,1.2
	C55.8,39.7,55.1,40.3,54.2,40.3z M56.5,37.9c-0.9,0-1.6-0.6-1.8-1.5c0.8-0.1,1.4-0.6,1.9-1.2c0.4,0.6,1.1,1.1,1.8,1.2
	C58.2,37.3,57.4,37.9,56.5,37.9z M60.8,34.1c-0.2,0.8-0.9,1.5-1.8,1.5c-0.9,0-1.6-0.6-1.8-1.5c0.7-0.2,1.4-0.6,1.8-1.2
	C59.3,33.5,60,33.9,60.8,34.1z M60.8,29.3c-0.2,0.8-0.9,1.5-1.8,1.5c-0.9,0-1.6-0.6-1.8-1.5c0.7-0.2,1.4-0.6,1.8-1.2
	C59.3,28.7,60,29.2,60.8,29.3z M60.8,24.6c-0.2,0.8-0.9,1.5-1.8,1.5c-0.9,0-1.6-0.6-1.8-1.5c0.7-0.2,1.4-0.6,1.8-1.2
	C59.3,24,60,24.4,60.8,24.6z M60.8,19.8c-0.2,0.8-0.9,1.5-1.8,1.5c-0.9,0-1.6-0.6-1.8-1.5c0.7-0.2,1.4-0.6,1.8-1.2
	C59.3,19.2,60,19.6,60.8,19.8z M60.8,15c-0.2,0.8-0.9,1.5-1.8,1.5c-0.9,0-1.6-0.6-1.8-1.5c0.7-0.2,1.4-0.6,1.8-1.2
	C59.3,14.4,60,14.9,60.8,15z M60.8,10.3c-0.2,0.8-0.9,1.5-1.8,1.5c-0.9,0-1.6-0.6-1.8-1.5c0.7-0.2,1.4-0.6,1.8-1.2
	C59.3,9.7,60,10.1,60.8,10.3z M58.9,4.3c0.4,0.6,1.1,1.1,1.9,1.2C60.6,6.3,59.8,7,58.9,7c-0.9,0-1.6-0.6-1.8-1.5
	C57.8,5.3,58.5,4.9,58.9,4.3z M56.6,6.7c0.4,0.6,1.1,1.1,1.8,1.2c-0.2,0.8-0.9,1.5-1.8,1.5c-0.9,0-1.6-0.6-1.8-1.5
	C55.5,7.7,56.1,7.3,56.6,6.7z M54.1,4.3c0.4,0.6,1.1,1.1,1.9,1.2C55.8,6.3,55.1,7,54.2,7c-0.9,0-1.6-0.6-1.8-1.5
	C53.1,5.3,53.7,4.9,54.1,4.3z M51.8,6.7c0.4,0.6,1.1,1.1,1.8,1.2c-0.2,0.8-0.9,1.5-1.8,1.5c-0.9,0-1.6-0.6-1.8-1.5
	C50.7,7.7,51.4,7.3,51.8,6.7z M49.4,4.3c0.4,0.6,1.1,1.1,1.9,1.2C51,6.3,50.3,7,49.4,7c-0.9,0-1.6-0.6-1.8-1.5
	C48.3,5.3,49,4.9,49.4,4.3z M47,6.7c0.4,0.6,1.1,1.1,1.8,1.2c-0.2,0.8-0.9,1.5-1.8,1.5c-0.9,0-1.6-0.6-1.8-1.5
	C45.9,7.7,46.6,7.3,47,6.7z M44.6,4.3c0.4,0.6,1.1,1.1,1.9,1.2C46.3,6.3,45.5,7,44.6,7c-0.9,0-1.6-0.6-1.8-1.5
	C43.6,5.3,44.2,4.9,44.6,4.3z M42.3,6.7c0.4,0.6,1.1,1.1,1.8,1.2c-0.2,0.8-0.9,1.5-1.8,1.5c-0.9,0-1.6-0.6-1.8-1.5
	C41.2,7.7,41.8,7.3,42.3,6.7z M39.9,4.3c0.4,0.6,1.1,1.1,1.9,1.2C41.5,6.3,40.8,7,39.9,7C39,7,38.2,6.3,38,5.5
	C38.8,5.3,39.4,4.9,39.9,4.3z M37.5,6.7c0.4,0.6,1.1,1.1,1.8,1.2c-0.2,0.8-0.9,1.5-1.8,1.5c-0.9,0-1.6-0.6-1.8-1.5
	C36.4,7.7,37.1,7.3,37.5,6.7z M35.1,4.3c0.4,0.6,1.1,1.1,1.9,1.2C36.8,6.3,36,7,35.1,7c-0.9,0-1.6-0.6-1.8-1.5
	C34,5.3,34.7,4.9,35.1,4.3z M32.7,6.7c0.4,0.6,1.1,1.1,1.8,1.2c-0.2,0.8-0.9,1.5-1.8,1.5c-0.9,0-1.6-0.6-1.8-1.5
	C31.6,7.7,32.3,7.3,32.7,6.7z M30.3,4.3c0.4,0.6,1.1,1.1,1.9,1.2C32,6.3,31.3,7,30.4,7c-0.9,0-1.6-0.6-1.8-1.5
	C29.3,5.3,29.9,4.9,30.3,4.3z M28,6.7c0.4,0.6,1.1,1.1,1.8,1.2c-0.2,0.8-0.9,1.5-1.8,1.5c-0.9,0-1.6-0.6-1.8-1.5
	C26.9,7.7,27.6,7.3,28,6.7z M25.6,4.3c0.4,0.6,1.1,1.1,1.9,1.2C27.2,6.3,26.5,7,25.6,7c-0.9,0-1.6-0.6-1.8-1.5
	C24.5,5.3,25.2,4.9,25.6,4.3z M23.2,6.7c0.4,0.6,1.1,1.1,1.8,1.2c-0.2,0.8-0.9,1.5-1.8,1.5c-0.9,0-1.6-0.6-1.8-1.5
	C22.1,7.7,22.8,7.3,23.2,6.7z M20.8,4.3c0.4,0.6,1.1,1.1,1.9,1.2C22.5,6.3,21.7,7,20.8,7c-0.9,0-1.6-0.6-1.8-1.5
	C19.7,5.3,20.4,4.9,20.8,4.3z M18.5,6.7c0.4,0.6,1.1,1.1,1.8,1.2c-0.2,0.8-0.9,1.5-1.8,1.5c-0.9,0-1.6-0.6-1.8-1.5
	C17.4,7.7,18,7.3,18.5,6.7z M16,4.3c0.4,0.6,1.1,1.1,1.9,1.2C17.7,6.3,17,7,16.1,7c-0.9,0-1.6-0.6-1.8-1.5C15,5.3,15.6,4.9,16,4.3z
	 M13.7,6.7c0.4,0.6,1.1,1.1,1.8,1.2c-0.2,0.8-0.9,1.5-1.8,1.5c-0.9,0-1.6-0.6-1.8-1.5C12.6,7.7,13.3,7.3,13.7,6.7z M11.3,4.3
	c0.4,0.6,1.1,1.1,1.9,1.2C12.9,6.3,12.2,7,11.3,7c-0.9,0-1.6-0.6-1.8-1.5C10.2,5.3,10.9,4.9,11.3,4.3z M7.1,7.9
	c0.8-0.1,1.4-0.6,1.9-1.2c0.4,0.6,1.1,1.1,1.8,1.2c-0.2,0.8-0.9,1.5-1.8,1.5C8,9.3,7.3,8.7,7.1,7.9z M7.1,12.6
	c0.8-0.1,1.4-0.6,1.9-1.2c0.4,0.6,1.1,1.1,1.8,1.2c-0.2,0.8-0.9,1.5-1.8,1.5C8,14.1,7.3,13.5,7.1,12.6z M7.1,17.4
	c0.8-0.1,1.4-0.6,1.9-1.2c0.4,0.6,1.1,1.1,1.8,1.2c-0.2,0.8-0.9,1.5-1.8,1.5C8,18.9,7.3,18.2,7.1,17.4z M7.1,22.2
	C7.8,22,8.5,21.6,8.9,21c0.4,0.6,1.1,1.1,1.8,1.2c-0.2,0.8-0.9,1.5-1.8,1.5C8,23.6,7.3,23,7.1,22.2z M7.1,26.9
	c0.8-0.1,1.4-0.6,1.9-1.2c0.4,0.6,1.1,1.1,1.8,1.2c-0.2,0.8-0.9,1.5-1.8,1.5C8,28.4,7.3,27.8,7.1,26.9z M7.1,31.7
	c0.8-0.1,1.4-0.6,1.9-1.2c0.4,0.6,1.1,1.1,1.8,1.2c-0.2,0.8-0.9,1.5-1.8,1.5C8,33.2,7.3,32.5,7.1,31.7z M7.1,36.5
	c0.8-0.1,1.4-0.6,1.9-1.2c0.4,0.6,1.1,1.1,1.8,1.2c-0.2,0.8-0.9,1.5-1.8,1.5C8,37.9,7.3,37.3,7.1,36.5z M7.1,41.2
	c0.8-0.1,1.4-0.6,1.9-1.2c0.4,0.6,1.1,1.1,1.8,1.2c-0.2,0.8-0.9,1.5-1.8,1.5C8,42.7,7.3,42.1,7.1,41.2z M7.1,46
	c0.8-0.1,1.4-0.6,1.9-1.2c0.4,0.6,1.1,1.1,1.8,1.2c-0.2,0.8-0.9,1.5-1.8,1.5C8,47.4,7.3,46.8,7.1,46z M7.1,50.7
	c0.8-0.1,1.4-0.6,1.9-1.2c0.4,0.6,1.1,1.1,1.8,1.2c-0.2,0.8-0.9,1.5-1.8,1.5C8,52.2,7.3,51.6,7.1,50.7z M7.1,55.5
	c0.8-0.1,1.4-0.6,1.9-1.2c0.4,0.6,1.1,1.1,1.8,1.2C10.5,56.3,9.8,57,8.9,57C8,57,7.3,56.3,7.1,55.5z M7.1,60.3
	c0.8-0.1,1.4-0.6,1.9-1.2c0.4,0.6,1.1,1.1,1.8,1.2c-0.2,0.8-0.9,1.5-1.8,1.5C8,61.7,7.3,61.1,7.1,60.3z M7.1,65
	c0.8-0.1,1.4-0.6,1.9-1.2c0.4,0.6,1.1,1.1,1.8,1.2c-0.2,0.8-0.9,1.5-1.8,1.5C8,66.5,7.3,65.9,7.1,65z M7.1,69.8
	c0.8-0.1,1.4-0.6,1.9-1.2c0.4,0.6,1.1,1.1,1.8,1.2c-0.2,0.8-0.9,1.5-1.8,1.5C8,71.3,7.3,70.6,7.1,69.8z M7.1,74.6
	c0.8-0.1,1.4-0.6,1.9-1.2c0.4,0.6,1.1,1.1,1.8,1.2C10.5,75.4,9.8,76,8.9,76C8,76,7.3,75.4,7.1,74.6z M7.1,79.3
	c0.8-0.1,1.4-0.6,1.9-1.2c0.4,0.6,1.1,1.1,1.8,1.2c-0.2,0.8-0.9,1.5-1.8,1.5C8,80.8,7.3,80.2,7.1,79.3z M7.1,84.1
	c0.8-0.1,1.4-0.6,1.9-1.2c0.4,0.6,1.1,1.1,1.8,1.2c-0.2,0.8-0.9,1.5-1.8,1.5C8,85.5,7.3,84.9,7.1,84.1z M7.1,88.9
	c0.8-0.1,1.4-0.6,1.9-1.2c0.4,0.6,1.1,1.1,1.8,1.2c-0.2,0.8-0.9,1.5-1.8,1.5C8,90.3,7.3,89.7,7.1,88.9z M7.1,93.6
	c0.8-0.1,1.4-0.6,1.9-1.2c0.4,0.6,1.1,1.1,1.8,1.2c-0.2,0.8-0.9,1.5-1.8,1.5C8,95.1,7.3,94.4,7.1,93.6z M7.1,98.4
	c0.8-0.1,1.4-0.6,1.9-1.2c0.4,0.6,1.1,1.1,1.8,1.2c-0.2,0.8-0.9,1.5-1.8,1.5C8,99.8,7.3,99.2,7.1,98.4z M7.1,103.1
	c0.8-0.1,1.4-0.6,1.9-1.2c0.4,0.6,1.1,1.1,1.8,1.2c-0.2,0.8-0.9,1.5-1.8,1.5C8,104.6,7.3,104,7.1,103.1z M8.9,109.4
	c-0.9,0-1.6-0.6-1.8-1.5c0.8-0.1,1.4-0.6,1.9-1.2c0.4,0.6,1.1,1.1,1.8,1.2C10.5,108.7,9.8,109.4,8.9,109.4z M11.3,111.7
	c-0.9,0-1.6-0.6-1.8-1.5c0.7-0.2,1.4-0.6,1.8-1.2c0.4,0.6,1.1,1.1,1.9,1.2C12.9,111.1,12.2,111.7,11.3,111.7z M13.7,109.4
	c-0.9,0-1.6-0.6-1.8-1.5c0.8-0.1,1.4-0.6,1.9-1.2c0.4,0.6,1.1,1.1,1.8,1.2C15.3,108.7,14.6,109.4,13.7,109.4z M16.1,111.7
	c-0.9,0-1.6-0.6-1.8-1.5c0.7-0.2,1.4-0.6,1.8-1.2c0.4,0.6,1.1,1.1,1.9,1.2C17.7,111.1,17,111.7,16.1,111.7z M18.4,109.4
	c-0.9,0-1.6-0.6-1.8-1.5c0.8-0.1,1.4-0.6,1.9-1.2c0.4,0.6,1.1,1.1,1.8,1.2C20.1,108.7,19.3,109.4,18.4,109.4z M20.8,111.7
	c-0.9,0-1.6-0.6-1.8-1.5c0.7-0.2,1.4-0.6,1.8-1.2c0.4,0.6,1.1,1.1,1.9,1.2C22.5,111.1,21.7,111.7,20.8,111.7z M23.2,109.4
	c-0.9,0-1.6-0.6-1.8-1.5c0.8-0.1,1.4-0.6,1.9-1.2c0.4,0.6,1.1,1.1,1.8,1.2C24.8,108.7,24.1,109.4,23.2,109.4z M25.6,111.7
	c-0.9,0-1.6-0.6-1.8-1.5c0.7-0.2,1.4-0.6,1.8-1.2c0.4,0.6,1.1,1.1,1.9,1.2C27.2,111.1,26.5,111.7,25.6,111.7z M27.9,109.4
	c-0.9,0-1.6-0.6-1.8-1.5c0.8-0.1,1.4-0.6,1.9-1.2c0.4,0.6,1.1,1.1,1.8,1.2C29.6,108.7,28.8,109.4,27.9,109.4z M30.4,111.7
	c-0.9,0-1.6-0.6-1.8-1.5c0.7-0.2,1.4-0.6,1.8-1.2c0.4,0.6,1.1,1.1,1.9,1.2C32,111.1,31.3,111.7,30.4,111.7z M32.7,109.4
	c-0.9,0-1.6-0.6-1.8-1.5c0.8-0.1,1.4-0.6,1.9-1.2c0.4,0.6,1.1,1.1,1.8,1.2C34.3,108.7,33.6,109.4,32.7,109.4z M35.1,111.7
	c-0.9,0-1.6-0.6-1.8-1.5c0.7-0.2,1.4-0.6,1.8-1.2c0.4,0.6,1.1,1.1,1.9,1.2C36.8,111.1,36,111.7,35.1,111.7z M37.5,109.4
	c-0.9,0-1.6-0.6-1.8-1.5c0.8-0.1,1.4-0.6,1.9-1.2c0.4,0.6,1.1,1.1,1.8,1.2C39.1,108.7,38.4,109.4,37.5,109.4z M39.9,111.7
	c-0.9,0-1.6-0.6-1.8-1.5c0.7-0.2,1.4-0.6,1.8-1.2c0.4,0.6,1.1,1.1,1.9,1.2C41.5,111.1,40.8,111.7,39.9,111.7z M42.2,109.4
	c-0.9,0-1.6-0.6-1.8-1.5c0.8-0.1,1.4-0.6,1.9-1.2c0.4,0.6,1.1,1.1,1.8,1.2C43.9,108.7,43.1,109.4,42.2,109.4z M44.6,111.7
	c-0.9,0-1.6-0.6-1.8-1.5c0.7-0.2,1.4-0.6,1.8-1.2c0.4,0.6,1.1,1.1,1.9,1.2C46.3,111.1,45.5,111.7,44.6,111.7z M47,109.4
	c-0.9,0-1.6-0.6-1.8-1.5c0.8-0.1,1.4-0.6,1.9-1.2c0.4,0.6,1.1,1.1,1.8,1.2C48.6,108.7,47.9,109.4,47,109.4z M49.4,111.7
	c-0.9,0-1.6-0.6-1.8-1.5c0.7-0.2,1.4-0.6,1.8-1.2c0.4,0.6,1.1,1.1,1.9,1.2C51,111.1,50.3,111.7,49.4,111.7z M51.8,109.4
	c-0.9,0-1.6-0.6-1.8-1.5c0.8-0.1,1.4-0.6,1.9-1.2c0.4,0.6,1.1,1.1,1.8,1.2C53.4,108.7,52.7,109.4,51.8,109.4z M54.2,111.7
	c-0.9,0-1.6-0.6-1.8-1.5c0.7-0.2,1.4-0.6,1.8-1.2c0.4,0.6,1.1,1.1,1.9,1.2C55.8,111.1,55.1,111.7,54.2,111.7z M56.5,109.4
	c-0.9,0-1.6-0.6-1.8-1.5c0.8-0.1,1.4-0.6,1.9-1.2c0.4,0.6,1.1,1.1,1.8,1.2C58.2,108.7,57.4,109.4,56.5,109.4z M60.8,110.3
	c-0.2,0.8-0.9,1.5-1.8,1.5c-0.9,0-1.6-0.6-1.8-1.5c0.7-0.2,1.4-0.6,1.8-1.2C59.3,109.7,60,110.1,60.8,110.3z M60.8,105.5
	c-0.2,0.8-0.9,1.5-1.8,1.5c-0.9,0-1.6-0.6-1.8-1.5c0.7-0.2,1.4-0.6,1.8-1.2C59.3,104.9,60,105.4,60.8,105.5z M58.9,102.2
	c-0.9,0-1.6-0.6-1.8-1.5c0.7-0.2,1.4-0.6,1.8-1.2c0.4,0.6,1.1,1.1,1.9,1.2C60.6,101.6,59.8,102.2,58.9,102.2z"/>
<g>
	<g>
		<polygon fill="#3F5354" points="47.5,25.2 115.7,15 116.3,18.7 47.9,27.4 		"/>
		<g>
			<path fill="#C49A6C" d="M91.2,61.6c-0.3-1.2-1.1-2.3-2.1-3.2l1.4-1.7c1.4,1.1,2.4,2.6,2.8,4.3L91.2,61.6z"/>
			<g>
				<path fill="#C49A6C" d="M75.9,61.3h-2.2c0-3.4-2.8-6.2-6.2-6.2c-0.4,0-0.8,0-1.3,0.1L65.8,53c0.6-0.1,1.1-0.2,1.7-0.2
					C72.1,52.8,75.9,56.6,75.9,61.3z"/>
				<path fill="#C49A6C" d="M81.1,61.3h-2.2c0-6.3-5.1-11.4-11.4-11.4c-1,0-2,0.1-2.9,0.4L64,48.1c1.1-0.3,2.3-0.5,3.5-0.5
					C75,47.6,81.1,53.7,81.1,61.3z"/>
				<path fill="#C49A6C" d="M86.4,61.3h-2.2c0-9.2-7.5-16.6-16.6-16.6c-2,0-4,0.4-5.9,1.1l-0.8-2.1c2.1-0.8,4.4-1.2,6.6-1.2
					C77.9,42.4,86.4,50.8,86.4,61.3z"/>
				<path fill="#C49A6C" d="M91.2,61.3H89c0-11.9-9.7-21.5-21.5-21.5s-21.5,9.7-21.5,21.5h-2.2c0-13.1,10.7-23.8,23.8-23.8
					C80.6,37.5,91.2,48.2,91.2,61.3z"/>
				<path fill="#C49A6C" d="M104.6,61.3h-2.2c0-2.9,0.9-5.7,2.6-8.1l1.8,1.3C105.3,56.5,104.6,58.8,104.6,61.3z"/>
				<path fill="#C49A6C" d="M99.3,61.3h-2.2c0-4.8,1.8-9.4,5.1-12.9l1.6,1.5C100.9,53,99.3,57,99.3,61.3z"/>
				<path fill="#C49A6C" d="M94.5,61.3h-2.2c0-6.1,2.3-11.9,6.5-16.3l1.6,1.5C96.5,50.5,94.5,55.7,94.5,61.3z"/>
				<path fill="#C49A6C" d="M52.1,61.9L50,61.2c0.2-0.6,0.3-1.2,0.3-1.8c0-2.6-1.6-4.9-4.1-5.8l0.8-2.1c3.3,1.2,5.5,4.4,5.5,7.9
					C52.5,60.2,52.4,61.1,52.1,61.9z"/>
				<path fill="#C49A6C" d="M57.5,61.7l-2.2-0.4c0.1-0.6,0.2-1.3,0.2-2c0-4.6-2.7-8.7-7-10.5l0.9-2.1c5.1,2.1,8.3,7.1,8.3,12.6
					C57.7,60.2,57.7,61,57.5,61.7z"/>
				<path fill="#C49A6C" d="M62.8,61.4l-2.2-0.2c0.1-0.6,0.1-1.2,0.1-1.7c0-6-3.2-11.5-8.4-14.5l1.1-1.9c5.9,3.4,9.5,9.6,9.5,16.4
					C62.9,60.1,62.9,60.7,62.8,61.4z"/>
				<path fill="#C49A6C" d="M67.7,61.3l-2.2-0.2c0-0.6,0.1-1.2,0.1-1.8c0-6.9-3.3-13.4-8.9-17.5l1.3-1.8c6.2,4.5,9.9,11.7,9.9,19.3
					C67.8,60.1,67.8,60.7,67.7,61.3z"/>
				<path fill="#C49A6C" d="M93.4,55.2c-1.6-1.6-3.7-2.8-5.9-3.2l0.4-2.2c2.7,0.5,5.2,1.8,7.1,3.8L93.4,55.2z"/>
				<path fill="#C49A6C" d="M95.9,50.5c-3-2.5-6.8-3.9-10.7-3.9c-0.5,0-0.9,0-1.4,0.1l-0.2-2.2c0.5,0,1-0.1,1.6-0.1
					c4.4,0,8.7,1.6,12.1,4.4L95.9,50.5z"/>
				<path fill="#C49A6C" d="M106.7,61.4c-1-11-10.4-19.6-21.4-19.6c-2.2,0-4.3,0.3-6.4,1l-0.7-2.1c2.3-0.7,4.7-1.1,7.1-1.1
					c12.2,0,22.6,9.5,23.7,21.7L106.7,61.4z"/>
				<path fill="#C49A6C" d="M62.4,38.6h-2.2c0-2.7,2.1-4.1,3.7-5.2c1.7-1.1,2.7-1.9,2.7-3.3c0-1.5-1-2.2-2.7-3.3
					c-1.7-1.1-3.7-2.5-3.7-5.2s2.1-4.1,3.7-5.2c1.7-1.1,2.7-1.9,2.7-3.3h2.2c0,2.7-2.1,4.1-3.7,5.2c-1.7,1.1-2.7,1.9-2.7,3.3
					c0,1.5,1,2.2,2.7,3.3c1.7,1.1,3.7,2.5,3.7,5.2c0,2.7-2.1,4.1-3.7,5.2C63.5,36.4,62.4,37.1,62.4,38.6z"/>
			</g>
		</g>
		<polygon fill="#3F5354" points="47.3,28.5 116.4,27.7 116.4,31.5 47.3,30.7 		"/>
		<g>
			<path fill="#3F5354" d="M94.9,98.3H57c-0.6,0-1.1-0.5-1.1-1.1v-5.8c-10.1-6.7-16.2-18-16.2-30.1c0-0.6,0.5-1.1,1.1-1.1H111
				c0.6,0,1.1,0.5,1.1,1.1c0,12.2-6,23.4-16.2,30.1v5.8C96,97.8,95.5,98.3,94.9,98.3z M58.2,96h35.6v-5.3c0-0.4,0.2-0.7,0.5-0.9
				c9.5-6.1,15.3-16.3,15.6-27.5H42c0.4,11.2,6.1,21.4,15.6,27.5c0.3,0.2,0.5,0.6,0.5,0.9V96z"/>
			<g>
				<g>
					<path fill="#3F5354" d="M53.5,75.8c-7.7,0-14-6.3-14-14c0-0.5,0.4-0.9,0.9-0.9s0.9,0.4,0.9,0.9c0,6.7,5.5,12.2,12.2,12.2
						c6.7,0,12.2-5.5,12.2-12.2c0-0.5,0.4-0.9,0.9-0.9c0.5,0,0.9,0.4,0.9,0.9C67.5,69.6,61.2,75.8,53.5,75.8z"/>
					<path fill="#3F5354" d="M53.5,72.6c-5.9,0-10.8-4.8-10.8-10.8c0-0.4,0.3-0.7,0.7-0.7s0.7,0.3,0.7,0.7c0,5.1,4.2,9.3,9.3,9.3
						s9.3-4.2,9.3-9.3c0-0.4,0.3-0.7,0.7-0.7s0.7,0.3,0.7,0.7C64.3,67.8,59.4,72.6,53.5,72.6z"/>
					<path fill="#3F5354" d="M53.5,69.4c-4.2,0-7.6-3.4-7.6-7.6c0-0.3,0.3-0.6,0.6-0.6c0.3,0,0.6,0.3,0.6,0.6c0,3.5,2.9,6.4,6.4,6.4
						c3.5,0,6.4-2.9,6.4-6.4c0-0.3,0.3-0.6,0.6-0.6c0.3,0,0.6,0.3,0.6,0.6C61.1,66,57.7,69.4,53.5,69.4z"/>
					<path fill="#3F5354" d="M53.5,66.2c-2.4,0-4.4-2-4.4-4.4c0-0.2,0.2-0.4,0.4-0.4s0.4,0.2,0.4,0.4c0,1.9,1.6,3.5,3.5,3.5
						c1.9,0,3.5-1.6,3.5-3.5c0-0.2,0.2-0.4,0.4-0.4s0.4,0.2,0.4,0.4C57.9,64.3,55.9,66.2,53.5,66.2z"/>
				</g>
				<g>
					<path fill="#3F5354" d="M79.6,75.8c-7.7,0-14-6.3-14-14c0-0.5,0.4-0.9,0.9-0.9c0.5,0,0.9,0.4,0.9,0.9c0,6.7,5.5,12.2,12.2,12.2
						c6.7,0,12.2-5.5,12.2-12.2c0-0.5,0.4-0.9,0.9-0.9c0.5,0,0.9,0.4,0.9,0.9C93.5,69.6,87.3,75.8,79.6,75.8z"/>
					<path fill="#3F5354" d="M79.6,72.6c-5.9,0-10.8-4.8-10.8-10.8c0-0.4,0.3-0.7,0.7-0.7c0.4,0,0.7,0.3,0.7,0.7
						c0,5.1,4.2,9.3,9.3,9.3s9.3-4.2,9.3-9.3c0-0.4,0.3-0.7,0.7-0.7s0.7,0.3,0.7,0.7C90.4,67.8,85.5,72.6,79.6,72.6z"/>
					<path fill="#3F5354" d="M79.6,69.4c-4.2,0-7.6-3.4-7.6-7.6c0-0.3,0.3-0.6,0.6-0.6c0.3,0,0.6,0.3,0.6,0.6c0,3.5,2.9,6.4,6.4,6.4
						c3.5,0,6.4-2.9,6.4-6.4c0-0.3,0.3-0.6,0.6-0.6c0.3,0,0.6,0.3,0.6,0.6C87.2,66,83.8,69.4,79.6,69.4z"/>
					<path fill="#3F5354" d="M79.6,66.2c-2.4,0-4.4-2-4.4-4.4c0-0.2,0.2-0.4,0.4-0.4s0.4,0.2,0.4,0.4c0,1.9,1.6,3.5,3.5,3.5
						c1.9,0,3.5-1.6,3.5-3.5c0-0.2,0.2-0.4,0.4-0.4s0.4,0.2,0.4,0.4C84,64.3,82,66.2,79.6,66.2z"/>
				</g>
				<g>
					<path fill="#3F5354" d="M107.8,73.8c-0.7,0.1-1.4,0.2-2.1,0.2c-6.7,0-12.2-5.5-12.2-12.2c0-0.5-0.4-0.9-0.9-0.9
						c-0.5,0-0.9,0.4-0.9,0.9c0,7.7,6.3,14,14,14c0.5,0,1,0,1.5-0.1C107.4,75.1,107.6,74.5,107.8,73.8z"/>
					<path fill="#3F5354" d="M108.9,70.5c-1,0.4-2.1,0.6-3.2,0.6c-5.1,0-9.3-4.2-9.3-9.3c0-0.4-0.3-0.7-0.7-0.7s-0.7,0.3-0.7,0.7
						c0,5.9,4.8,10.8,10.8,10.8c0.9,0,1.8-0.1,2.6-0.3C108.5,71.7,108.7,71.1,108.9,70.5z"/>
					<path fill="#3F5354" d="M110,66.6c-1.1,1-2.6,1.7-4.3,1.7c-3.5,0-6.4-2.9-6.4-6.4c0-0.3-0.3-0.6-0.6-0.6
						c-0.3,0-0.6,0.3-0.6,0.6c0,4.2,3.4,7.6,7.6,7.6c1.4,0,2.7-0.4,3.8-1C109.7,67.8,109.8,67.2,110,66.6z"/>
					<path fill="#3F5354" d="M105.7,66.2c-2.4,0-4.4-2-4.4-4.4c0-0.2,0.2-0.4,0.4-0.4s0.4,0.2,0.4,0.4c0,1.9,1.6,3.5,3.5,3.5
						c1.9,0,3.5-1.6,3.5-3.5c0-0.2,0.2-0.4,0.4-0.4c0.2,0,0.4,0.2,0.4,0.4C110.1,64.3,108.1,66.2,105.7,66.2z"/>
				</g>
				<g>
					<path fill="#3F5354" d="M66.7,88.8c-7.7,0-14-6.3-14-14c0-0.5,0.4-0.9,0.9-0.9s0.9,0.4,0.9,0.9c0,6.7,5.5,12.2,12.2,12.2
						s12.2-5.5,12.2-12.2c0-0.5,0.4-0.9,0.9-0.9c0.5,0,0.9,0.4,0.9,0.9C80.6,82.6,74.4,88.8,66.7,88.8z"/>
					<path fill="#3F5354" d="M66.7,85.6c-5.9,0-10.8-4.8-10.8-10.8c0-0.4,0.3-0.7,0.7-0.7s0.7,0.3,0.7,0.7c0,5.1,4.2,9.3,9.3,9.3
						s9.3-4.2,9.3-9.3c0-0.4,0.3-0.7,0.7-0.7s0.7,0.3,0.7,0.7C77.4,80.8,72.6,85.6,66.7,85.6z"/>
					<path fill="#3F5354" d="M66.7,82.4c-4.2,0-7.6-3.4-7.6-7.6c0-0.3,0.3-0.6,0.6-0.6c0.3,0,0.6,0.3,0.6,0.6c0,3.5,2.9,6.4,6.4,6.4
						c3.5,0,6.4-2.9,6.4-6.4c0-0.3,0.3-0.6,0.6-0.6c0.3,0,0.6,0.3,0.6,0.6C74.2,79,70.8,82.4,66.7,82.4z"/>
					<path fill="#3F5354" d="M66.7,79.3c-2.4,0-4.4-2-4.4-4.4c0-0.2,0.2-0.4,0.4-0.4s0.4,0.2,0.4,0.4c0,1.9,1.6,3.5,3.5,3.5
						c1.9,0,3.5-1.6,3.5-3.5c0-0.2,0.2-0.4,0.4-0.4s0.4,0.2,0.4,0.4C71.1,77.3,69.1,79.3,66.7,79.3z"/>
				</g>
				<g>
					<path fill="#3F5354" d="M50.2,84.6c2.5-2.5,4-6,4-9.8c0-0.5-0.4-0.9-0.9-0.9s-0.9,0.4-0.9,0.9c0,3-1.1,5.8-2.9,7.9
						C49.9,83.3,50.1,83.9,50.2,84.6z"/>
					<path fill="#3F5354" d="M48.6,81.6c1.5-1.8,2.4-4.2,2.4-6.7c0-0.4-0.3-0.7-0.7-0.7c-0.4,0-0.7,0.3-0.7,0.7c0,2-0.7,3.9-1.8,5.4
						C48,80.7,48.3,81.2,48.6,81.6z"/>
					<path fill="#3F5354" d="M46.7,78.8c0.7-1.2,1.1-2.5,1.1-4c0-0.3-0.3-0.6-0.6-0.6s-0.6,0.3-0.6,0.6c0,1.1-0.3,2.1-0.8,3
						C46.1,78.2,46.4,78.5,46.7,78.8z"/>
				</g>
				<g>
					<path fill="#3F5354" d="M92.6,88.8c-7.7,0-14-6.3-14-14c0-0.5,0.4-0.9,0.9-0.9c0.5,0,0.9,0.4,0.9,0.9c0,6.7,5.5,12.2,12.2,12.2
						s12.2-5.5,12.2-12.2c0-0.5,0.4-0.9,0.9-0.9c0.5,0,0.9,0.4,0.9,0.9C106.6,82.6,100.3,88.8,92.6,88.8z"/>
					<path fill="#3F5354" d="M92.6,85.6c-5.9,0-10.8-4.8-10.8-10.8c0-0.4,0.3-0.7,0.7-0.7c0.4,0,0.7,0.3,0.7,0.7
						c0,5.1,4.2,9.3,9.3,9.3s9.3-4.2,9.3-9.3c0-0.4,0.3-0.7,0.7-0.7s0.7,0.3,0.7,0.7C103.4,80.8,98.6,85.6,92.6,85.6z"/>
					<path fill="#3F5354" d="M92.6,82.4c-4.2,0-7.6-3.4-7.6-7.6c0-0.3,0.3-0.6,0.6-0.6c0.3,0,0.6,0.3,0.6,0.6c0,3.5,2.9,6.4,6.4,6.4
						c3.5,0,6.4-2.9,6.4-6.4c0-0.3,0.3-0.6,0.6-0.6c0.3,0,0.6,0.3,0.6,0.6C100.2,79,96.8,82.4,92.6,82.4z"/>
					<path fill="#3F5354" d="M92.6,79.3c-2.4,0-4.4-2-4.4-4.4c0-0.2,0.2-0.4,0.4-0.4c0.2,0,0.4,0.2,0.4,0.4c0,1.9,1.6,3.5,3.5,3.5
						c1.9,0,3.5-1.6,3.5-3.5c0-0.2,0.2-0.4,0.4-0.4s0.4,0.2,0.4,0.4C97,77.3,95.1,79.3,92.6,79.3z"/>
				</g>
			</g>
		</g>
	</g>
</g>
</svg>
