<?xml version="1.0" encoding="utf-8"?>
<!-- Generator: Adobe Illustrator 18.1.1, SVG Export Plug-In . SVG Version: 6.00 Build 0)  -->
<!DOCTYPE svg PUBLIC "-//W3C//DTD SVG 1.1//EN" "http://www.w3.org/Graphics/SVG/1.1/DTD/svg11.dtd">
<svg version="1.1" id="Layer_1" xmlns="http://www.w3.org/2000/svg" xmlns:xlink="http://www.w3.org/1999/xlink" x="0px" y="0px"
	 viewBox="0 0 204.8 93.8" enable-background="new 0 0 204.8 93.8" xml:space="preserve">
<g>
	<path fill="#F4815F" d="M4.4,48.3c-1.6,0-2.9-1.3-2.9-2.9h1c0,1,0.8,1.9,1.9,1.9c1,0,1.9-0.8,1.9-1.9h1C7.3,47,6,48.3,4.4,48.3z"/>
	<path fill="#F4815F" d="M9.2,48.3c-1.6,0-2.9-1.3-2.9-2.9h1c0,1,0.8,1.9,1.9,1.9s1.9-0.8,1.9-1.9h1C12.1,47,10.8,48.3,9.2,48.3z"/>
	<path fill="#F4815F" d="M14,48.3c-1.6,0-2.9-1.3-2.9-2.9h1c0,1,0.8,1.9,1.9,1.9s1.9-0.8,1.9-1.9h1C16.8,47,15.6,48.3,14,48.3z"/>
	<path fill="#F4815F" d="M18.7,48.3c-1.6,0-2.9-1.3-2.9-2.9h1c0,1,0.8,1.9,1.9,1.9c1,0,1.9-0.8,1.9-1.9h1
		C21.6,47,20.3,48.3,18.7,48.3z"/>
	<path fill="#F4815F" d="M23.5,48.3c-1.6,0-2.9-1.3-2.9-2.9h1c0,1,0.8,1.9,1.9,1.9c1,0,1.9-0.8,1.9-1.9h1
		C26.4,47,25.1,48.3,23.5,48.3z"/>
	<path fill="#F4815F" d="M28.3,48.3c-1.6,0-2.9-1.3-2.9-2.9h1c0,1,0.8,1.9,1.9,1.9c1,0,1.9-0.8,1.9-1.9h1
		C31.1,47,29.8,48.3,28.3,48.3z"/>
	<path fill="#F4815F" d="M33,48.3c-1.6,0-2.9-1.3-2.9-2.9h1c0,1,0.8,1.9,1.9,1.9c1,0,1.9-0.8,1.9-1.9h1C35.9,47,34.6,48.3,33,48.3z"
		/>
	<path fill="#F4815F" d="M37.8,48.3c-1.6,0-2.9-1.3-2.9-2.9h1c0,1,0.8,1.9,1.9,1.9c1,0,1.9-0.8,1.9-1.9h1
		C40.7,47,39.4,48.3,37.8,48.3z"/>
	<path fill="#F4815F" d="M42.6,48.3c-1.6,0-2.9-1.3-2.9-2.9h1c0,1,0.8,1.9,1.9,1.9c1,0,1.9-0.8,1.9-1.9h1
		C45.4,47,44.1,48.3,42.6,48.3z"/>
	<path fill="#F4815F" d="M47.3,48.3c-1.6,0-2.9-1.3-2.9-2.9h1c0,1,0.8,1.9,1.9,1.9c1,0,1.9-0.8,1.9-1.9h1
		C50.2,47,48.9,48.3,47.3,48.3z"/>
	<path fill="#F4815F" d="M168.3,45.4c0,1-0.8,1.9-1.9,1.9c-0.1,0-0.2,0-0.3,0c0,0.3-0.1,0.6-0.2,1c0.2,0,0.3,0.1,0.5,0.1
		c1.6,0,2.9-1.3,2.9-2.9H168.3z"/>
	<path fill="#F4815F" d="M171.1,48.3c-1.6,0-2.9-1.3-2.9-2.9h1c0,1,0.8,1.9,1.9,1.9c1,0,1.9-0.8,1.9-1.9h1
		C174,47,172.7,48.3,171.1,48.3z"/>
	<path fill="#F4815F" d="M175.9,48.3c-1.6,0-2.9-1.3-2.9-2.9h1c0,1,0.8,1.9,1.9,1.9c1,0,1.9-0.8,1.9-1.9h1
		C178.8,47,177.5,48.3,175.9,48.3z"/>
	<path fill="#F4815F" d="M180.7,48.3c-1.6,0-2.9-1.3-2.9-2.9h1c0,1,0.8,1.9,1.9,1.9c1,0,1.9-0.8,1.9-1.9h1
		C183.5,47,182.3,48.3,180.7,48.3z"/>
	<path fill="#F4815F" d="M185.4,48.3c-1.6,0-2.9-1.3-2.9-2.9h1c0,1,0.8,1.9,1.9,1.9s1.9-0.8,1.9-1.9h1C188.3,47,187,48.3,185.4,48.3
		z"/>
	<path fill="#F4815F" d="M190.2,48.3c-1.6,0-2.9-1.3-2.9-2.9h1c0,1,0.8,1.9,1.9,1.9c1,0,1.9-0.8,1.9-1.9h1
		C193.1,47,191.8,48.3,190.2,48.3z"/>
	<path fill="#F4815F" d="M195,48.3c-1.6,0-2.9-1.3-2.9-2.9h1c0,1,0.8,1.9,1.9,1.9s1.9-0.8,1.9-1.9h1C197.8,47,196.5,48.3,195,48.3z"
		/>
	<path fill="#F4815F" d="M199.7,48.3c-1.6,0-2.9-1.3-2.9-2.9h1c0,1,0.8,1.9,1.9,1.9c1,0,1.9-0.8,1.9-1.9h1
		C202.6,47,201.3,48.3,199.7,48.3z"/>
	<path fill="#F4815F" d="M6.9,50.7c-1.6,0-2.9-1.3-2.9-2.9h1c0,1,0.8,1.9,1.9,1.9s1.9-0.8,1.9-1.9h1C9.7,49.4,8.4,50.7,6.9,50.7z"/>
	<path fill="#F4815F" d="M11.6,50.7c-1.6,0-2.9-1.3-2.9-2.9h1c0,1,0.8,1.9,1.9,1.9c1,0,1.9-0.8,1.9-1.9h1
		C14.5,49.4,13.2,50.7,11.6,50.7z"/>
	<path fill="#F4815F" d="M16.4,50.7c-1.6,0-2.9-1.3-2.9-2.9h1c0,1,0.8,1.9,1.9,1.9s1.9-0.8,1.9-1.9h1C19.3,49.4,18,50.7,16.4,50.7z"
		/>
	<path fill="#F4815F" d="M21.2,50.7c-1.6,0-2.9-1.3-2.9-2.9h1c0,1,0.8,1.9,1.9,1.9c1,0,1.9-0.8,1.9-1.9h1
		C24,49.4,22.7,50.7,21.2,50.7z"/>
	<path fill="#F4815F" d="M25.9,50.7c-1.6,0-2.9-1.3-2.9-2.9h1c0,1,0.8,1.9,1.9,1.9c1,0,1.9-0.8,1.9-1.9h1
		C28.8,49.4,27.5,50.7,25.9,50.7z"/>
	<path fill="#F4815F" d="M30.7,50.7c-1.6,0-2.9-1.3-2.9-2.9h1c0,1,0.8,1.9,1.9,1.9c1,0,1.9-0.8,1.9-1.9h1
		C33.5,49.4,32.3,50.7,30.7,50.7z"/>
	<path fill="#F4815F" d="M35.4,50.7c-1.6,0-2.9-1.3-2.9-2.9h1c0,1,0.8,1.9,1.9,1.9s1.9-0.8,1.9-1.9h1C38.3,49.4,37,50.7,35.4,50.7z"
		/>
	<path fill="#F4815F" d="M40.2,50.7c-1.6,0-2.9-1.3-2.9-2.9h1c0,1,0.8,1.9,1.9,1.9c1,0,1.9-0.8,1.9-1.9h1
		C43.1,49.4,41.8,50.7,40.2,50.7z"/>
	<path fill="#F4815F" d="M45,50.7c-1.6,0-2.9-1.3-2.9-2.9h1c0,1,0.8,1.9,1.9,1.9s1.9-0.8,1.9-1.9h1C47.8,49.4,46.5,50.7,45,50.7z"/>
	<path fill="#F4815F" d="M51,49.2c-0.3,0.3-0.8,0.5-1.2,0.5c-1,0-1.9-0.8-1.9-1.9h-1c0,1.6,1.3,2.9,2.9,2.9c0.5,0,0.9-0.1,1.3-0.3
		C51,50,51,49.6,51,49.2z"/>
	<path fill="#F4815F" d="M170.7,47.8c0,1-0.8,1.9-1.9,1.9c-1,0-1.9-0.8-1.9-1.9H166c0,0,0,0.1,0,0.1c0.1,1.5,1.3,2.8,2.9,2.8
		c1.6,0,2.9-1.3,2.9-2.9H170.7z"/>
	<path fill="#F4815F" d="M173.6,50.7c-1.6,0-2.9-1.3-2.9-2.9h1c0,1,0.8,1.9,1.9,1.9c1,0,1.9-0.8,1.9-1.9h1
		C176.4,49.4,175.1,50.7,173.6,50.7z"/>
	<path fill="#F4815F" d="M178.3,50.7c-1.6,0-2.9-1.3-2.9-2.9h1c0,1,0.8,1.9,1.9,1.9s1.9-0.8,1.9-1.9h1
		C181.2,49.4,179.9,50.7,178.3,50.7z"/>
	<path fill="#F4815F" d="M183.1,50.7c-1.6,0-2.9-1.3-2.9-2.9h1c0,1,0.8,1.9,1.9,1.9c1,0,1.9-0.8,1.9-1.9h1
		C186,49.4,184.7,50.7,183.1,50.7z"/>
	<path fill="#F4815F" d="M187.9,50.7c-1.6,0-2.9-1.3-2.9-2.9h1c0,1,0.8,1.9,1.9,1.9s1.9-0.8,1.9-1.9h1
		C190.7,49.4,189.4,50.7,187.9,50.7z"/>
	<path fill="#F4815F" d="M192.6,50.7c-1.6,0-2.9-1.3-2.9-2.9h1c0,1,0.8,1.9,1.9,1.9c1,0,1.9-0.8,1.9-1.9h1
		C195.5,49.4,194.2,50.7,192.6,50.7z"/>
	<path fill="#F4815F" d="M197.4,50.7c-1.6,0-2.9-1.3-2.9-2.9h1c0,1,0.8,1.9,1.9,1.9s1.9-0.8,1.9-1.9h1
		C200.2,49.4,199,50.7,197.4,50.7z"/>
	<path fill="#F4815F" d="M4.4,53.1c-1.6,0-2.9-1.3-2.9-2.9h1c0,1,0.8,1.9,1.9,1.9c1,0,1.9-0.8,1.9-1.9h1C7.3,51.8,6,53.1,4.4,53.1z"
		/>
	<path fill="#F4815F" d="M9.2,53.1c-1.6,0-2.9-1.3-2.9-2.9h1c0,1,0.8,1.9,1.9,1.9s1.9-0.8,1.9-1.9h1C12.1,51.8,10.8,53.1,9.2,53.1z"
		/>
	<path fill="#F4815F" d="M14,53.1c-1.6,0-2.9-1.3-2.9-2.9h1c0,1,0.8,1.9,1.9,1.9s1.9-0.8,1.9-1.9h1C16.8,51.8,15.6,53.1,14,53.1z"/>
	<path fill="#F4815F" d="M18.7,53.1c-1.6,0-2.9-1.3-2.9-2.9h1c0,1,0.8,1.9,1.9,1.9c1,0,1.9-0.8,1.9-1.9h1
		C21.6,51.8,20.3,53.1,18.7,53.1z"/>
	<path fill="#F4815F" d="M23.5,53.1c-1.6,0-2.9-1.3-2.9-2.9h1c0,1,0.8,1.9,1.9,1.9c1,0,1.9-0.8,1.9-1.9h1
		C26.4,51.8,25.1,53.1,23.5,53.1z"/>
	<path fill="#F4815F" d="M28.3,53.1c-1.6,0-2.9-1.3-2.9-2.9h1c0,1,0.8,1.9,1.9,1.9c1,0,1.9-0.8,1.9-1.9h1
		C31.1,51.8,29.8,53.1,28.3,53.1z"/>
	<path fill="#F4815F" d="M33,53.1c-1.6,0-2.9-1.3-2.9-2.9h1c0,1,0.8,1.9,1.9,1.9c1,0,1.9-0.8,1.9-1.9h1C35.9,51.8,34.6,53.1,33,53.1
		z"/>
	<path fill="#F4815F" d="M37.8,53.1c-1.6,0-2.9-1.3-2.9-2.9h1c0,1,0.8,1.9,1.9,1.9c1,0,1.9-0.8,1.9-1.9h1
		C40.7,51.8,39.4,53.1,37.8,53.1z"/>
	<path fill="#F4815F" d="M42.6,53.1c-1.6,0-2.9-1.3-2.9-2.9h1c0,1,0.8,1.9,1.9,1.9c1,0,1.9-0.8,1.9-1.9h1
		C45.4,51.8,44.1,53.1,42.6,53.1z"/>
	<path fill="#F4815F" d="M47.3,53.1c-1.6,0-2.9-1.3-2.9-2.9h1c0,1,0.8,1.9,1.9,1.9c1,0,1.9-0.8,1.9-1.9h1
		C50.2,51.8,48.9,53.1,47.3,53.1z"/>
	<path fill="#F4815F" d="M168.3,50.2c0,1-0.8,1.9-1.9,1.9c-0.8,0-1.5-0.5-1.8-1.2c-0.2,0.3-0.5,0.5-0.7,0.8c0.5,0.9,1.4,1.5,2.5,1.5
		c1.6,0,2.9-1.3,2.9-2.9H168.3z"/>
	<path fill="#F4815F" d="M171.1,53.1c-1.6,0-2.9-1.3-2.9-2.9h1c0,1,0.8,1.9,1.9,1.9c1,0,1.9-0.8,1.9-1.9h1
		C174,51.8,172.7,53.1,171.1,53.1z"/>
	<path fill="#F4815F" d="M175.9,53.1c-1.6,0-2.9-1.3-2.9-2.9h1c0,1,0.8,1.9,1.9,1.9c1,0,1.9-0.8,1.9-1.9h1
		C178.8,51.8,177.5,53.1,175.9,53.1z"/>
	<path fill="#F4815F" d="M180.7,53.1c-1.6,0-2.9-1.3-2.9-2.9h1c0,1,0.8,1.9,1.9,1.9c1,0,1.9-0.8,1.9-1.9h1
		C183.5,51.8,182.3,53.1,180.7,53.1z"/>
	<path fill="#F4815F" d="M185.4,53.1c-1.6,0-2.9-1.3-2.9-2.9h1c0,1,0.8,1.9,1.9,1.9s1.9-0.8,1.9-1.9h1
		C188.3,51.8,187,53.1,185.4,53.1z"/>
	<path fill="#F4815F" d="M190.2,53.1c-1.6,0-2.9-1.3-2.9-2.9h1c0,1,0.8,1.9,1.9,1.9c1,0,1.9-0.8,1.9-1.9h1
		C193.1,51.8,191.8,53.1,190.2,53.1z"/>
	<path fill="#F4815F" d="M195,53.1c-1.6,0-2.9-1.3-2.9-2.9h1c0,1,0.8,1.9,1.9,1.9s1.9-0.8,1.9-1.9h1C197.8,51.8,196.5,53.1,195,53.1
		z"/>
	<path fill="#F4815F" d="M199.7,53.1c-1.6,0-2.9-1.3-2.9-2.9h1c0,1,0.8,1.9,1.9,1.9c1,0,1.9-0.8,1.9-1.9h1
		C202.6,51.8,201.3,53.1,199.7,53.1z"/>
	<path fill="#F4815F" d="M6.9,55.4c-1.6,0-2.9-1.3-2.9-2.9h1c0,1,0.8,1.9,1.9,1.9s1.9-0.8,1.9-1.9h1C9.7,54.2,8.4,55.4,6.9,55.4z"/>
	<path fill="#F4815F" d="M11.6,55.4c-1.6,0-2.9-1.3-2.9-2.9h1c0,1,0.8,1.9,1.9,1.9c1,0,1.9-0.8,1.9-1.9h1
		C14.5,54.2,13.2,55.4,11.6,55.4z"/>
	<path fill="#F4815F" d="M16.4,55.4c-1.6,0-2.9-1.3-2.9-2.9h1c0,1,0.8,1.9,1.9,1.9s1.9-0.8,1.9-1.9h1C19.3,54.2,18,55.4,16.4,55.4z"
		/>
	<path fill="#F4815F" d="M21.2,55.4c-1.6,0-2.9-1.3-2.9-2.9h1c0,1,0.8,1.9,1.9,1.9c1,0,1.9-0.8,1.9-1.9h1
		C24,54.2,22.7,55.4,21.2,55.4z"/>
	<path fill="#F4815F" d="M25.9,55.4c-1.6,0-2.9-1.3-2.9-2.9h1c0,1,0.8,1.9,1.9,1.9c1,0,1.9-0.8,1.9-1.9h1
		C28.8,54.2,27.5,55.4,25.9,55.4z"/>
	<path fill="#F4815F" d="M30.7,55.4c-1.6,0-2.9-1.3-2.9-2.9h1c0,1,0.8,1.9,1.9,1.9c1,0,1.9-0.8,1.9-1.9h1
		C33.5,54.2,32.3,55.4,30.7,55.4z"/>
	<path fill="#F4815F" d="M35.4,55.4c-1.6,0-2.9-1.3-2.9-2.9h1c0,1,0.8,1.9,1.9,1.9s1.9-0.8,1.9-1.9h1C38.3,54.2,37,55.4,35.4,55.4z"
		/>
	<path fill="#F4815F" d="M40.2,55.4c-1.6,0-2.9-1.3-2.9-2.9h1c0,1,0.8,1.9,1.9,1.9c1,0,1.9-0.8,1.9-1.9h1
		C43.1,54.2,41.8,55.4,40.2,55.4z"/>
	<path fill="#F4815F" d="M45,55.4c-1.6,0-2.9-1.3-2.9-2.9h1c0,1,0.8,1.9,1.9,1.9s1.9-0.8,1.9-1.9h1C47.8,54.2,46.5,55.4,45,55.4z"/>
	<path fill="#F4815F" d="M51.4,53.5c-0.3,0.6-0.9,1-1.7,1c-1,0-1.9-0.8-1.9-1.9h-1c0,1.6,1.3,2.9,2.9,2.9c0.7,0,1.3-0.3,1.8-0.7
		C51.5,54.3,51.4,53.9,51.4,53.5z"/>
	<path fill="#F4815F" d="M161.9,52.8c-0.3,0.1-0.6,0.3-0.9,0.4c-0.3,0.7-1,1.3-1.8,1.3c0,0-0.1,0-0.1,0c-0.2,0.2-0.5,0.5-0.8,0.8
		c0.3,0.1,0.6,0.2,0.9,0.2c1.5,0,2.8-1.2,2.9-2.7C162.1,52.8,162,52.8,161.9,52.8z"/>
	<path fill="#F4815F" d="M165.9,52.6c0,1-0.8,1.9-1.9,1.9c-1,0-1.8-0.8-1.9-1.7c-0.1,0-0.1,0.1-0.2,0.1c-0.3,0.1-0.5,0.2-0.7,0.3
		c0.3,1.3,1.4,2.3,2.8,2.3c1.6,0,2.9-1.3,2.9-2.9H165.9z"/>
	<path fill="#F4815F" d="M168.8,55.4c-1.6,0-2.9-1.3-2.9-2.9h1c0,1,0.8,1.9,1.9,1.9s1.9-0.8,1.9-1.9h1
		C171.7,54.2,170.4,55.4,168.8,55.4z"/>
	<path fill="#F4815F" d="M173.6,55.4c-1.6,0-2.9-1.3-2.9-2.9h1c0,1,0.8,1.9,1.9,1.9c1,0,1.9-0.8,1.9-1.9h1
		C176.4,54.2,175.1,55.4,173.6,55.4z"/>
	<path fill="#F4815F" d="M178.3,55.4c-1.6,0-2.9-1.3-2.9-2.9h1c0,1,0.8,1.9,1.9,1.9s1.9-0.8,1.9-1.9h1
		C181.2,54.2,179.9,55.4,178.3,55.4z"/>
	<path fill="#F4815F" d="M183.1,55.4c-1.6,0-2.9-1.3-2.9-2.9h1c0,1,0.8,1.9,1.9,1.9c1,0,1.9-0.8,1.9-1.9h1
		C186,54.2,184.7,55.4,183.1,55.4z"/>
	<path fill="#F4815F" d="M187.9,55.4c-1.6,0-2.9-1.3-2.9-2.9h1c0,1,0.8,1.9,1.9,1.9s1.9-0.8,1.9-1.9h1
		C190.7,54.2,189.4,55.4,187.9,55.4z"/>
	<path fill="#F4815F" d="M192.6,55.4c-1.6,0-2.9-1.3-2.9-2.9h1c0,1,0.8,1.9,1.9,1.9c1,0,1.9-0.8,1.9-1.9h1
		C195.5,54.2,194.2,55.4,192.6,55.4z"/>
	<path fill="#F4815F" d="M197.4,55.4c-1.6,0-2.9-1.3-2.9-2.9h1c0,1,0.8,1.9,1.9,1.9s1.9-0.8,1.9-1.9h1
		C200.2,54.2,199,55.4,197.4,55.4z"/>
	<path fill="#F4815F" d="M4.4,57.8c-1.6,0-2.9-1.3-2.9-2.9h1c0,1,0.8,1.9,1.9,1.9c1,0,1.9-0.8,1.9-1.9h1C7.3,56.5,6,57.8,4.4,57.8z"
		/>
	<path fill="#F4815F" d="M9.2,57.8c-1.6,0-2.9-1.3-2.9-2.9h1c0,1,0.8,1.9,1.9,1.9s1.9-0.8,1.9-1.9h1C12.1,56.5,10.8,57.8,9.2,57.8z"
		/>
	<path fill="#F4815F" d="M14,57.8c-1.6,0-2.9-1.3-2.9-2.9h1c0,1,0.8,1.9,1.9,1.9s1.9-0.8,1.9-1.9h1C16.8,56.5,15.6,57.8,14,57.8z"/>
	<path fill="#F4815F" d="M18.7,57.8c-1.6,0-2.9-1.3-2.9-2.9h1c0,1,0.8,1.9,1.9,1.9c1,0,1.9-0.8,1.9-1.9h1
		C21.6,56.5,20.3,57.8,18.7,57.8z"/>
	<path fill="#F4815F" d="M23.5,57.8c-1.6,0-2.9-1.3-2.9-2.9h1c0,1,0.8,1.9,1.9,1.9c1,0,1.9-0.8,1.9-1.9h1
		C26.4,56.5,25.1,57.8,23.5,57.8z"/>
	<path fill="#F4815F" d="M28.3,57.8c-1.6,0-2.9-1.3-2.9-2.9h1c0,1,0.8,1.9,1.9,1.9c1,0,1.9-0.8,1.9-1.9h1
		C31.1,56.5,29.8,57.8,28.3,57.8z"/>
	<path fill="#F4815F" d="M33,57.8c-1.6,0-2.9-1.3-2.9-2.9h1c0,1,0.8,1.9,1.9,1.9c1,0,1.9-0.8,1.9-1.9h1C35.9,56.5,34.6,57.8,33,57.8
		z"/>
	<path fill="#F4815F" d="M37.8,57.8c-1.6,0-2.9-1.3-2.9-2.9h1c0,1,0.8,1.9,1.9,1.9c1,0,1.9-0.8,1.9-1.9h1
		C40.7,56.5,39.4,57.8,37.8,57.8z"/>
	<path fill="#F4815F" d="M42.6,57.8c-1.6,0-2.9-1.3-2.9-2.9h1c0,1,0.8,1.9,1.9,1.9c1,0,1.9-0.8,1.9-1.9h1
		C45.4,56.5,44.1,57.8,42.6,57.8z"/>
	<path fill="#F4815F" d="M47.3,57.8c-1.6,0-2.9-1.3-2.9-2.9h1c0,1,0.8,1.9,1.9,1.9c1,0,1.9-0.8,1.9-1.9h1
		C50.2,56.5,48.9,57.8,47.3,57.8z"/>
	<path fill="#F4815F" d="M157.2,56.8c-0.2,0.3-0.5,0.6-0.7,1c0.1,0,0.3,0,0.4,0c1.6,0,2.9-1.3,2.9-2.9h-1
		C158.8,55.9,158.1,56.6,157.2,56.8z"/>
	<path fill="#F4815F" d="M161.6,57.8c-1.6,0-2.9-1.3-2.9-2.9h1c0,1,0.8,1.9,1.9,1.9c1,0,1.9-0.8,1.9-1.9h1
		C164.5,56.5,163.2,57.8,161.6,57.8z"/>
	<path fill="#F4815F" d="M166.4,57.8c-1.6,0-2.9-1.3-2.9-2.9h1c0,1,0.8,1.9,1.9,1.9s1.9-0.8,1.9-1.9h1
		C169.3,56.5,168,57.8,166.4,57.8z"/>
	<path fill="#F4815F" d="M171.1,57.8c-1.6,0-2.9-1.3-2.9-2.9h1c0,1,0.8,1.9,1.9,1.9c1,0,1.9-0.8,1.9-1.9h1
		C174,56.5,172.7,57.8,171.1,57.8z"/>
	<path fill="#F4815F" d="M175.9,57.8c-1.6,0-2.9-1.3-2.9-2.9h1c0,1,0.8,1.9,1.9,1.9c1,0,1.9-0.8,1.9-1.9h1
		C178.8,56.5,177.5,57.8,175.9,57.8z"/>
	<path fill="#F4815F" d="M180.7,57.8c-1.6,0-2.9-1.3-2.9-2.9h1c0,1,0.8,1.9,1.9,1.9c1,0,1.9-0.8,1.9-1.9h1
		C183.5,56.5,182.3,57.8,180.7,57.8z"/>
	<path fill="#F4815F" d="M185.4,57.8c-1.6,0-2.9-1.3-2.9-2.9h1c0,1,0.8,1.9,1.9,1.9s1.9-0.8,1.9-1.9h1
		C188.3,56.5,187,57.8,185.4,57.8z"/>
	<path fill="#F4815F" d="M190.2,57.8c-1.6,0-2.9-1.3-2.9-2.9h1c0,1,0.8,1.9,1.9,1.9c1,0,1.9-0.8,1.9-1.9h1
		C193.1,56.5,191.8,57.8,190.2,57.8z"/>
	<path fill="#F4815F" d="M195,57.8c-1.6,0-2.9-1.3-2.9-2.9h1c0,1,0.8,1.9,1.9,1.9s1.9-0.8,1.9-1.9h1C197.8,56.5,196.5,57.8,195,57.8
		z"/>
	<path fill="#F4815F" d="M199.7,57.8c-1.6,0-2.9-1.3-2.9-2.9h1c0,1,0.8,1.9,1.9,1.9c1,0,1.9-0.8,1.9-1.9h1
		C202.6,56.5,201.3,57.8,199.7,57.8z"/>
	<path fill="#F4815F" d="M6.9,60.2c-1.6,0-2.9-1.3-2.9-2.9h1c0,1,0.8,1.9,1.9,1.9s1.9-0.8,1.9-1.9h1C9.7,58.9,8.4,60.2,6.9,60.2z"/>
	<path fill="#F4815F" d="M11.6,60.2c-1.6,0-2.9-1.3-2.9-2.9h1c0,1,0.8,1.9,1.9,1.9c1,0,1.9-0.8,1.9-1.9h1
		C14.5,58.9,13.2,60.2,11.6,60.2z"/>
	<path fill="#F4815F" d="M16.4,60.2c-1.6,0-2.9-1.3-2.9-2.9h1c0,1,0.8,1.9,1.9,1.9s1.9-0.8,1.9-1.9h1C19.3,58.9,18,60.2,16.4,60.2z"
		/>
	<path fill="#F4815F" d="M21.2,60.2c-1.6,0-2.9-1.3-2.9-2.9h1c0,1,0.8,1.9,1.9,1.9c1,0,1.9-0.8,1.9-1.9h1
		C24,58.9,22.7,60.2,21.2,60.2z"/>
	<path fill="#F4815F" d="M25.9,60.2c-1.6,0-2.9-1.3-2.9-2.9h1c0,1,0.8,1.9,1.9,1.9c1,0,1.9-0.8,1.9-1.9h1
		C28.8,58.9,27.5,60.2,25.9,60.2z"/>
	<path fill="#F4815F" d="M30.7,60.2c-1.6,0-2.9-1.3-2.9-2.9h1c0,1,0.8,1.9,1.9,1.9c1,0,1.9-0.8,1.9-1.9h1
		C33.5,58.9,32.3,60.2,30.7,60.2z"/>
	<path fill="#F4815F" d="M35.4,60.2c-1.6,0-2.9-1.3-2.9-2.9h1c0,1,0.8,1.9,1.9,1.9s1.9-0.8,1.9-1.9h1C38.3,58.9,37,60.2,35.4,60.2z"
		/>
	<path fill="#F4815F" d="M40.2,60.2c-1.6,0-2.9-1.3-2.9-2.9h1c0,1,0.8,1.9,1.9,1.9c1,0,1.9-0.8,1.9-1.9h1
		C43.1,58.9,41.8,60.2,40.2,60.2z"/>
	<path fill="#F4815F" d="M45,60.2c-1.6,0-2.9-1.3-2.9-2.9h1c0,1,0.8,1.9,1.9,1.9s1.9-0.8,1.9-1.9h1C47.8,58.9,46.5,60.2,45,60.2z"/>
	<path fill="#F4815F" d="M51.9,57.3h-0.3c0,1-0.8,1.9-1.9,1.9c-1,0-1.9-0.8-1.9-1.9h-1c0,1.6,1.3,2.9,2.9,2.9c1,0,1.9-0.6,2.5-1.4
		C52.1,58.3,52,57.8,51.9,57.3z"/>
	<path fill="#F4815F" d="M159.3,59.2c-1,0-1.9-0.8-1.9-1.9h-0.6c-0.1,0.2-0.2,0.3-0.4,0.5c0.2,1.4,1.4,2.4,2.8,2.4
		c1.6,0,2.9-1.3,2.9-2.9h-1C161.2,58.4,160.3,59.2,159.3,59.2z"/>
	<path fill="#F4815F" d="M164,60.2c-1.6,0-2.9-1.3-2.9-2.9h1c0,1,0.8,1.9,1.9,1.9s1.9-0.8,1.9-1.9h1C166.9,58.9,165.6,60.2,164,60.2
		z"/>
	<path fill="#F4815F" d="M168.8,60.2c-1.6,0-2.9-1.3-2.9-2.9h1c0,1,0.8,1.9,1.9,1.9s1.9-0.8,1.9-1.9h1
		C171.7,58.9,170.4,60.2,168.8,60.2z"/>
	<path fill="#F4815F" d="M173.6,60.2c-1.6,0-2.9-1.3-2.9-2.9h1c0,1,0.8,1.9,1.9,1.9c1,0,1.9-0.8,1.9-1.9h1
		C176.4,58.9,175.1,60.2,173.6,60.2z"/>
	<path fill="#F4815F" d="M178.3,60.2c-1.6,0-2.9-1.3-2.9-2.9h1c0,1,0.8,1.9,1.9,1.9s1.9-0.8,1.9-1.9h1
		C181.2,58.9,179.9,60.2,178.3,60.2z"/>
	<path fill="#F4815F" d="M183.1,60.2c-1.6,0-2.9-1.3-2.9-2.9h1c0,1,0.8,1.9,1.9,1.9c1,0,1.9-0.8,1.9-1.9h1
		C186,58.9,184.7,60.2,183.1,60.2z"/>
	<path fill="#F4815F" d="M187.9,60.2c-1.6,0-2.9-1.3-2.9-2.9h1c0,1,0.8,1.9,1.9,1.9s1.9-0.8,1.9-1.9h1
		C190.7,58.9,189.4,60.2,187.9,60.2z"/>
	<path fill="#F4815F" d="M192.6,60.2c-1.6,0-2.9-1.3-2.9-2.9h1c0,1,0.8,1.9,1.9,1.9c1,0,1.9-0.8,1.9-1.9h1
		C195.5,58.9,194.2,60.2,192.6,60.2z"/>
	<path fill="#F4815F" d="M197.4,60.2c-1.6,0-2.9-1.3-2.9-2.9h1c0,1,0.8,1.9,1.9,1.9s1.9-0.8,1.9-1.9h1
		C200.2,58.9,199,60.2,197.4,60.2z"/>
	<path fill="#F4815F" d="M4.4,62.6c-1.6,0-2.9-1.3-2.9-2.9h1c0,1,0.8,1.9,1.9,1.9c1,0,1.9-0.8,1.9-1.9h1C7.3,61.3,6,62.6,4.4,62.6z"
		/>
	<path fill="#F4815F" d="M9.2,62.6c-1.6,0-2.9-1.3-2.9-2.9h1c0,1,0.8,1.9,1.9,1.9s1.9-0.8,1.9-1.9h1C12.1,61.3,10.8,62.6,9.2,62.6z"
		/>
	<path fill="#F4815F" d="M14,62.6c-1.6,0-2.9-1.3-2.9-2.9h1c0,1,0.8,1.9,1.9,1.9s1.9-0.8,1.9-1.9h1C16.8,61.3,15.6,62.6,14,62.6z"/>
	<path fill="#F4815F" d="M18.7,62.6c-1.6,0-2.9-1.3-2.9-2.9h1c0,1,0.8,1.9,1.9,1.9c1,0,1.9-0.8,1.9-1.9h1
		C21.6,61.3,20.3,62.6,18.7,62.6z"/>
	<path fill="#F4815F" d="M23.5,62.6c-1.6,0-2.9-1.3-2.9-2.9h1c0,1,0.8,1.9,1.9,1.9c1,0,1.9-0.8,1.9-1.9h1
		C26.4,61.3,25.1,62.6,23.5,62.6z"/>
	<path fill="#F4815F" d="M28.3,62.6c-1.6,0-2.9-1.3-2.9-2.9h1c0,1,0.8,1.9,1.9,1.9c1,0,1.9-0.8,1.9-1.9h1
		C31.1,61.3,29.8,62.6,28.3,62.6z"/>
	<path fill="#F4815F" d="M33,62.6c-1.6,0-2.9-1.3-2.9-2.9h1c0,1,0.8,1.9,1.9,1.9c1,0,1.9-0.8,1.9-1.9h1C35.9,61.3,34.6,62.6,33,62.6
		z"/>
	<path fill="#F4815F" d="M37.8,62.6c-1.6,0-2.9-1.3-2.9-2.9h1c0,1,0.8,1.9,1.9,1.9c1,0,1.9-0.8,1.9-1.9h1
		C40.7,61.3,39.4,62.6,37.8,62.6z"/>
	<path fill="#F4815F" d="M42.6,62.6c-1.6,0-2.9-1.3-2.9-2.9h1c0,1,0.8,1.9,1.9,1.9c1,0,1.9-0.8,1.9-1.9h1
		C45.4,61.3,44.1,62.6,42.6,62.6z"/>
	<path fill="#F4815F" d="M47.3,62.6c-1.6,0-2.9-1.3-2.9-2.9h1c0,1,0.8,1.9,1.9,1.9c1,0,1.9-0.8,1.9-1.9h1
		C50.2,61.3,48.9,62.6,47.3,62.6z"/>
	<path fill="#F4815F" d="M52.6,61.5c-0.2,0.1-0.4,0.1-0.5,0.1c-1,0-1.9-0.8-1.9-1.9h-1c0,1.6,1.3,2.9,2.9,2.9c0.2,0,0.5,0,0.7-0.1
		C52.7,62.2,52.7,61.8,52.6,61.5z"/>
	<path fill="#F4815F" d="M156.9,61.6c-1,0-1.9-0.8-1.9-1.9c-0.3,0.3-0.5,0.7-0.8,1c0.4,1.1,1.5,1.9,2.7,1.9c1.6,0,2.9-1.3,2.9-2.9
		h-1C158.8,60.8,157.9,61.6,156.9,61.6z"/>
	<path fill="#F4815F" d="M161.6,62.6c-1.6,0-2.9-1.3-2.9-2.9h1c0,1,0.8,1.9,1.9,1.9c1,0,1.9-0.8,1.9-1.9h1
		C164.5,61.3,163.2,62.6,161.6,62.6z"/>
	<path fill="#F4815F" d="M166.4,62.6c-1.6,0-2.9-1.3-2.9-2.9h1c0,1,0.8,1.9,1.9,1.9s1.9-0.8,1.9-1.9h1
		C169.3,61.3,168,62.6,166.4,62.6z"/>
	<path fill="#F4815F" d="M171.1,62.6c-1.6,0-2.9-1.3-2.9-2.9h1c0,1,0.8,1.9,1.9,1.9c1,0,1.9-0.8,1.9-1.9h1
		C174,61.3,172.7,62.6,171.1,62.6z"/>
	<path fill="#F4815F" d="M175.9,62.6c-1.6,0-2.9-1.3-2.9-2.9h1c0,1,0.8,1.9,1.9,1.9c1,0,1.9-0.8,1.9-1.9h1
		C178.8,61.3,177.5,62.6,175.9,62.6z"/>
	<path fill="#F4815F" d="M180.7,62.6c-1.6,0-2.9-1.3-2.9-2.9h1c0,1,0.8,1.9,1.9,1.9c1,0,1.9-0.8,1.9-1.9h1
		C183.5,61.3,182.3,62.6,180.7,62.6z"/>
	<path fill="#F4815F" d="M185.4,62.6c-1.6,0-2.9-1.3-2.9-2.9h1c0,1,0.8,1.9,1.9,1.9s1.9-0.8,1.9-1.9h1
		C188.3,61.3,187,62.6,185.4,62.6z"/>
	<path fill="#F4815F" d="M190.2,62.6c-1.6,0-2.9-1.3-2.9-2.9h1c0,1,0.8,1.9,1.9,1.9c1,0,1.9-0.8,1.9-1.9h1
		C193.1,61.3,191.8,62.6,190.2,62.6z"/>
	<path fill="#F4815F" d="M195,62.6c-1.6,0-2.9-1.3-2.9-2.9h1c0,1,0.8,1.9,1.9,1.9s1.9-0.8,1.9-1.9h1C197.8,61.3,196.5,62.6,195,62.6
		z"/>
	<path fill="#F4815F" d="M199.7,62.6c-1.6,0-2.9-1.3-2.9-2.9h1c0,1,0.8,1.9,1.9,1.9c1,0,1.9-0.8,1.9-1.9h1
		C202.6,61.3,201.3,62.6,199.7,62.6z"/>
	<path fill="#F4815F" d="M6.9,65C5.3,65,4,63.7,4,62.1h1c0,1,0.8,1.9,1.9,1.9s1.9-0.8,1.9-1.9h1C9.7,63.7,8.4,65,6.9,65z"/>
	<path fill="#F4815F" d="M11.6,65c-1.6,0-2.9-1.3-2.9-2.9h1c0,1,0.8,1.9,1.9,1.9c1,0,1.9-0.8,1.9-1.9h1C14.5,63.7,13.2,65,11.6,65z"
		/>
	<path fill="#F4815F" d="M16.4,65c-1.6,0-2.9-1.3-2.9-2.9h1c0,1,0.8,1.9,1.9,1.9s1.9-0.8,1.9-1.9h1C19.3,63.7,18,65,16.4,65z"/>
	<path fill="#F4815F" d="M21.2,65c-1.6,0-2.9-1.3-2.9-2.9h1c0,1,0.8,1.9,1.9,1.9c1,0,1.9-0.8,1.9-1.9h1C24,63.7,22.7,65,21.2,65z"/>
	<path fill="#F4815F" d="M25.9,65c-1.6,0-2.9-1.3-2.9-2.9h1c0,1,0.8,1.9,1.9,1.9c1,0,1.9-0.8,1.9-1.9h1C28.8,63.7,27.5,65,25.9,65z"
		/>
	<path fill="#F4815F" d="M30.7,65c-1.6,0-2.9-1.3-2.9-2.9h1c0,1,0.8,1.9,1.9,1.9c1,0,1.9-0.8,1.9-1.9h1C33.5,63.7,32.3,65,30.7,65z"
		/>
	<path fill="#F4815F" d="M35.4,65c-1.6,0-2.9-1.3-2.9-2.9h1c0,1,0.8,1.9,1.9,1.9s1.9-0.8,1.9-1.9h1C38.3,63.7,37,65,35.4,65z"/>
	<path fill="#F4815F" d="M40.2,65c-1.6,0-2.9-1.3-2.9-2.9h1c0,1,0.8,1.9,1.9,1.9c1,0,1.9-0.8,1.9-1.9h1C43.1,63.7,41.8,65,40.2,65z"
		/>
	<path fill="#F4815F" d="M45,65c-1.6,0-2.9-1.3-2.9-2.9h1c0,1,0.8,1.9,1.9,1.9s1.9-0.8,1.9-1.9h1C47.8,63.7,46.5,65,45,65z"/>
	<path fill="#F4815F" d="M49.7,65c-1.6,0-2.9-1.3-2.9-2.9h1c0,1,0.8,1.9,1.9,1.9c1,0,1.9-0.8,1.9-1.9h1C52.6,63.7,51.3,65,49.7,65z"
		/>
	<path fill="#F4815F" d="M154.5,64c-0.9,0-1.6-0.6-1.8-1.4c-0.2,0.3-0.5,0.6-0.7,0.8c0.5,0.9,1.4,1.6,2.6,1.6c1.6,0,2.9-1.3,2.9-2.9
		h-1C156.4,63.1,155.6,64,154.5,64z"/>
	<path fill="#F4815F" d="M159.3,65c-1.6,0-2.9-1.3-2.9-2.9h1c0,1,0.8,1.9,1.9,1.9c1,0,1.9-0.8,1.9-1.9h1
		C162.1,63.7,160.9,65,159.3,65z"/>
	<path fill="#F4815F" d="M164,65c-1.6,0-2.9-1.3-2.9-2.9h1c0,1,0.8,1.9,1.9,1.9s1.9-0.8,1.9-1.9h1C166.9,63.7,165.6,65,164,65z"/>
	<path fill="#F4815F" d="M168.8,65c-1.6,0-2.9-1.3-2.9-2.9h1c0,1,0.8,1.9,1.9,1.9s1.9-0.8,1.9-1.9h1C171.7,63.7,170.4,65,168.8,65z"
		/>
	<path fill="#F4815F" d="M173.6,65c-1.6,0-2.9-1.3-2.9-2.9h1c0,1,0.8,1.9,1.9,1.9c1,0,1.9-0.8,1.9-1.9h1
		C176.4,63.7,175.1,65,173.6,65z"/>
	<path fill="#F4815F" d="M178.3,65c-1.6,0-2.9-1.3-2.9-2.9h1c0,1,0.8,1.9,1.9,1.9s1.9-0.8,1.9-1.9h1C181.2,63.7,179.9,65,178.3,65z"
		/>
	<path fill="#F4815F" d="M183.1,65c-1.6,0-2.9-1.3-2.9-2.9h1c0,1,0.8,1.9,1.9,1.9c1,0,1.9-0.8,1.9-1.9h1C186,63.7,184.7,65,183.1,65
		z"/>
	<path fill="#F4815F" d="M187.9,65c-1.6,0-2.9-1.3-2.9-2.9h1c0,1,0.8,1.9,1.9,1.9s1.9-0.8,1.9-1.9h1C190.7,63.7,189.4,65,187.9,65z"
		/>
	<path fill="#F4815F" d="M192.6,65c-1.6,0-2.9-1.3-2.9-2.9h1c0,1,0.8,1.9,1.9,1.9c1,0,1.9-0.8,1.9-1.9h1
		C195.5,63.7,194.2,65,192.6,65z"/>
	<path fill="#F4815F" d="M197.4,65c-1.6,0-2.9-1.3-2.9-2.9h1c0,1,0.8,1.9,1.9,1.9s1.9-0.8,1.9-1.9h1C200.2,63.7,199,65,197.4,65z"/>
	<path fill="#F4815F" d="M4.4,67.4c-1.6,0-2.9-1.3-2.9-2.9h1c0,1,0.8,1.9,1.9,1.9c1,0,1.9-0.8,1.9-1.9h1C7.3,66.1,6,67.4,4.4,67.4z"
		/>
	<path fill="#F4815F" d="M9.2,67.4c-1.6,0-2.9-1.3-2.9-2.9h1c0,1,0.8,1.9,1.9,1.9s1.9-0.8,1.9-1.9h1C12.1,66.1,10.8,67.4,9.2,67.4z"
		/>
	<path fill="#F4815F" d="M14,67.4c-1.6,0-2.9-1.3-2.9-2.9h1c0,1,0.8,1.9,1.9,1.9s1.9-0.8,1.9-1.9h1C16.8,66.1,15.6,67.4,14,67.4z"/>
	<path fill="#F4815F" d="M18.7,67.4c-1.6,0-2.9-1.3-2.9-2.9h1c0,1,0.8,1.9,1.9,1.9c1,0,1.9-0.8,1.9-1.9h1
		C21.6,66.1,20.3,67.4,18.7,67.4z"/>
	<path fill="#F4815F" d="M23.5,67.4c-1.6,0-2.9-1.3-2.9-2.9h1c0,1,0.8,1.9,1.9,1.9c1,0,1.9-0.8,1.9-1.9h1
		C26.4,66.1,25.1,67.4,23.5,67.4z"/>
	<path fill="#F4815F" d="M28.3,67.4c-1.6,0-2.9-1.3-2.9-2.9h1c0,1,0.8,1.9,1.9,1.9c1,0,1.9-0.8,1.9-1.9h1
		C31.1,66.1,29.8,67.4,28.3,67.4z"/>
	<path fill="#F4815F" d="M33,67.4c-1.6,0-2.9-1.3-2.9-2.9h1c0,1,0.8,1.9,1.9,1.9c1,0,1.9-0.8,1.9-1.9h1C35.9,66.1,34.6,67.4,33,67.4
		z"/>
	<path fill="#F4815F" d="M37.8,67.4c-1.6,0-2.9-1.3-2.9-2.9h1c0,1,0.8,1.9,1.9,1.9c1,0,1.9-0.8,1.9-1.9h1
		C40.7,66.1,39.4,67.4,37.8,67.4z"/>
	<path fill="#F4815F" d="M42.6,67.4c-1.6,0-2.9-1.3-2.9-2.9h1c0,1,0.8,1.9,1.9,1.9c1,0,1.9-0.8,1.9-1.9h1
		C45.4,66.1,44.1,67.4,42.6,67.4z"/>
	<path fill="#F4815F" d="M47.3,67.4c-1.6,0-2.9-1.3-2.9-2.9h1c0,1,0.8,1.9,1.9,1.9c1,0,1.9-0.8,1.9-1.9h1
		C50.2,66.1,48.9,67.4,47.3,67.4z"/>
	<path fill="#F4815F" d="M53.3,65.9c-0.3,0.3-0.8,0.5-1.2,0.5c-1,0-1.9-0.8-1.9-1.9h-1c0,1.6,1.3,2.9,2.9,2.9c0.5,0,1-0.1,1.4-0.4
		C53.4,66.6,53.4,66.2,53.3,65.9z"/>
	<path fill="#F4815F" d="M152.1,66.4c-0.8,0-1.5-0.5-1.8-1.2c-0.2,0.2-0.5,0.5-0.7,0.7c0.5,0.9,1.4,1.5,2.5,1.5
		c1.6,0,2.9-1.3,2.9-2.9h-1C154,65.5,153.1,66.4,152.1,66.4z"/>
	<path fill="#F4815F" d="M156.9,67.4c-1.6,0-2.9-1.3-2.9-2.9h1c0,1,0.8,1.9,1.9,1.9c1,0,1.9-0.8,1.9-1.9h1
		C159.7,66.1,158.4,67.4,156.9,67.4z"/>
	<path fill="#F4815F" d="M161.6,67.4c-1.6,0-2.9-1.3-2.9-2.9h1c0,1,0.8,1.9,1.9,1.9c1,0,1.9-0.8,1.9-1.9h1
		C164.5,66.1,163.2,67.4,161.6,67.4z"/>
	<path fill="#F4815F" d="M166.4,67.4c-1.6,0-2.9-1.3-2.9-2.9h1c0,1,0.8,1.9,1.9,1.9s1.9-0.8,1.9-1.9h1
		C169.3,66.1,168,67.4,166.4,67.4z"/>
	<path fill="#F4815F" d="M171.1,67.4c-1.6,0-2.9-1.3-2.9-2.9h1c0,1,0.8,1.9,1.9,1.9c1,0,1.9-0.8,1.9-1.9h1
		C174,66.1,172.7,67.4,171.1,67.4z"/>
	<path fill="#F4815F" d="M175.9,67.4c-1.6,0-2.9-1.3-2.9-2.9h1c0,1,0.8,1.9,1.9,1.9c1,0,1.9-0.8,1.9-1.9h1
		C178.8,66.1,177.5,67.4,175.9,67.4z"/>
	<path fill="#F4815F" d="M180.7,67.4c-1.6,0-2.9-1.3-2.9-2.9h1c0,1,0.8,1.9,1.9,1.9c1,0,1.9-0.8,1.9-1.9h1
		C183.5,66.1,182.3,67.4,180.7,67.4z"/>
	<path fill="#F4815F" d="M185.4,67.4c-1.6,0-2.9-1.3-2.9-2.9h1c0,1,0.8,1.9,1.9,1.9s1.9-0.8,1.9-1.9h1
		C188.3,66.1,187,67.4,185.4,67.4z"/>
	<path fill="#F4815F" d="M190.2,67.4c-1.6,0-2.9-1.3-2.9-2.9h1c0,1,0.8,1.9,1.9,1.9c1,0,1.9-0.8,1.9-1.9h1
		C193.1,66.1,191.8,67.4,190.2,67.4z"/>
	<path fill="#F4815F" d="M195,67.4c-1.6,0-2.9-1.3-2.9-2.9h1c0,1,0.8,1.9,1.9,1.9s1.9-0.8,1.9-1.9h1C197.8,66.1,196.5,67.4,195,67.4
		z"/>
	<path fill="#F4815F" d="M199.7,67.4c-1.6,0-2.9-1.3-2.9-2.9h1c0,1,0.8,1.9,1.9,1.9c1,0,1.9-0.8,1.9-1.9h1
		C202.6,66.1,201.3,67.4,199.7,67.4z"/>
	<path fill="#F4815F" d="M6.9,69.7c-1.6,0-2.9-1.3-2.9-2.9h1c0,1,0.8,1.9,1.9,1.9s1.9-0.8,1.9-1.9h1C9.7,68.4,8.4,69.7,6.9,69.7z"/>
	<path fill="#F4815F" d="M11.6,69.7c-1.6,0-2.9-1.3-2.9-2.9h1c0,1,0.8,1.9,1.9,1.9c1,0,1.9-0.8,1.9-1.9h1
		C14.5,68.4,13.2,69.7,11.6,69.7z"/>
	<path fill="#F4815F" d="M16.4,69.7c-1.6,0-2.9-1.3-2.9-2.9h1c0,1,0.8,1.9,1.9,1.9s1.9-0.8,1.9-1.9h1C19.3,68.4,18,69.7,16.4,69.7z"
		/>
	<path fill="#F4815F" d="M21.2,69.7c-1.6,0-2.9-1.3-2.9-2.9h1c0,1,0.8,1.9,1.9,1.9c1,0,1.9-0.8,1.9-1.9h1
		C24,68.4,22.7,69.7,21.2,69.7z"/>
	<path fill="#F4815F" d="M25.9,69.7c-1.6,0-2.9-1.3-2.9-2.9h1c0,1,0.8,1.9,1.9,1.9c1,0,1.9-0.8,1.9-1.9h1
		C28.8,68.4,27.5,69.7,25.9,69.7z"/>
	<path fill="#F4815F" d="M30.7,69.7c-1.6,0-2.9-1.3-2.9-2.9h1c0,1,0.8,1.9,1.9,1.9c1,0,1.9-0.8,1.9-1.9h1
		C33.5,68.4,32.3,69.7,30.7,69.7z"/>
	<path fill="#F4815F" d="M35.4,69.7c-1.6,0-2.9-1.3-2.9-2.9h1c0,1,0.8,1.9,1.9,1.9s1.9-0.8,1.9-1.9h1C38.3,68.4,37,69.7,35.4,69.7z"
		/>
	<path fill="#F4815F" d="M40.2,69.7c-1.6,0-2.9-1.3-2.9-2.9h1c0,1,0.8,1.9,1.9,1.9c1,0,1.9-0.8,1.9-1.9h1
		C43.1,68.4,41.8,69.7,40.2,69.7z"/>
	<path fill="#F4815F" d="M45,69.7c-1.6,0-2.9-1.3-2.9-2.9h1c0,1,0.8,1.9,1.9,1.9s1.9-0.8,1.9-1.9h1C47.8,68.4,46.5,69.7,45,69.7z"/>
	<path fill="#F4815F" d="M49.7,69.7c-1.6,0-2.9-1.3-2.9-2.9h1c0,1,0.8,1.9,1.9,1.9c1,0,1.9-0.8,1.9-1.9h1
		C52.6,68.4,51.3,69.7,49.7,69.7z"/>
	<path fill="#F4815F" d="M149.7,68.8c-0.9,0-1.6-0.6-1.8-1.4c-0.1,0.1-0.3,0.3-0.4,0.4c-0.1,0.1-0.2,0.2-0.4,0.3
		c0.4,1,1.5,1.7,2.6,1.7c1.6,0,2.9-1.3,2.9-2.9h-1C151.6,67.9,150.8,68.8,149.7,68.8z"/>
	<path fill="#F4815F" d="M154.5,69.7c-1.6,0-2.9-1.3-2.9-2.9h1c0,1,0.8,1.9,1.9,1.9s1.9-0.8,1.9-1.9h1
		C157.4,68.4,156.1,69.7,154.5,69.7z"/>
	<path fill="#F4815F" d="M159.3,69.7c-1.6,0-2.9-1.3-2.9-2.9h1c0,1,0.8,1.9,1.9,1.9c1,0,1.9-0.8,1.9-1.9h1
		C162.1,68.4,160.9,69.7,159.3,69.7z"/>
	<path fill="#F4815F" d="M164,69.7c-1.6,0-2.9-1.3-2.9-2.9h1c0,1,0.8,1.9,1.9,1.9s1.9-0.8,1.9-1.9h1C166.9,68.4,165.6,69.7,164,69.7
		z"/>
	<path fill="#F4815F" d="M168.8,69.7c-1.6,0-2.9-1.3-2.9-2.9h1c0,1,0.8,1.9,1.9,1.9s1.9-0.8,1.9-1.9h1
		C171.7,68.4,170.4,69.7,168.8,69.7z"/>
	<path fill="#F4815F" d="M173.6,69.7c-1.6,0-2.9-1.3-2.9-2.9h1c0,1,0.8,1.9,1.9,1.9c1,0,1.9-0.8,1.9-1.9h1
		C176.4,68.4,175.1,69.7,173.6,69.7z"/>
	<path fill="#F4815F" d="M178.3,69.7c-1.6,0-2.9-1.3-2.9-2.9h1c0,1,0.8,1.9,1.9,1.9s1.9-0.8,1.9-1.9h1
		C181.2,68.4,179.9,69.7,178.3,69.7z"/>
	<path fill="#F4815F" d="M183.1,69.7c-1.6,0-2.9-1.3-2.9-2.9h1c0,1,0.8,1.9,1.9,1.9c1,0,1.9-0.8,1.9-1.9h1
		C186,68.4,184.7,69.7,183.1,69.7z"/>
	<path fill="#F4815F" d="M187.9,69.7c-1.6,0-2.9-1.3-2.9-2.9h1c0,1,0.8,1.9,1.9,1.9s1.9-0.8,1.9-1.9h1
		C190.7,68.4,189.4,69.7,187.9,69.7z"/>
	<path fill="#F4815F" d="M192.6,69.7c-1.6,0-2.9-1.3-2.9-2.9h1c0,1,0.8,1.9,1.9,1.9c1,0,1.9-0.8,1.9-1.9h1
		C195.5,68.4,194.2,69.7,192.6,69.7z"/>
	<path fill="#F4815F" d="M197.4,69.7c-1.6,0-2.9-1.3-2.9-2.9h1c0,1,0.8,1.9,1.9,1.9s1.9-0.8,1.9-1.9h1
		C200.2,68.4,199,69.7,197.4,69.7z"/>
	<path fill="#F4815F" d="M4.4,72.1c-1.6,0-2.9-1.3-2.9-2.9h1c0,1,0.8,1.9,1.9,1.9c1,0,1.9-0.8,1.9-1.9h1C7.3,70.8,6,72.1,4.4,72.1z"
		/>
	<path fill="#F4815F" d="M9.2,72.1c-1.6,0-2.9-1.3-2.9-2.9h1c0,1,0.8,1.9,1.9,1.9s1.9-0.8,1.9-1.9h1C12.1,70.8,10.8,72.1,9.2,72.1z"
		/>
	<path fill="#F4815F" d="M14,72.1c-1.6,0-2.9-1.3-2.9-2.9h1c0,1,0.8,1.9,1.9,1.9s1.9-0.8,1.9-1.9h1C16.8,70.8,15.6,72.1,14,72.1z"/>
	<path fill="#F4815F" d="M18.7,72.1c-1.6,0-2.9-1.3-2.9-2.9h1c0,1,0.8,1.9,1.9,1.9c1,0,1.9-0.8,1.9-1.9h1
		C21.6,70.8,20.3,72.1,18.7,72.1z"/>
	<path fill="#F4815F" d="M23.5,72.1c-1.6,0-2.9-1.3-2.9-2.9h1c0,1,0.8,1.9,1.9,1.9c1,0,1.9-0.8,1.9-1.9h1
		C26.4,70.8,25.1,72.1,23.5,72.1z"/>
	<path fill="#F4815F" d="M28.3,72.1c-1.6,0-2.9-1.3-2.9-2.9h1c0,1,0.8,1.9,1.9,1.9c1,0,1.9-0.8,1.9-1.9h1
		C31.1,70.8,29.8,72.1,28.3,72.1z"/>
	<path fill="#F4815F" d="M33,72.1c-1.6,0-2.9-1.3-2.9-2.9h1c0,1,0.8,1.9,1.9,1.9c1,0,1.9-0.8,1.9-1.9h1C35.9,70.8,34.6,72.1,33,72.1
		z"/>
	<path fill="#F4815F" d="M37.8,72.1c-1.6,0-2.9-1.3-2.9-2.9h1c0,1,0.8,1.9,1.9,1.9c1,0,1.9-0.8,1.9-1.9h1
		C40.7,70.8,39.4,72.1,37.8,72.1z"/>
	<path fill="#F4815F" d="M42.6,72.1c-1.6,0-2.9-1.3-2.9-2.9h1c0,1,0.8,1.9,1.9,1.9c1,0,1.9-0.8,1.9-1.9h1
		C45.4,70.8,44.1,72.1,42.6,72.1z"/>
	<path fill="#F4815F" d="M47.3,72.1c-1.6,0-2.9-1.3-2.9-2.9h1c0,1,0.8,1.9,1.9,1.9c1,0,1.9-0.8,1.9-1.9h1
		C50.2,70.8,48.9,72.1,47.3,72.1z"/>
	<path fill="#F4815F" d="M53.9,69.9c-0.3,0.7-1,1.3-1.8,1.3c-1,0-1.9-0.8-1.9-1.9h-1c0,1.6,1.3,2.9,2.9,2.9c0.7,0,1.4-0.3,1.9-0.8
		C54,70.9,53.9,70.4,53.9,69.9z"/>
	<path fill="#F4815F" d="M144.3,70.1c-0.3,0.6-0.9,1-1.7,1c-0.4,0.2-0.8,0.5-1.2,0.7c0.4,0.2,0.8,0.3,1.2,0.3c1.6,0,2.9-1.3,2.9-2.8
		C145,69.5,144.7,69.8,144.3,70.1z"/>
	<path fill="#F4815F" d="M147.3,71.1c-1,0-1.9-0.8-1.9-1.9c-0.3,0.2-0.6,0.4-0.9,0.6c0.3,1.3,1.4,2.2,2.8,2.2c1.6,0,2.9-1.3,2.9-2.9
		h-1C149.2,70.3,148.4,71.1,147.3,71.1z"/>
	<path fill="#F4815F" d="M152.1,72.1c-1.6,0-2.9-1.3-2.9-2.9h1c0,1,0.8,1.9,1.9,1.9s1.9-0.8,1.9-1.9h1
		C155,70.8,153.7,72.1,152.1,72.1z"/>
	<path fill="#F4815F" d="M156.9,72.1c-1.6,0-2.9-1.3-2.9-2.9h1c0,1,0.8,1.9,1.9,1.9c1,0,1.9-0.8,1.9-1.9h1
		C159.7,70.8,158.4,72.1,156.9,72.1z"/>
	<path fill="#F4815F" d="M161.6,72.1c-1.6,0-2.9-1.3-2.9-2.9h1c0,1,0.8,1.9,1.9,1.9c1,0,1.9-0.8,1.9-1.9h1
		C164.5,70.8,163.2,72.1,161.6,72.1z"/>
	<path fill="#F4815F" d="M166.4,72.1c-1.6,0-2.9-1.3-2.9-2.9h1c0,1,0.8,1.9,1.9,1.9s1.9-0.8,1.9-1.9h1
		C169.3,70.8,168,72.1,166.4,72.1z"/>
	<path fill="#F4815F" d="M171.1,72.1c-1.6,0-2.9-1.3-2.9-2.9h1c0,1,0.8,1.9,1.9,1.9c1,0,1.9-0.8,1.9-1.9h1
		C174,70.8,172.7,72.1,171.1,72.1z"/>
	<path fill="#F4815F" d="M175.9,72.1c-1.6,0-2.9-1.3-2.9-2.9h1c0,1,0.8,1.9,1.9,1.9c1,0,1.9-0.8,1.9-1.9h1
		C178.8,70.8,177.5,72.1,175.9,72.1z"/>
	<path fill="#F4815F" d="M180.7,72.1c-1.6,0-2.9-1.3-2.9-2.9h1c0,1,0.8,1.9,1.9,1.9c1,0,1.9-0.8,1.9-1.9h1
		C183.5,70.8,182.3,72.1,180.7,72.1z"/>
	<path fill="#F4815F" d="M185.4,72.1c-1.6,0-2.9-1.3-2.9-2.9h1c0,1,0.8,1.9,1.9,1.9s1.9-0.8,1.9-1.9h1
		C188.3,70.8,187,72.1,185.4,72.1z"/>
	<path fill="#F4815F" d="M190.2,72.1c-1.6,0-2.9-1.3-2.9-2.9h1c0,1,0.8,1.9,1.9,1.9c1,0,1.9-0.8,1.9-1.9h1
		C193.1,70.8,191.8,72.1,190.2,72.1z"/>
	<path fill="#F4815F" d="M195,72.1c-1.6,0-2.9-1.3-2.9-2.9h1c0,1,0.8,1.9,1.9,1.9s1.9-0.8,1.9-1.9h1C197.8,70.8,196.5,72.1,195,72.1
		z"/>
	<path fill="#F4815F" d="M199.7,72.1c-1.6,0-2.9-1.3-2.9-2.9h1c0,1,0.8,1.9,1.9,1.9c1,0,1.9-0.8,1.9-1.9h1
		C202.6,70.8,201.3,72.1,199.7,72.1z"/>
	<path fill="#F4815F" d="M6.9,74.5c-1.6,0-2.9-1.3-2.9-2.9h1c0,1,0.8,1.9,1.9,1.9s1.9-0.8,1.9-1.9h1C9.7,73.2,8.4,74.5,6.9,74.5z"/>
	<path fill="#F4815F" d="M11.6,74.5c-1.6,0-2.9-1.3-2.9-2.9h1c0,1,0.8,1.9,1.9,1.9c1,0,1.9-0.8,1.9-1.9h1
		C14.5,73.2,13.2,74.5,11.6,74.5z"/>
	<path fill="#F4815F" d="M16.4,74.5c-1.6,0-2.9-1.3-2.9-2.9h1c0,1,0.8,1.9,1.9,1.9s1.9-0.8,1.9-1.9h1C19.3,73.2,18,74.5,16.4,74.5z"
		/>
	<path fill="#F4815F" d="M21.2,74.5c-1.6,0-2.9-1.3-2.9-2.9h1c0,1,0.8,1.9,1.9,1.9c1,0,1.9-0.8,1.9-1.9h1
		C24,73.2,22.7,74.5,21.2,74.5z"/>
	<path fill="#F4815F" d="M25.9,74.5c-1.6,0-2.9-1.3-2.9-2.9h1c0,1,0.8,1.9,1.9,1.9c1,0,1.9-0.8,1.9-1.9h1
		C28.8,73.2,27.5,74.5,25.9,74.5z"/>
	<path fill="#F4815F" d="M30.7,74.5c-1.6,0-2.9-1.3-2.9-2.9h1c0,1,0.8,1.9,1.9,1.9c1,0,1.9-0.8,1.9-1.9h1
		C33.5,73.2,32.3,74.5,30.7,74.5z"/>
	<path fill="#F4815F" d="M35.4,74.5c-1.6,0-2.9-1.3-2.9-2.9h1c0,1,0.8,1.9,1.9,1.9s1.9-0.8,1.9-1.9h1C38.3,73.2,37,74.5,35.4,74.5z"
		/>
	<path fill="#F4815F" d="M40.2,74.5c-1.6,0-2.9-1.3-2.9-2.9h1c0,1,0.8,1.9,1.9,1.9c1,0,1.9-0.8,1.9-1.9h1
		C43.1,73.2,41.8,74.5,40.2,74.5z"/>
	<path fill="#F4815F" d="M45,74.5c-1.6,0-2.9-1.3-2.9-2.9h1c0,1,0.8,1.9,1.9,1.9s1.9-0.8,1.9-1.9h1C47.8,73.2,46.5,74.5,45,74.5z"/>
	<path fill="#F4815F" d="M49.7,74.5c-1.6,0-2.9-1.3-2.9-2.9h1c0,1,0.8,1.9,1.9,1.9c1,0,1.9-0.8,1.9-1.9h1
		C52.6,73.2,51.3,74.5,49.7,74.5z"/>
	<path fill="#F4815F" d="M140.2,73.5c-0.4,0-0.8-0.1-1.1-0.4c-0.3,0.2-0.6,0.3-0.9,0.5c0.5,0.5,1.3,0.9,2.1,0.9
		c1.6,0,2.9-1.3,2.9-2.9h-1C142.1,72.7,141.3,73.5,140.2,73.5z"/>
	<path fill="#F4815F" d="M145,74.5c-1.6,0-2.9-1.3-2.9-2.9h1c0,1,0.8,1.9,1.9,1.9s1.9-0.8,1.9-1.9h1C147.9,73.2,146.6,74.5,145,74.5
		z"/>
	<path fill="#F4815F" d="M149.7,74.5c-1.6,0-2.9-1.3-2.9-2.9h1c0,1,0.8,1.9,1.9,1.9c1,0,1.9-0.8,1.9-1.9h1
		C152.6,73.2,151.3,74.5,149.7,74.5z"/>
	<path fill="#F4815F" d="M154.5,74.5c-1.6,0-2.9-1.3-2.9-2.9h1c0,1,0.8,1.9,1.9,1.9s1.9-0.8,1.9-1.9h1
		C157.4,73.2,156.1,74.5,154.5,74.5z"/>
	<path fill="#F4815F" d="M159.3,74.5c-1.6,0-2.9-1.3-2.9-2.9h1c0,1,0.8,1.9,1.9,1.9c1,0,1.9-0.8,1.9-1.9h1
		C162.1,73.2,160.9,74.5,159.3,74.5z"/>
	<path fill="#F4815F" d="M164,74.5c-1.6,0-2.9-1.3-2.9-2.9h1c0,1,0.8,1.9,1.9,1.9s1.9-0.8,1.9-1.9h1C166.9,73.2,165.6,74.5,164,74.5
		z"/>
	<path fill="#F4815F" d="M168.8,74.5c-1.6,0-2.9-1.3-2.9-2.9h1c0,1,0.8,1.9,1.9,1.9s1.9-0.8,1.9-1.9h1
		C171.7,73.2,170.4,74.5,168.8,74.5z"/>
	<path fill="#F4815F" d="M173.6,74.5c-1.6,0-2.9-1.3-2.9-2.9h1c0,1,0.8,1.9,1.9,1.9c1,0,1.9-0.8,1.9-1.9h1
		C176.4,73.2,175.1,74.5,173.6,74.5z"/>
	<path fill="#F4815F" d="M178.3,74.5c-1.6,0-2.9-1.3-2.9-2.9h1c0,1,0.8,1.9,1.9,1.9s1.9-0.8,1.9-1.9h1
		C181.2,73.2,179.9,74.5,178.3,74.5z"/>
	<path fill="#F4815F" d="M183.1,74.5c-1.6,0-2.9-1.3-2.9-2.9h1c0,1,0.8,1.9,1.9,1.9c1,0,1.9-0.8,1.9-1.9h1
		C186,73.2,184.7,74.5,183.1,74.5z"/>
	<path fill="#F4815F" d="M187.9,74.5c-1.6,0-2.9-1.3-2.9-2.9h1c0,1,0.8,1.9,1.9,1.9s1.9-0.8,1.9-1.9h1
		C190.7,73.2,189.4,74.5,187.9,74.5z"/>
	<path fill="#F4815F" d="M192.6,74.5c-1.6,0-2.9-1.3-2.9-2.9h1c0,1,0.8,1.9,1.9,1.9c1,0,1.9-0.8,1.9-1.9h1
		C195.5,73.2,194.2,74.5,192.6,74.5z"/>
	<path fill="#F4815F" d="M197.4,74.5c-1.6,0-2.9-1.3-2.9-2.9h1c0,1,0.8,1.9,1.9,1.9s1.9-0.8,1.9-1.9h1
		C200.2,73.2,199,74.5,197.4,74.5z"/>
	<path fill="#F4815F" d="M4.4,76.9c-1.6,0-2.9-1.3-2.9-2.9h1c0,1,0.8,1.9,1.9,1.9c1,0,1.9-0.8,1.9-1.9h1C7.3,75.6,6,76.9,4.4,76.9z"
		/>
	<path fill="#F4815F" d="M9.2,76.9c-1.6,0-2.9-1.3-2.9-2.9h1c0,1,0.8,1.9,1.9,1.9s1.9-0.8,1.9-1.9h1C12.1,75.6,10.8,76.9,9.2,76.9z"
		/>
	<path fill="#F4815F" d="M14,76.9c-1.6,0-2.9-1.3-2.9-2.9h1c0,1,0.8,1.9,1.9,1.9s1.9-0.8,1.9-1.9h1C16.8,75.6,15.6,76.9,14,76.9z"/>
	<path fill="#F4815F" d="M18.7,76.9c-1.6,0-2.9-1.3-2.9-2.9h1c0,1,0.8,1.9,1.9,1.9c1,0,1.9-0.8,1.9-1.9h1
		C21.6,75.6,20.3,76.9,18.7,76.9z"/>
	<path fill="#F4815F" d="M23.5,76.9c-1.6,0-2.9-1.3-2.9-2.9h1c0,1,0.8,1.9,1.9,1.9c1,0,1.9-0.8,1.9-1.9h1
		C26.4,75.6,25.1,76.9,23.5,76.9z"/>
	<path fill="#F4815F" d="M28.3,76.9c-1.6,0-2.9-1.3-2.9-2.9h1c0,1,0.8,1.9,1.9,1.9c1,0,1.9-0.8,1.9-1.9h1
		C31.1,75.6,29.8,76.9,28.3,76.9z"/>
	<path fill="#F4815F" d="M33,76.9c-1.6,0-2.9-1.3-2.9-2.9h1c0,1,0.8,1.9,1.9,1.9c1,0,1.9-0.8,1.9-1.9h1C35.9,75.6,34.6,76.9,33,76.9
		z"/>
	<path fill="#F4815F" d="M37.8,76.9c-1.6,0-2.9-1.3-2.9-2.9h1c0,1,0.8,1.9,1.9,1.9c1,0,1.9-0.8,1.9-1.9h1
		C40.7,75.6,39.4,76.9,37.8,76.9z"/>
	<path fill="#F4815F" d="M42.6,76.9c-1.6,0-2.9-1.3-2.9-2.9h1c0,1,0.8,1.9,1.9,1.9c1,0,1.9-0.8,1.9-1.9h1
		C45.4,75.6,44.1,76.9,42.6,76.9z"/>
	<path fill="#F4815F" d="M47.3,76.9c-1.6,0-2.9-1.3-2.9-2.9h1c0,1,0.8,1.9,1.9,1.9c1,0,1.9-0.8,1.9-1.9h1
		C50.2,75.6,48.9,76.9,47.3,76.9z"/>
	<path fill="#F4815F" d="M54.3,74H54c0,1-0.8,1.9-1.9,1.9c-1,0-1.9-0.8-1.9-1.9h-1c0,1.6,1.3,2.9,2.9,2.9c1,0,1.9-0.5,2.4-1.3
		C54.4,75,54.4,74.5,54.3,74z"/>
	<path fill="#F4815F" d="M133.8,75.9c-0.6,0.3-1.2,0.6-1.7,0.8c0.3,0.1,0.6,0.2,1,0.2c1.3,0,2.4-0.9,2.7-2
		C135.1,75.2,134.5,75.5,133.8,75.9z"/>
	<path fill="#F4815F" d="M137.8,75.9c-0.8,0-1.5-0.5-1.8-1.2c-0.3,0.1-0.6,0.3-0.9,0.4c0.4,1,1.5,1.7,2.6,1.7c1.6,0,2.9-1.3,2.9-2.9
		h-1C139.7,75,138.9,75.9,137.8,75.9z"/>
	<path fill="#F4815F" d="M142.6,76.9c-1.6,0-2.9-1.3-2.9-2.9h1c0,1,0.8,1.9,1.9,1.9s1.9-0.8,1.9-1.9h1
		C145.4,75.6,144.2,76.9,142.6,76.9z"/>
	<path fill="#F4815F" d="M147.3,76.9c-1.6,0-2.9-1.3-2.9-2.9h1c0,1,0.8,1.9,1.9,1.9c1,0,1.9-0.8,1.9-1.9h1
		C150.2,75.6,148.9,76.9,147.3,76.9z"/>
	<path fill="#F4815F" d="M152.1,76.9c-1.6,0-2.9-1.3-2.9-2.9h1c0,1,0.8,1.9,1.9,1.9S154,75,154,74h1C155,75.6,153.7,76.9,152.1,76.9
		z"/>
	<path fill="#F4815F" d="M156.9,76.9c-1.6,0-2.9-1.3-2.9-2.9h1c0,1,0.8,1.9,1.9,1.9c1,0,1.9-0.8,1.9-1.9h1
		C159.7,75.6,158.4,76.9,156.9,76.9z"/>
	<path fill="#F4815F" d="M161.6,76.9c-1.6,0-2.9-1.3-2.9-2.9h1c0,1,0.8,1.9,1.9,1.9c1,0,1.9-0.8,1.9-1.9h1
		C164.5,75.6,163.2,76.9,161.6,76.9z"/>
	<path fill="#F4815F" d="M166.4,76.9c-1.6,0-2.9-1.3-2.9-2.9h1c0,1,0.8,1.9,1.9,1.9s1.9-0.8,1.9-1.9h1
		C169.3,75.6,168,76.9,166.4,76.9z"/>
	<path fill="#F4815F" d="M171.1,76.9c-1.6,0-2.9-1.3-2.9-2.9h1c0,1,0.8,1.9,1.9,1.9c1,0,1.9-0.8,1.9-1.9h1
		C174,75.6,172.7,76.9,171.1,76.9z"/>
	<path fill="#F4815F" d="M175.9,76.9c-1.6,0-2.9-1.3-2.9-2.9h1c0,1,0.8,1.9,1.9,1.9c1,0,1.9-0.8,1.9-1.9h1
		C178.8,75.6,177.5,76.9,175.9,76.9z"/>
	<path fill="#F4815F" d="M180.7,76.9c-1.6,0-2.9-1.3-2.9-2.9h1c0,1,0.8,1.9,1.9,1.9c1,0,1.9-0.8,1.9-1.9h1
		C183.5,75.6,182.3,76.9,180.7,76.9z"/>
	<path fill="#F4815F" d="M185.4,76.9c-1.6,0-2.9-1.3-2.9-2.9h1c0,1,0.8,1.9,1.9,1.9s1.9-0.8,1.9-1.9h1
		C188.3,75.6,187,76.9,185.4,76.9z"/>
	<path fill="#F4815F" d="M190.2,76.9c-1.6,0-2.9-1.3-2.9-2.9h1c0,1,0.8,1.9,1.9,1.9c1,0,1.9-0.8,1.9-1.9h1
		C193.1,75.6,191.8,76.9,190.2,76.9z"/>
	<path fill="#F4815F" d="M195,76.9c-1.6,0-2.9-1.3-2.9-2.9h1c0,1,0.8,1.9,1.9,1.9s1.9-0.8,1.9-1.9h1C197.8,75.6,196.5,76.9,195,76.9
		z"/>
	<path fill="#F4815F" d="M199.7,76.9c-1.6,0-2.9-1.3-2.9-2.9h1c0,1,0.8,1.9,1.9,1.9c1,0,1.9-0.8,1.9-1.9h1
		C202.6,75.6,201.3,76.9,199.7,76.9z"/>
	<path fill="#F4815F" d="M6.9,79.3C5.3,79.3,4,78,4,76.4h1c0,1,0.8,1.9,1.9,1.9s1.9-0.8,1.9-1.9h1C9.7,78,8.4,79.3,6.9,79.3z"/>
	<path fill="#F4815F" d="M11.6,79.3c-1.6,0-2.9-1.3-2.9-2.9h1c0,1,0.8,1.9,1.9,1.9c1,0,1.9-0.8,1.9-1.9h1
		C14.5,78,13.2,79.3,11.6,79.3z"/>
	<path fill="#F4815F" d="M16.4,79.3c-1.6,0-2.9-1.3-2.9-2.9h1c0,1,0.8,1.9,1.9,1.9s1.9-0.8,1.9-1.9h1C19.3,78,18,79.3,16.4,79.3z"/>
	<path fill="#F4815F" d="M21.2,79.3c-1.6,0-2.9-1.3-2.9-2.9h1c0,1,0.8,1.9,1.9,1.9c1,0,1.9-0.8,1.9-1.9h1C24,78,22.7,79.3,21.2,79.3
		z"/>
	<path fill="#F4815F" d="M25.9,79.3c-1.6,0-2.9-1.3-2.9-2.9h1c0,1,0.8,1.9,1.9,1.9c1,0,1.9-0.8,1.9-1.9h1
		C28.8,78,27.5,79.3,25.9,79.3z"/>
	<path fill="#F4815F" d="M30.7,79.3c-1.6,0-2.9-1.3-2.9-2.9h1c0,1,0.8,1.9,1.9,1.9c1,0,1.9-0.8,1.9-1.9h1
		C33.5,78,32.3,79.3,30.7,79.3z"/>
	<path fill="#F4815F" d="M35.4,79.3c-1.6,0-2.9-1.3-2.9-2.9h1c0,1,0.8,1.9,1.9,1.9s1.9-0.8,1.9-1.9h1C38.3,78,37,79.3,35.4,79.3z"/>
	<path fill="#F4815F" d="M40.2,79.3c-1.6,0-2.9-1.3-2.9-2.9h1c0,1,0.8,1.9,1.9,1.9c1,0,1.9-0.8,1.9-1.9h1
		C43.1,78,41.8,79.3,40.2,79.3z"/>
	<path fill="#F4815F" d="M45,79.3c-1.6,0-2.9-1.3-2.9-2.9h1c0,1,0.8,1.9,1.9,1.9s1.9-0.8,1.9-1.9h1C47.8,78,46.5,79.3,45,79.3z"/>
	<path fill="#F4815F" d="M49.7,79.3c-1.6,0-2.9-1.3-2.9-2.9h1c0,1,0.8,1.9,1.9,1.9c1,0,1.9-0.8,1.9-1.9h1
		C52.6,78,51.3,79.3,49.7,79.3z"/>
	<path fill="#F4815F" d="M54.9,78.2c-0.1,0-0.3,0.1-0.4,0.1c-1,0-1.9-0.8-1.9-1.9h-1c0,1.6,1.3,2.9,2.9,2.9c0.2,0,0.4,0,0.6-0.1
		C55.1,78.9,55,78.5,54.9,78.2z"/>
	<path fill="#F4815F" d="M70.8,77.1c0.3,1.2,1.4,2.1,2.8,2.1c0.1,0,0.2,0,0.3,0C72.9,78.6,71.8,77.7,70.8,77.1z"/>
	<path fill="#F4815F" d="M132.6,76.4c0,1-0.9,1.8-1.9,1.8c-0.5,0-0.9-0.2-1.3-0.5c-0.3,0.1-0.7,0.2-1,0.4c0.5,0.7,1.3,1.1,2.2,1.1
		c1.6,0,2.9-1.3,2.9-2.9h-0.9C132.7,76.4,132.6,76.4,132.6,76.4z"/>
	<path fill="#F4815F" d="M135.5,78.3c-1,0-1.9-0.8-1.9-1.9h-0.9c0,0-0.1,0-0.1,0.1c0,1.6,1.3,2.8,2.9,2.8c1.6,0,2.9-1.3,2.9-2.9h-1
		C137.4,77.4,136.5,78.3,135.5,78.3z"/>
	<path fill="#F4815F" d="M140.2,79.3c-1.6,0-2.9-1.3-2.9-2.9h1c0,1,0.8,1.9,1.9,1.9c1,0,1.9-0.8,1.9-1.9h1
		C143.1,78,141.8,79.3,140.2,79.3z"/>
	<path fill="#F4815F" d="M145,79.3c-1.6,0-2.9-1.3-2.9-2.9h1c0,1,0.8,1.9,1.9,1.9s1.9-0.8,1.9-1.9h1C147.9,78,146.6,79.3,145,79.3z"
		/>
	<path fill="#F4815F" d="M149.7,79.3c-1.6,0-2.9-1.3-2.9-2.9h1c0,1,0.8,1.9,1.9,1.9c1,0,1.9-0.8,1.9-1.9h1
		C152.6,78,151.3,79.3,149.7,79.3z"/>
	<path fill="#F4815F" d="M154.5,79.3c-1.6,0-2.9-1.3-2.9-2.9h1c0,1,0.8,1.9,1.9,1.9s1.9-0.8,1.9-1.9h1
		C157.4,78,156.1,79.3,154.5,79.3z"/>
	<path fill="#F4815F" d="M159.3,79.3c-1.6,0-2.9-1.3-2.9-2.9h1c0,1,0.8,1.9,1.9,1.9c1,0,1.9-0.8,1.9-1.9h1
		C162.1,78,160.9,79.3,159.3,79.3z"/>
	<path fill="#F4815F" d="M164,79.3c-1.6,0-2.9-1.3-2.9-2.9h1c0,1,0.8,1.9,1.9,1.9s1.9-0.8,1.9-1.9h1C166.9,78,165.6,79.3,164,79.3z"
		/>
	<path fill="#F4815F" d="M168.8,79.3c-1.6,0-2.9-1.3-2.9-2.9h1c0,1,0.8,1.9,1.9,1.9s1.9-0.8,1.9-1.9h1
		C171.7,78,170.4,79.3,168.8,79.3z"/>
	<path fill="#F4815F" d="M173.6,79.3c-1.6,0-2.9-1.3-2.9-2.9h1c0,1,0.8,1.9,1.9,1.9c1,0,1.9-0.8,1.9-1.9h1
		C176.4,78,175.1,79.3,173.6,79.3z"/>
	<path fill="#F4815F" d="M178.3,79.3c-1.6,0-2.9-1.3-2.9-2.9h1c0,1,0.8,1.9,1.9,1.9s1.9-0.8,1.9-1.9h1
		C181.2,78,179.9,79.3,178.3,79.3z"/>
	<path fill="#F4815F" d="M183.1,79.3c-1.6,0-2.9-1.3-2.9-2.9h1c0,1,0.8,1.9,1.9,1.9c1,0,1.9-0.8,1.9-1.9h1
		C186,78,184.7,79.3,183.1,79.3z"/>
	<path fill="#F4815F" d="M187.9,79.3c-1.6,0-2.9-1.3-2.9-2.9h1c0,1,0.8,1.9,1.9,1.9s1.9-0.8,1.9-1.9h1
		C190.7,78,189.4,79.3,187.9,79.3z"/>
	<path fill="#F4815F" d="M192.6,79.3c-1.6,0-2.9-1.3-2.9-2.9h1c0,1,0.8,1.9,1.9,1.9c1,0,1.9-0.8,1.9-1.9h1
		C195.5,78,194.2,79.3,192.6,79.3z"/>
	<path fill="#F4815F" d="M197.4,79.3c-1.6,0-2.9-1.3-2.9-2.9h1c0,1,0.8,1.9,1.9,1.9s1.9-0.8,1.9-1.9h1C200.2,78,199,79.3,197.4,79.3
		z"/>
	<path fill="#F4815F" d="M4.4,81.6c-1.6,0-2.9-1.3-2.9-2.9h1c0,1,0.8,1.9,1.9,1.9c1,0,1.9-0.8,1.9-1.9h1C7.3,80.4,6,81.6,4.4,81.6z"
		/>
	<path fill="#F4815F" d="M9.2,81.6c-1.6,0-2.9-1.3-2.9-2.9h1c0,1,0.8,1.9,1.9,1.9s1.9-0.8,1.9-1.9h1C12.1,80.4,10.8,81.6,9.2,81.6z"
		/>
	<path fill="#F4815F" d="M14,81.6c-1.6,0-2.9-1.3-2.9-2.9h1c0,1,0.8,1.9,1.9,1.9s1.9-0.8,1.9-1.9h1C16.8,80.4,15.6,81.6,14,81.6z"/>
	<path fill="#F4815F" d="M18.7,81.6c-1.6,0-2.9-1.3-2.9-2.9h1c0,1,0.8,1.9,1.9,1.9c1,0,1.9-0.8,1.9-1.9h1
		C21.6,80.4,20.3,81.6,18.7,81.6z"/>
	<path fill="#F4815F" d="M23.5,81.6c-1.6,0-2.9-1.3-2.9-2.9h1c0,1,0.8,1.9,1.9,1.9c1,0,1.9-0.8,1.9-1.9h1
		C26.4,80.4,25.1,81.6,23.5,81.6z"/>
	<path fill="#F4815F" d="M28.3,81.6c-1.6,0-2.9-1.3-2.9-2.9h1c0,1,0.8,1.9,1.9,1.9c1,0,1.9-0.8,1.9-1.9h1
		C31.1,80.4,29.8,81.6,28.3,81.6z"/>
	<path fill="#F4815F" d="M33,81.6c-1.6,0-2.9-1.3-2.9-2.9h1c0,1,0.8,1.9,1.9,1.9c1,0,1.9-0.8,1.9-1.9h1C35.9,80.4,34.6,81.6,33,81.6
		z"/>
	<path fill="#F4815F" d="M37.8,81.6c-1.6,0-2.9-1.3-2.9-2.9h1c0,1,0.8,1.9,1.9,1.9c1,0,1.9-0.8,1.9-1.9h1
		C40.7,80.4,39.4,81.6,37.8,81.6z"/>
	<path fill="#F4815F" d="M42.6,81.6c-1.6,0-2.9-1.3-2.9-2.9h1c0,1,0.8,1.9,1.9,1.9c1,0,1.9-0.8,1.9-1.9h1
		C45.4,80.4,44.1,81.6,42.6,81.6z"/>
	<path fill="#F4815F" d="M47.3,81.6c-1.6,0-2.9-1.3-2.9-2.9h1c0,1,0.8,1.9,1.9,1.9c1,0,1.9-0.8,1.9-1.9h1
		C50.2,80.4,48.9,81.6,47.3,81.6z"/>
	<path fill="#F4815F" d="M52.1,81.6c-1.6,0-2.9-1.3-2.9-2.9h1c0,1,0.8,1.9,1.9,1.9c1,0,1.9-0.8,1.9-1.9h1
		C54.9,80.4,53.7,81.6,52.1,81.6z"/>
	<path fill="#F4815F" d="M73.2,78.8H73c0,1-0.8,1.9-1.9,1.9c-0.5,0-0.9-0.2-1.2-0.5c0,0.4-0.1,0.7-0.1,1.1c0.4,0.2,0.9,0.3,1.3,0.3
		c1.4,0,2.6-1,2.8-2.3C73.7,79.1,73.5,79,73.2,78.8z"/>
	<path fill="#F4815F" d="M76.2,80.6c-0.1,0-0.2,0-0.4,0c-0.8,0-1.5-0.5-1.8-1.2c-0.3-0.2-0.6-0.4-0.9-0.7H73c0,1.6,1.3,2.9,2.9,2.9
		c0.6,0,1.1-0.2,1.6-0.5C77.1,81,76.6,80.8,76.2,80.6z"/>
	<path fill="#F4815F" d="M128.3,80.7c-1,0-1.8-0.8-1.9-1.8c-0.3,0.1-0.6,0.2-0.9,0.3c0.2,1.4,1.4,2.5,2.8,2.5c1.6,0,2.9-1.3,2.9-2.9
		h-1C130.2,79.8,129.3,80.7,128.3,80.7z"/>
	<path fill="#F4815F" d="M133,81.6c-1.6,0-2.9-1.3-2.9-2.9h1c0,1,0.8,1.9,1.9,1.9s1.9-0.8,1.9-1.9h1C135.9,80.4,134.6,81.6,133,81.6
		z"/>
	<path fill="#F4815F" d="M137.8,81.6c-1.6,0-2.9-1.3-2.9-2.9h1c0,1,0.8,1.9,1.9,1.9c1,0,1.9-0.8,1.9-1.9h1
		C140.7,80.4,139.4,81.6,137.8,81.6z"/>
	<path fill="#F4815F" d="M142.6,81.6c-1.6,0-2.9-1.3-2.9-2.9h1c0,1,0.8,1.9,1.9,1.9s1.9-0.8,1.9-1.9h1
		C145.4,80.4,144.2,81.6,142.6,81.6z"/>
	<path fill="#F4815F" d="M147.3,81.6c-1.6,0-2.9-1.3-2.9-2.9h1c0,1,0.8,1.9,1.9,1.9c1,0,1.9-0.8,1.9-1.9h1
		C150.2,80.4,148.9,81.6,147.3,81.6z"/>
	<path fill="#F4815F" d="M152.1,81.6c-1.6,0-2.9-1.3-2.9-2.9h1c0,1,0.8,1.9,1.9,1.9s1.9-0.8,1.9-1.9h1
		C155,80.4,153.7,81.6,152.1,81.6z"/>
	<path fill="#F4815F" d="M156.9,81.6c-1.6,0-2.9-1.3-2.9-2.9h1c0,1,0.8,1.9,1.9,1.9c1,0,1.9-0.8,1.9-1.9h1
		C159.7,80.4,158.4,81.6,156.9,81.6z"/>
	<path fill="#F4815F" d="M161.6,81.6c-1.6,0-2.9-1.3-2.9-2.9h1c0,1,0.8,1.9,1.9,1.9c1,0,1.9-0.8,1.9-1.9h1
		C164.5,80.4,163.2,81.6,161.6,81.6z"/>
	<path fill="#F4815F" d="M166.4,81.6c-1.6,0-2.9-1.3-2.9-2.9h1c0,1,0.8,1.9,1.9,1.9s1.9-0.8,1.9-1.9h1
		C169.3,80.4,168,81.6,166.4,81.6z"/>
	<path fill="#F4815F" d="M171.1,81.6c-1.6,0-2.9-1.3-2.9-2.9h1c0,1,0.8,1.9,1.9,1.9c1,0,1.9-0.8,1.9-1.9h1
		C174,80.4,172.7,81.6,171.1,81.6z"/>
	<path fill="#F4815F" d="M175.9,81.6c-1.6,0-2.9-1.3-2.9-2.9h1c0,1,0.8,1.9,1.9,1.9c1,0,1.9-0.8,1.9-1.9h1
		C178.8,80.4,177.5,81.6,175.9,81.6z"/>
	<path fill="#F4815F" d="M180.7,81.6c-1.6,0-2.9-1.3-2.9-2.9h1c0,1,0.8,1.9,1.9,1.9c1,0,1.9-0.8,1.9-1.9h1
		C183.5,80.4,182.3,81.6,180.7,81.6z"/>
	<path fill="#F4815F" d="M185.4,81.6c-1.6,0-2.9-1.3-2.9-2.9h1c0,1,0.8,1.9,1.9,1.9s1.9-0.8,1.9-1.9h1
		C188.3,80.4,187,81.6,185.4,81.6z"/>
	<path fill="#F4815F" d="M190.2,81.6c-1.6,0-2.9-1.3-2.9-2.9h1c0,1,0.8,1.9,1.9,1.9c1,0,1.9-0.8,1.9-1.9h1
		C193.1,80.4,191.8,81.6,190.2,81.6z"/>
	<path fill="#F4815F" d="M195,81.6c-1.6,0-2.9-1.3-2.9-2.9h1c0,1,0.8,1.9,1.9,1.9s1.9-0.8,1.9-1.9h1C197.8,80.4,196.5,81.6,195,81.6
		z"/>
	<path fill="#F4815F" d="M199.7,81.6c-1.6,0-2.9-1.3-2.9-2.9h1c0,1,0.8,1.9,1.9,1.9c1,0,1.9-0.8,1.9-1.9h1
		C202.6,80.4,201.3,81.6,199.7,81.6z"/>
	<path fill="#F4815F" d="M6.9,84C5.3,84,4,82.7,4,81.1h1c0,1,0.8,1.9,1.9,1.9s1.9-0.8,1.9-1.9h1C9.7,82.7,8.4,84,6.9,84z"/>
	<path fill="#F4815F" d="M11.6,84c-1.6,0-2.9-1.3-2.9-2.9h1c0,1,0.8,1.9,1.9,1.9c1,0,1.9-0.8,1.9-1.9h1C14.5,82.7,13.2,84,11.6,84z"
		/>
	<path fill="#F4815F" d="M16.4,84c-1.6,0-2.9-1.3-2.9-2.9h1c0,1,0.8,1.9,1.9,1.9s1.9-0.8,1.9-1.9h1C19.3,82.7,18,84,16.4,84z"/>
	<path fill="#F4815F" d="M21.2,84c-1.6,0-2.9-1.3-2.9-2.9h1c0,1,0.8,1.9,1.9,1.9c1,0,1.9-0.8,1.9-1.9h1C24,82.7,22.7,84,21.2,84z"/>
	<path fill="#F4815F" d="M25.9,84c-1.6,0-2.9-1.3-2.9-2.9h1c0,1,0.8,1.9,1.9,1.9c1,0,1.9-0.8,1.9-1.9h1C28.8,82.7,27.5,84,25.9,84z"
		/>
	<path fill="#F4815F" d="M30.7,84c-1.6,0-2.9-1.3-2.9-2.9h1c0,1,0.8,1.9,1.9,1.9c1,0,1.9-0.8,1.9-1.9h1C33.5,82.7,32.3,84,30.7,84z"
		/>
	<path fill="#F4815F" d="M35.4,84c-1.6,0-2.9-1.3-2.9-2.9h1c0,1,0.8,1.9,1.9,1.9s1.9-0.8,1.9-1.9h1C38.3,82.7,37,84,35.4,84z"/>
	<path fill="#F4815F" d="M40.2,84c-1.6,0-2.9-1.3-2.9-2.9h1c0,1,0.8,1.9,1.9,1.9c1,0,1.9-0.8,1.9-1.9h1C43.1,82.7,41.8,84,40.2,84z"
		/>
	<path fill="#F4815F" d="M45,84c-1.6,0-2.9-1.3-2.9-2.9h1c0,1,0.8,1.9,1.9,1.9s1.9-0.8,1.9-1.9h1C47.8,82.7,46.5,84,45,84z"/>
	<path fill="#F4815F" d="M49.7,84c-1.6,0-2.9-1.3-2.9-2.9h1c0,1,0.8,1.9,1.9,1.9c1,0,1.9-0.8,1.9-1.9h1C52.6,82.7,51.3,84,49.7,84z"
		/>
	<path fill="#F4815F" d="M56,82.3c-0.3,0.5-0.9,0.8-1.5,0.8c-1,0-1.9-0.8-1.9-1.9h-1c0,1.6,1.3,2.9,2.9,2.9c0.7,0,1.3-0.3,1.8-0.7
		C56.2,83,56.1,82.6,56,82.3z"/>
	<path fill="#F4815F" d="M73.5,84c-1.6,0-2.9-1.3-2.9-2.9h1c0,1,0.8,1.9,1.9,1.9c1,0,1.9-0.8,1.9-1.9h1C76.4,82.7,75.1,84,73.5,84z"
		/>
	<path fill="#F4815F" d="M80,82.1c-0.3,0.6-0.9,1-1.6,1c-1,0-1.9-0.8-1.9-1.9h-1c0,1.6,1.3,2.9,2.9,2.9c1.2,0,2.1-0.7,2.6-1.7
		C80.6,82.3,80.3,82.2,80,82.1z"/>
	<path fill="#F4815F" d="M83.5,83c-0.1,0-0.3,0.1-0.4,0.1c-0.5,0-0.9-0.2-1.2-0.4c-0.5-0.1-1-0.2-1.5-0.4c0.4,1.1,1.5,1.8,2.7,1.8
		c0.7,0,1.4-0.3,1.9-0.7C84.5,83.2,84,83.1,83.5,83z"/>
	<path fill="#F4815F" d="M127.8,81.1c0,1-0.8,1.9-1.9,1.9c-0.5,0-0.9-0.2-1.3-0.5c0,0.4,0,0.8,0.1,1.2c0.4,0.2,0.8,0.3,1.2,0.3
		c1.6,0,2.9-1.3,2.9-2.9H127.8z"/>
	<path fill="#F4815F" d="M130.7,84c-1.6,0-2.9-1.3-2.9-2.9h1c0,1,0.8,1.9,1.9,1.9c1,0,1.9-0.8,1.9-1.9h1
		C133.6,82.7,132.3,84,130.7,84z"/>
	<path fill="#F4815F" d="M135.5,84c-1.6,0-2.9-1.3-2.9-2.9h1c0,1,0.8,1.9,1.9,1.9s1.9-0.8,1.9-1.9h1C138.3,82.7,137,84,135.5,84z"/>
	<path fill="#F4815F" d="M140.2,84c-1.6,0-2.9-1.3-2.9-2.9h1c0,1,0.8,1.9,1.9,1.9c1,0,1.9-0.8,1.9-1.9h1
		C143.1,82.7,141.8,84,140.2,84z"/>
	<path fill="#F4815F" d="M145,84c-1.6,0-2.9-1.3-2.9-2.9h1c0,1,0.8,1.9,1.9,1.9s1.9-0.8,1.9-1.9h1C147.9,82.7,146.6,84,145,84z"/>
	<path fill="#F4815F" d="M149.7,84c-1.6,0-2.9-1.3-2.9-2.9h1c0,1,0.8,1.9,1.9,1.9c1,0,1.9-0.8,1.9-1.9h1
		C152.6,82.7,151.3,84,149.7,84z"/>
	<path fill="#F4815F" d="M154.5,84c-1.6,0-2.9-1.3-2.9-2.9h1c0,1,0.8,1.9,1.9,1.9s1.9-0.8,1.9-1.9h1C157.4,82.7,156.1,84,154.5,84z"
		/>
	<path fill="#F4815F" d="M159.3,84c-1.6,0-2.9-1.3-2.9-2.9h1c0,1,0.8,1.9,1.9,1.9c1,0,1.9-0.8,1.9-1.9h1
		C162.1,82.7,160.9,84,159.3,84z"/>
	<path fill="#F4815F" d="M164,84c-1.6,0-2.9-1.3-2.9-2.9h1c0,1,0.8,1.9,1.9,1.9s1.9-0.8,1.9-1.9h1C166.9,82.7,165.6,84,164,84z"/>
	<path fill="#F4815F" d="M168.8,84c-1.6,0-2.9-1.3-2.9-2.9h1c0,1,0.8,1.9,1.9,1.9s1.9-0.8,1.9-1.9h1C171.7,82.7,170.4,84,168.8,84z"
		/>
	<path fill="#F4815F" d="M173.6,84c-1.6,0-2.9-1.3-2.9-2.9h1c0,1,0.8,1.9,1.9,1.9c1,0,1.9-0.8,1.9-1.9h1
		C176.4,82.7,175.1,84,173.6,84z"/>
	<path fill="#F4815F" d="M178.3,84c-1.6,0-2.9-1.3-2.9-2.9h1c0,1,0.8,1.9,1.9,1.9s1.9-0.8,1.9-1.9h1C181.2,82.7,179.9,84,178.3,84z"
		/>
	<path fill="#F4815F" d="M183.1,84c-1.6,0-2.9-1.3-2.9-2.9h1c0,1,0.8,1.9,1.9,1.9c1,0,1.9-0.8,1.9-1.9h1C186,82.7,184.7,84,183.1,84
		z"/>
	<path fill="#F4815F" d="M187.9,84c-1.6,0-2.9-1.3-2.9-2.9h1c0,1,0.8,1.9,1.9,1.9s1.9-0.8,1.9-1.9h1C190.7,82.7,189.4,84,187.9,84z"
		/>
	<path fill="#F4815F" d="M192.6,84c-1.6,0-2.9-1.3-2.9-2.9h1c0,1,0.8,1.9,1.9,1.9c1,0,1.9-0.8,1.9-1.9h1
		C195.5,82.7,194.2,84,192.6,84z"/>
	<path fill="#F4815F" d="M197.4,84c-1.6,0-2.9-1.3-2.9-2.9h1c0,1,0.8,1.9,1.9,1.9s1.9-0.8,1.9-1.9h1C200.2,82.7,199,84,197.4,84z"/>
	<path fill="#F4815F" d="M4.4,86.4c-1.6,0-2.9-1.3-2.9-2.9h1c0,1,0.8,1.9,1.9,1.9c1,0,1.9-0.8,1.9-1.9h1C7.3,85.1,6,86.4,4.4,86.4z"
		/>
	<path fill="#F4815F" d="M9.2,86.4c-1.6,0-2.9-1.3-2.9-2.9h1c0,1,0.8,1.9,1.9,1.9s1.9-0.8,1.9-1.9h1C12.1,85.1,10.8,86.4,9.2,86.4z"
		/>
	<path fill="#F4815F" d="M14,86.4c-1.6,0-2.9-1.3-2.9-2.9h1c0,1,0.8,1.9,1.9,1.9s1.9-0.8,1.9-1.9h1C16.8,85.1,15.6,86.4,14,86.4z"/>
	<path fill="#F4815F" d="M18.7,86.4c-1.6,0-2.9-1.3-2.9-2.9h1c0,1,0.8,1.9,1.9,1.9c1,0,1.9-0.8,1.9-1.9h1
		C21.6,85.1,20.3,86.4,18.7,86.4z"/>
	<path fill="#F4815F" d="M23.5,86.4c-1.6,0-2.9-1.3-2.9-2.9h1c0,1,0.8,1.9,1.9,1.9c1,0,1.9-0.8,1.9-1.9h1
		C26.4,85.1,25.1,86.4,23.5,86.4z"/>
	<path fill="#F4815F" d="M28.3,86.4c-1.6,0-2.9-1.3-2.9-2.9h1c0,1,0.8,1.9,1.9,1.9c1,0,1.9-0.8,1.9-1.9h1
		C31.1,85.1,29.8,86.4,28.3,86.4z"/>
	<path fill="#F4815F" d="M33,86.4c-1.6,0-2.9-1.3-2.9-2.9h1c0,1,0.8,1.9,1.9,1.9c1,0,1.9-0.8,1.9-1.9h1C35.9,85.1,34.6,86.4,33,86.4
		z"/>
	<path fill="#F4815F" d="M37.8,86.4c-1.6,0-2.9-1.3-2.9-2.9h1c0,1,0.8,1.9,1.9,1.9c1,0,1.9-0.8,1.9-1.9h1
		C40.7,85.1,39.4,86.4,37.8,86.4z"/>
	<path fill="#F4815F" d="M42.6,86.4c-1.6,0-2.9-1.3-2.9-2.9h1c0,1,0.8,1.9,1.9,1.9c1,0,1.9-0.8,1.9-1.9h1
		C45.4,85.1,44.1,86.4,42.6,86.4z"/>
	<path fill="#F4815F" d="M47.3,86.4c-1.6,0-2.9-1.3-2.9-2.9h1c0,1,0.8,1.9,1.9,1.9c1,0,1.9-0.8,1.9-1.9h1
		C50.2,85.1,48.9,86.4,47.3,86.4z"/>
	<path fill="#F4815F" d="M52.1,86.4c-1.6,0-2.9-1.3-2.9-2.9h1c0,1,0.8,1.9,1.9,1.9c1,0,1.9-0.8,1.9-1.9h1
		C54.9,85.1,53.7,86.4,52.1,86.4z"/>
	<path fill="#F4815F" d="M56.8,85.4c-1,0-1.9-0.9-1.9-1.9h-1c0,1.6,1.3,2.9,2.9,2.9c0.1,0,0.1,0,0.2,0
		C56.9,86.1,56.9,85.7,56.8,85.4z"/>
	<path fill="#F4815F" d="M71.1,85.4c-0.6,0-1.2-0.3-1.5-0.8c0,0.4,0,0.9-0.1,1.3c0.5,0.3,1,0.5,1.6,0.5c1.6,0,2.9-1.3,2.9-2.9h-1
		C73,84.6,72.2,85.4,71.1,85.4z"/>
	<path fill="#F4815F" d="M75.9,86.4c-1.6,0-2.9-1.3-2.9-2.9h1c0,1,0.8,1.9,1.9,1.9s1.9-0.8,1.9-1.9h1C78.8,85.1,77.5,86.4,75.9,86.4
		z"/>
	<path fill="#F4815F" d="M80.7,86.4c-1.6,0-2.9-1.3-2.9-2.9h1c0,1,0.8,1.9,1.9,1.9c1,0,1.9-0.8,1.9-1.9h1
		C83.5,85.1,82.2,86.4,80.7,86.4z"/>
	<path fill="#F4815F" d="M87.3,83.7c-0.1,1-0.9,1.7-1.9,1.7c-1,0-1.9-0.8-1.9-1.9h-1c0,1.6,1.3,2.9,2.9,2.9c1.5,0,2.7-1.1,2.8-2.5
		C87.9,83.8,87.6,83.8,87.3,83.7z"/>
	<path fill="#F4815F" d="M91.9,84.3c-0.3,0.7-1,1.1-1.7,1.1c-0.9,0-1.7-0.7-1.9-1.6c-0.3,0-0.7-0.1-1-0.2c0.1,1.5,1.3,2.7,2.9,2.7
		c1.3,0,2.4-0.9,2.7-2C92.6,84.3,92.2,84.3,91.9,84.3z"/>
	<path fill="#F4815F" d="M96.5,84.6c-0.3,0.5-0.9,0.9-1.6,0.9c-0.7,0-1.4-0.4-1.7-1c-0.4,0-0.7-0.1-1.1-0.1c0.3,1.2,1.4,2.1,2.7,2.1
		c1.2,0,2.2-0.8,2.7-1.8C97.2,84.6,96.9,84.6,96.5,84.6z"/>
	<path fill="#F4815F" d="M101.3,84.5c-0.3,0.5-0.9,0.9-1.6,0.9c-0.6,0-1.2-0.3-1.6-0.8c-0.4,0-0.7,0-1.1,0c0.4,1.1,1.5,1.8,2.7,1.8
		c1.2,0,2.3-0.8,2.7-1.9C102,84.5,101.7,84.5,101.3,84.5z"/>
	<path fill="#F4815F" d="M106.3,84.1c-0.2,0.8-1,1.3-1.8,1.3c-0.7,0-1.3-0.4-1.6-1c-0.3,0-0.7,0-1,0.1c0.4,1.1,1.4,1.9,2.7,1.9
		c1.4,0,2.6-1.1,2.8-2.4C107,84,106.6,84.1,106.3,84.1z"/>
	<path fill="#F4815F" d="M111.6,84.6c-0.1-0.3-0.1-0.7-0.1-1h-0.4c0,1-0.8,1.9-1.9,1.9c-0.9,0-1.6-0.6-1.8-1.5c-0.3,0-0.7,0.1-1,0.1
		c0.3,1.3,1.4,2.3,2.8,2.3c1,0,1.9-0.6,2.4-1.4C111.7,84.9,111.6,84.7,111.6,84.6z"/>
	<path fill="#F4815F" d="M128.3,86.4c-1.6,0-2.9-1.3-2.9-2.9h1c0,1,0.8,1.9,1.9,1.9s1.9-0.8,1.9-1.9h1
		C131.2,85.1,129.9,86.4,128.3,86.4z"/>
	<path fill="#F4815F" d="M133,86.4c-1.6,0-2.9-1.3-2.9-2.9h1c0,1,0.8,1.9,1.9,1.9s1.9-0.8,1.9-1.9h1C135.9,85.1,134.6,86.4,133,86.4
		z"/>
	<path fill="#F4815F" d="M137.8,86.4c-1.6,0-2.9-1.3-2.9-2.9h1c0,1,0.8,1.9,1.9,1.9c1,0,1.9-0.8,1.9-1.9h1
		C140.7,85.1,139.4,86.4,137.8,86.4z"/>
	<path fill="#F4815F" d="M142.6,86.4c-1.6,0-2.9-1.3-2.9-2.9h1c0,1,0.8,1.9,1.9,1.9s1.9-0.8,1.9-1.9h1
		C145.4,85.1,144.2,86.4,142.6,86.4z"/>
	<path fill="#F4815F" d="M147.3,86.4c-1.6,0-2.9-1.3-2.9-2.9h1c0,1,0.8,1.9,1.9,1.9c1,0,1.9-0.8,1.9-1.9h1
		C150.2,85.1,148.9,86.4,147.3,86.4z"/>
	<path fill="#F4815F" d="M152.1,86.4c-1.6,0-2.9-1.3-2.9-2.9h1c0,1,0.8,1.9,1.9,1.9s1.9-0.8,1.9-1.9h1
		C155,85.1,153.7,86.4,152.1,86.4z"/>
	<path fill="#F4815F" d="M156.9,86.4c-1.6,0-2.9-1.3-2.9-2.9h1c0,1,0.8,1.9,1.9,1.9c1,0,1.9-0.8,1.9-1.9h1
		C159.7,85.1,158.4,86.4,156.9,86.4z"/>
	<path fill="#F4815F" d="M161.6,86.4c-1.6,0-2.9-1.3-2.9-2.9h1c0,1,0.8,1.9,1.9,1.9c1,0,1.9-0.8,1.9-1.9h1
		C164.5,85.1,163.2,86.4,161.6,86.4z"/>
	<path fill="#F4815F" d="M166.4,86.4c-1.6,0-2.9-1.3-2.9-2.9h1c0,1,0.8,1.9,1.9,1.9s1.9-0.8,1.9-1.9h1
		C169.3,85.1,168,86.4,166.4,86.4z"/>
	<path fill="#F4815F" d="M171.1,86.4c-1.6,0-2.9-1.3-2.9-2.9h1c0,1,0.8,1.9,1.9,1.9c1,0,1.9-0.8,1.9-1.9h1
		C174,85.1,172.7,86.4,171.1,86.4z"/>
	<path fill="#F4815F" d="M175.9,86.4c-1.6,0-2.9-1.3-2.9-2.9h1c0,1,0.8,1.9,1.9,1.9c1,0,1.9-0.8,1.9-1.9h1
		C178.8,85.1,177.5,86.4,175.9,86.4z"/>
	<path fill="#F4815F" d="M180.7,86.4c-1.6,0-2.9-1.3-2.9-2.9h1c0,1,0.8,1.9,1.9,1.9c1,0,1.9-0.8,1.9-1.9h1
		C183.5,85.1,182.3,86.4,180.7,86.4z"/>
	<path fill="#F4815F" d="M185.4,86.4c-1.6,0-2.9-1.3-2.9-2.9h1c0,1,0.8,1.9,1.9,1.9s1.9-0.8,1.9-1.9h1
		C188.3,85.1,187,86.4,185.4,86.4z"/>
	<path fill="#F4815F" d="M190.2,86.4c-1.6,0-2.9-1.3-2.9-2.9h1c0,1,0.8,1.9,1.9,1.9c1,0,1.9-0.8,1.9-1.9h1
		C193.1,85.1,191.8,86.4,190.2,86.4z"/>
	<path fill="#F4815F" d="M195,86.4c-1.6,0-2.9-1.3-2.9-2.9h1c0,1,0.8,1.9,1.9,1.9s1.9-0.8,1.9-1.9h1C197.8,85.1,196.5,86.4,195,86.4
		z"/>
	<path fill="#F4815F" d="M199.7,86.4c-1.6,0-2.9-1.3-2.9-2.9h1c0,1,0.8,1.9,1.9,1.9c1,0,1.9-0.8,1.9-1.9h1
		C202.6,85.1,201.3,86.4,199.7,86.4z"/>
	<path fill="#F4815F" d="M6.9,88.8c-1.6,0-2.9-1.3-2.9-2.9h1c0,1,0.8,1.9,1.9,1.9s1.9-0.8,1.9-1.9h1C9.7,87.5,8.4,88.8,6.9,88.8z"/>
	<path fill="#F4815F" d="M11.6,88.8c-1.6,0-2.9-1.3-2.9-2.9h1c0,1,0.8,1.9,1.9,1.9c1,0,1.9-0.8,1.9-1.9h1
		C14.5,87.5,13.2,88.8,11.6,88.8z"/>
	<path fill="#F4815F" d="M16.4,88.8c-1.6,0-2.9-1.3-2.9-2.9h1c0,1,0.8,1.9,1.9,1.9s1.9-0.8,1.9-1.9h1C19.3,87.5,18,88.8,16.4,88.8z"
		/>
	<path fill="#F4815F" d="M21.2,88.8c-1.6,0-2.9-1.3-2.9-2.9h1c0,1,0.8,1.9,1.9,1.9c1,0,1.9-0.8,1.9-1.9h1
		C24,87.5,22.7,88.8,21.2,88.8z"/>
	<path fill="#F4815F" d="M25.9,88.8c-1.6,0-2.9-1.3-2.9-2.9h1c0,1,0.8,1.9,1.9,1.9c1,0,1.9-0.8,1.9-1.9h1
		C28.8,87.5,27.5,88.8,25.9,88.8z"/>
	<path fill="#F4815F" d="M30.7,88.8c-1.6,0-2.9-1.3-2.9-2.9h1c0,1,0.8,1.9,1.9,1.9c1,0,1.9-0.8,1.9-1.9h1
		C33.5,87.5,32.3,88.8,30.7,88.8z"/>
	<path fill="#F4815F" d="M35.4,88.8c-1.6,0-2.9-1.3-2.9-2.9h1c0,1,0.8,1.9,1.9,1.9s1.9-0.8,1.9-1.9h1C38.3,87.5,37,88.8,35.4,88.8z"
		/>
	<path fill="#F4815F" d="M40.2,88.8c-1.6,0-2.9-1.3-2.9-2.9h1c0,1,0.8,1.9,1.9,1.9c1,0,1.9-0.8,1.9-1.9h1
		C43.1,87.5,41.8,88.8,40.2,88.8z"/>
	<path fill="#F4815F" d="M45,88.8c-1.6,0-2.9-1.3-2.9-2.9h1c0,1,0.8,1.9,1.9,1.9s1.9-0.8,1.9-1.9h1C47.8,87.5,46.5,88.8,45,88.8z"/>
	<path fill="#F4815F" d="M49.7,88.8c-1.6,0-2.9-1.3-2.9-2.9h1c0,1,0.8,1.9,1.9,1.9c1,0,1.9-0.8,1.9-1.9h1
		C52.6,87.5,51.3,88.8,49.7,88.8z"/>
	<path fill="#F4815F" d="M56.9,85.9h-0.5c0,1-0.8,1.9-1.9,1.9c-1,0-1.9-0.8-1.9-1.9h-1c0,1.6,1.3,2.9,2.9,2.9c1.2,0,2.1-0.7,2.6-1.7
		C57.1,86.7,57,86.3,56.9,85.9z"/>
	<path fill="#F4815F" d="M73.5,88.8c-1.6,0-2.9-1.3-2.9-2.9h1c0,1,0.8,1.9,1.9,1.9c1,0,1.9-0.8,1.9-1.9h1
		C76.4,87.5,75.1,88.8,73.5,88.8z"/>
	<path fill="#F4815F" d="M78.3,88.8c-1.6,0-2.9-1.3-2.9-2.9h1c0,1,0.8,1.9,1.9,1.9s1.9-0.8,1.9-1.9h1C81.2,87.5,79.9,88.8,78.3,88.8
		z"/>
	<path fill="#F4815F" d="M83.1,88.8c-1.6,0-2.9-1.3-2.9-2.9h1c0,1,0.8,1.9,1.9,1.9S85,87,85,85.9h1C85.9,87.5,84.7,88.8,83.1,88.8z"
		/>
	<path fill="#F4815F" d="M87.8,88.8c-1.6,0-2.9-1.3-2.9-2.9h1c0,1,0.8,1.9,1.9,1.9c1,0,1.9-0.8,1.9-1.9h1
		C90.7,87.5,89.4,88.8,87.8,88.8z"/>
	<path fill="#F4815F" d="M92.6,88.8c-1.6,0-2.9-1.3-2.9-2.9h1c0,1,0.8,1.9,1.9,1.9s1.9-0.8,1.9-1.9h1C95.5,87.5,94.2,88.8,92.6,88.8
		z"/>
	<path fill="#F4815F" d="M97.4,88.8c-1.6,0-2.9-1.3-2.9-2.9h1c0,1,0.8,1.9,1.9,1.9c1,0,1.9-0.8,1.9-1.9h1
		C100.2,87.5,98.9,88.8,97.4,88.8z"/>
	<path fill="#F4815F" d="M102.1,88.8c-1.6,0-2.9-1.3-2.9-2.9h1c0,1,0.8,1.9,1.9,1.9s1.9-0.8,1.9-1.9h1
		C105,87.5,103.7,88.8,102.1,88.8z"/>
	<path fill="#F4815F" d="M106.9,88.8c-1.6,0-2.9-1.3-2.9-2.9h1c0,1,0.8,1.9,1.9,1.9c1,0,1.9-0.8,1.9-1.9h1
		C109.8,87.5,108.5,88.8,106.9,88.8z"/>
	<path fill="#F4815F" d="M112.4,87.6c-0.2,0.1-0.5,0.2-0.8,0.2c-1,0-1.9-0.8-1.9-1.9h-1c0,1.6,1.3,2.9,2.9,2.9
		c0.4,0,0.8-0.1,1.2-0.3C112.7,88.2,112.5,87.9,112.4,87.6z"/>
	<path fill="#F4815F" d="M127.8,85.9c0,1-0.8,1.9-1.9,1.9c-0.5,0-1-0.2-1.3-0.5c0,0.4-0.1,0.7-0.3,1c0.5,0.3,1,0.5,1.6,0.5
		c1.6,0,2.9-1.3,2.9-2.9H127.8z"/>
	<path fill="#F4815F" d="M130.7,88.8c-1.6,0-2.9-1.3-2.9-2.9h1c0,1,0.8,1.9,1.9,1.9c1,0,1.9-0.8,1.9-1.9h1
		C133.6,87.5,132.3,88.8,130.7,88.8z"/>
	<path fill="#F4815F" d="M135.5,88.8c-1.6,0-2.9-1.3-2.9-2.9h1c0,1,0.8,1.9,1.9,1.9s1.9-0.8,1.9-1.9h1
		C138.3,87.5,137,88.8,135.5,88.8z"/>
	<path fill="#F4815F" d="M140.2,88.8c-1.6,0-2.9-1.3-2.9-2.9h1c0,1,0.8,1.9,1.9,1.9c1,0,1.9-0.8,1.9-1.9h1
		C143.1,87.5,141.8,88.8,140.2,88.8z"/>
	<path fill="#F4815F" d="M145,88.8c-1.6,0-2.9-1.3-2.9-2.9h1c0,1,0.8,1.9,1.9,1.9s1.9-0.8,1.9-1.9h1C147.9,87.5,146.6,88.8,145,88.8
		z"/>
	<path fill="#F4815F" d="M149.7,88.8c-1.6,0-2.9-1.3-2.9-2.9h1c0,1,0.8,1.9,1.9,1.9c1,0,1.9-0.8,1.9-1.9h1
		C152.6,87.5,151.3,88.8,149.7,88.8z"/>
	<path fill="#F4815F" d="M154.5,88.8c-1.6,0-2.9-1.3-2.9-2.9h1c0,1,0.8,1.9,1.9,1.9s1.9-0.8,1.9-1.9h1
		C157.4,87.5,156.1,88.8,154.5,88.8z"/>
	<path fill="#F4815F" d="M159.3,88.8c-1.6,0-2.9-1.3-2.9-2.9h1c0,1,0.8,1.9,1.9,1.9c1,0,1.9-0.8,1.9-1.9h1
		C162.1,87.5,160.9,88.8,159.3,88.8z"/>
	<path fill="#F4815F" d="M164,88.8c-1.6,0-2.9-1.3-2.9-2.9h1c0,1,0.8,1.9,1.9,1.9s1.9-0.8,1.9-1.9h1C166.9,87.5,165.6,88.8,164,88.8
		z"/>
	<path fill="#F4815F" d="M168.8,88.8c-1.6,0-2.9-1.3-2.9-2.9h1c0,1,0.8,1.9,1.9,1.9s1.9-0.8,1.9-1.9h1
		C171.7,87.5,170.4,88.8,168.8,88.8z"/>
	<path fill="#F4815F" d="M173.6,88.8c-1.6,0-2.9-1.3-2.9-2.9h1c0,1,0.8,1.9,1.9,1.9c1,0,1.9-0.8,1.9-1.9h1
		C176.4,87.5,175.1,88.8,173.6,88.8z"/>
	<path fill="#F4815F" d="M178.3,88.8c-1.6,0-2.9-1.3-2.9-2.9h1c0,1,0.8,1.9,1.9,1.9s1.9-0.8,1.9-1.9h1
		C181.2,87.5,179.9,88.8,178.3,88.8z"/>
	<path fill="#F4815F" d="M183.1,88.8c-1.6,0-2.9-1.3-2.9-2.9h1c0,1,0.8,1.9,1.9,1.9c1,0,1.9-0.8,1.9-1.9h1
		C186,87.5,184.7,88.8,183.1,88.8z"/>
	<path fill="#F4815F" d="M187.9,88.8c-1.6,0-2.9-1.3-2.9-2.9h1c0,1,0.8,1.9,1.9,1.9s1.9-0.8,1.9-1.9h1
		C190.7,87.5,189.4,88.8,187.9,88.8z"/>
	<path fill="#F4815F" d="M192.6,88.8c-1.6,0-2.9-1.3-2.9-2.9h1c0,1,0.8,1.9,1.9,1.9c1,0,1.9-0.8,1.9-1.9h1
		C195.5,87.5,194.2,88.8,192.6,88.8z"/>
	<path fill="#F4815F" d="M197.4,88.8c-1.6,0-2.9-1.3-2.9-2.9h1c0,1,0.8,1.9,1.9,1.9s1.9-0.8,1.9-1.9h1
		C200.2,87.5,199,88.8,197.4,88.8z"/>
	<path fill="#F4815F" d="M4.4,91.2c-1.6,0-2.9-1.3-2.9-2.9h1c0,1,0.8,1.9,1.9,1.9c1,0,1.9-0.8,1.9-1.9h1C7.3,89.9,6,91.2,4.4,91.2z"
		/>
	<path fill="#F4815F" d="M9.2,91.2c-1.6,0-2.9-1.3-2.9-2.9h1c0,1,0.8,1.9,1.9,1.9s1.9-0.8,1.9-1.9h1C12.1,89.9,10.8,91.2,9.2,91.2z"
		/>
	<path fill="#F4815F" d="M14,91.2c-1.6,0-2.9-1.3-2.9-2.9h1c0,1,0.8,1.9,1.9,1.9s1.9-0.8,1.9-1.9h1C16.8,89.9,15.6,91.2,14,91.2z"/>
	<path fill="#F4815F" d="M18.7,91.2c-1.6,0-2.9-1.3-2.9-2.9h1c0,1,0.8,1.9,1.9,1.9c1,0,1.9-0.8,1.9-1.9h1
		C21.6,89.9,20.3,91.2,18.7,91.2z"/>
	<path fill="#F4815F" d="M23.5,91.2c-1.6,0-2.9-1.3-2.9-2.9h1c0,1,0.8,1.9,1.9,1.9c1,0,1.9-0.8,1.9-1.9h1
		C26.4,89.9,25.1,91.2,23.5,91.2z"/>
	<path fill="#F4815F" d="M28.3,91.2c-1.6,0-2.9-1.3-2.9-2.9h1c0,1,0.8,1.9,1.9,1.9c1,0,1.9-0.8,1.9-1.9h1
		C31.1,89.9,29.8,91.2,28.3,91.2z"/>
	<path fill="#F4815F" d="M33,91.2c-1.6,0-2.9-1.3-2.9-2.9h1c0,1,0.8,1.9,1.9,1.9c1,0,1.9-0.8,1.9-1.9h1C35.9,89.9,34.6,91.2,33,91.2
		z"/>
	<path fill="#F4815F" d="M37.8,91.2c-1.6,0-2.9-1.3-2.9-2.9h1c0,1,0.8,1.9,1.9,1.9c1,0,1.9-0.8,1.9-1.9h1
		C40.7,89.9,39.4,91.2,37.8,91.2z"/>
	<path fill="#F4815F" d="M42.6,91.2c-1.6,0-2.9-1.3-2.9-2.9h1c0,1,0.8,1.9,1.9,1.9c1,0,1.9-0.8,1.9-1.9h1
		C45.4,89.9,44.1,91.2,42.6,91.2z"/>
	<path fill="#F4815F" d="M47.3,91.2c-1.6,0-2.9-1.3-2.9-2.9h1c0,1,0.8,1.9,1.9,1.9c1,0,1.9-0.8,1.9-1.9h1
		C50.2,89.9,48.9,91.2,47.3,91.2z"/>
	<path fill="#F4815F" d="M52.1,91.2c-1.6,0-2.9-1.3-2.9-2.9h1c0,1,0.8,1.9,1.9,1.9c1,0,1.9-0.8,1.9-1.9h1
		C54.9,89.9,53.7,91.2,52.1,91.2z"/>
	<path fill="#F4815F" d="M58.1,89.7c-0.3,0.3-0.8,0.5-1.3,0.5c-1,0-1.9-0.8-1.9-1.9h-1c0,1.6,1.3,2.9,2.9,2.9c0.8,0,1.6-0.4,2.1-0.9
		C58.6,90.1,58.4,89.9,58.1,89.7z"/>
	<path fill="#F4815F" d="M59.8,90.5c0.5,0.4,1.1,0.6,1.8,0.6c0.4,0,0.9-0.1,1.2-0.3C61.8,90.8,60.8,90.7,59.8,90.5z"/>
	<path fill="#F4815F" d="M66.1,91.1c0.1,0,0.2,0,0.2,0c1.5,0,2.8-1.2,2.9-2.7C68.8,89.9,67.7,91.1,66.1,91.1z"/>
	<path fill="#F4815F" d="M71.1,90.2c-1,0-1.8-0.8-1.9-1.8c-0.1,0.5-0.3,0.9-0.6,1.3c0.5,0.9,1.4,1.5,2.5,1.5c1.6,0,2.9-1.3,2.9-2.9
		h-1C73,89.3,72.2,90.2,71.1,90.2z"/>
	<path fill="#F4815F" d="M75.9,91.2c-1.6,0-2.9-1.3-2.9-2.9h1c0,1,0.8,1.9,1.9,1.9s1.9-0.8,1.9-1.9h1C78.8,89.9,77.5,91.2,75.9,91.2
		z"/>
	<path fill="#F4815F" d="M80.7,91.2c-1.6,0-2.9-1.3-2.9-2.9h1c0,1,0.8,1.9,1.9,1.9c1,0,1.9-0.8,1.9-1.9h1
		C83.5,89.9,82.2,91.2,80.7,91.2z"/>
	<path fill="#F4815F" d="M85.4,91.2c-1.6,0-2.9-1.3-2.9-2.9h1c0,1,0.8,1.9,1.9,1.9s1.9-0.8,1.9-1.9h1C88.3,89.9,87,91.2,85.4,91.2z"
		/>
	<path fill="#F4815F" d="M90.2,91.2c-1.6,0-2.9-1.3-2.9-2.9h1c0,1,0.8,1.9,1.9,1.9s1.9-0.8,1.9-1.9h1C93.1,89.9,91.8,91.2,90.2,91.2
		z"/>
	<path fill="#F4815F" d="M94.9,91.2c-1.6,0-2.9-1.3-2.9-2.9h1c0,1,0.8,1.9,1.9,1.9c1,0,1.9-0.8,1.9-1.9h1
		C97.8,89.9,96.5,91.2,94.9,91.2z"/>
	<path fill="#F4815F" d="M99.7,91.2c-1.6,0-2.9-1.3-2.9-2.9h1c0,1,0.8,1.9,1.9,1.9s1.9-0.8,1.9-1.9h1
		C102.6,89.9,101.3,91.2,99.7,91.2z"/>
	<path fill="#F4815F" d="M104.5,91.2c-1.6,0-2.9-1.3-2.9-2.9h1c0,1,0.8,1.9,1.9,1.9c1,0,1.9-0.8,1.9-1.9h1
		C107.3,89.9,106.1,91.2,104.5,91.2z"/>
	<path fill="#F4815F" d="M109.2,91.2c-1.6,0-2.9-1.3-2.9-2.9h1c0,1,0.8,1.9,1.9,1.9s1.9-0.8,1.9-1.9h1
		C112.1,89.9,110.8,91.2,109.2,91.2z"/>
	<path fill="#F4815F" d="M114.2,90.2c-0.1,0-0.1,0-0.2,0c-1,0-1.9-0.8-1.9-1.9h-1c0,1.6,1.3,2.9,2.9,2.9c0.5,0,0.9-0.1,1.3-0.3
		C114.9,90.7,114.5,90.4,114.2,90.2z"/>
	<path fill="#F4815F" d="M125.4,88.3c0,1-0.8,1.9-1.9,1.9c-0.2,0-0.5-0.1-0.7-0.1c-0.1,0.1-0.2,0.1-0.3,0.2
		c-0.3,0.1-0.5,0.2-0.8,0.2c0.5,0.4,1.2,0.7,1.9,0.7c1.6,0,2.9-1.3,2.9-2.9H125.4z"/>
	<path fill="#F4815F" d="M128.3,91.2c-1.6,0-2.9-1.3-2.9-2.9h1c0,1,0.8,1.9,1.9,1.9s1.9-0.8,1.9-1.9h1
		C131.2,89.9,129.9,91.2,128.3,91.2z"/>
	<path fill="#F4815F" d="M133,91.2c-1.6,0-2.9-1.3-2.9-2.9h1c0,1,0.8,1.9,1.9,1.9s1.9-0.8,1.9-1.9h1C135.9,89.9,134.6,91.2,133,91.2
		z"/>
	<path fill="#F4815F" d="M137.8,91.2c-1.6,0-2.9-1.3-2.9-2.9h1c0,1,0.8,1.9,1.9,1.9c1,0,1.9-0.8,1.9-1.9h1
		C140.7,89.9,139.4,91.2,137.8,91.2z"/>
	<path fill="#F4815F" d="M142.6,91.2c-1.6,0-2.9-1.3-2.9-2.9h1c0,1,0.8,1.9,1.9,1.9s1.9-0.8,1.9-1.9h1
		C145.4,89.9,144.2,91.2,142.6,91.2z"/>
	<path fill="#F4815F" d="M147.3,91.2c-1.6,0-2.9-1.3-2.9-2.9h1c0,1,0.8,1.9,1.9,1.9c1,0,1.9-0.8,1.9-1.9h1
		C150.2,89.9,148.9,91.2,147.3,91.2z"/>
	<path fill="#F4815F" d="M152.1,91.2c-1.6,0-2.9-1.3-2.9-2.9h1c0,1,0.8,1.9,1.9,1.9s1.9-0.8,1.9-1.9h1
		C155,89.9,153.7,91.2,152.1,91.2z"/>
	<path fill="#F4815F" d="M156.9,91.2c-1.6,0-2.9-1.3-2.9-2.9h1c0,1,0.8,1.9,1.9,1.9c1,0,1.9-0.8,1.9-1.9h1
		C159.7,89.9,158.4,91.2,156.9,91.2z"/>
	<path fill="#F4815F" d="M161.6,91.2c-1.6,0-2.9-1.3-2.9-2.9h1c0,1,0.8,1.9,1.9,1.9c1,0,1.9-0.8,1.9-1.9h1
		C164.5,89.9,163.2,91.2,161.6,91.2z"/>
	<path fill="#F4815F" d="M166.4,91.2c-1.6,0-2.9-1.3-2.9-2.9h1c0,1,0.8,1.9,1.9,1.9s1.9-0.8,1.9-1.9h1
		C169.3,89.9,168,91.2,166.4,91.2z"/>
	<path fill="#F4815F" d="M171.1,91.2c-1.6,0-2.9-1.3-2.9-2.9h1c0,1,0.8,1.9,1.9,1.9c1,0,1.9-0.8,1.9-1.9h1
		C174,89.9,172.7,91.2,171.1,91.2z"/>
	<path fill="#F4815F" d="M175.9,91.2c-1.6,0-2.9-1.3-2.9-2.9h1c0,1,0.8,1.9,1.9,1.9c1,0,1.9-0.8,1.9-1.9h1
		C178.8,89.9,177.5,91.2,175.9,91.2z"/>
	<path fill="#F4815F" d="M180.7,91.2c-1.6,0-2.9-1.3-2.9-2.9h1c0,1,0.8,1.9,1.9,1.9c1,0,1.9-0.8,1.9-1.9h1
		C183.5,89.9,182.3,91.2,180.7,91.2z"/>
	<path fill="#F4815F" d="M185.4,91.2c-1.6,0-2.9-1.3-2.9-2.9h1c0,1,0.8,1.9,1.9,1.9s1.9-0.8,1.9-1.9h1
		C188.3,89.9,187,91.2,185.4,91.2z"/>
	<path fill="#F4815F" d="M190.2,91.2c-1.6,0-2.9-1.3-2.9-2.9h1c0,1,0.8,1.9,1.9,1.9c1,0,1.9-0.8,1.9-1.9h1
		C193.1,89.9,191.8,91.2,190.2,91.2z"/>
	<path fill="#F4815F" d="M195,91.2c-1.6,0-2.9-1.3-2.9-2.9h1c0,1,0.8,1.9,1.9,1.9s1.9-0.8,1.9-1.9h1C197.8,89.9,196.5,91.2,195,91.2
		z"/>
	<path fill="#F4815F" d="M199.7,91.2c-1.6,0-2.9-1.3-2.9-2.9h1c0,1,0.8,1.9,1.9,1.9c1,0,1.9-0.8,1.9-1.9h1
		C202.6,89.9,201.3,91.2,199.7,91.2z"/>
</g>
<g>
	<path fill="#F1F2F2" d="M97.2,3.5c-0.4,0-0.8,0.3-0.8,0.8c0,5.3-4.3,9.5-9.5,9.5c-4.2,0-7.7-2.7-9-6.5C77.5,7.5,77,7.8,76.5,8
		c1.5,4.3,5.6,7.3,10.4,7.3c6.1,0,11.1-5,11.1-11.1C98,3.8,97.7,3.5,97.2,3.5z"/>
	<path fill="#F1F2F2" d="M94.1,3.7c-0.3,0-0.6,0.3-0.6,0.6c0,3.6-2.9,6.6-6.6,6.6c-3,0-5.5-2-6.3-4.7c-0.4,0.2-0.8,0.3-1.1,0.5
		c1,3.1,3.9,5.4,7.4,5.4c4.3,0,7.8-3.5,7.8-7.8C94.7,3.9,94.4,3.7,94.1,3.7z"/>
	<path fill="#F1F2F2" d="M91,3.8c-0.3,0-0.5,0.2-0.5,0.5c0,2-1.6,3.6-3.6,3.6c-1.7,0-3.2-1.2-3.5-2.9c-0.3,0.1-0.6,0.2-0.9,0.3
		c0.5,2,2.2,3.5,4.4,3.5c2.5,0,4.5-2,4.5-4.5C91.4,4,91.2,3.8,91,3.8z"/>
	<path fill="#F1F2F2" d="M123.1,5.7c-0.7,4.6-4.6,8.1-9.4,8.1c-5.3,0-9.5-4.3-9.5-9.5c0-0.4-0.3-0.8-0.8-0.8s-0.8,0.3-0.8,0.8
		c0,6.1,5,11.1,11.1,11.1c5.4,0,10-3.9,10.9-9.1C124.1,6,123.6,5.9,123.1,5.7z"/>
	<path fill="#F1F2F2" d="M120.2,4.9c-0.3,3.3-3.1,5.9-6.5,5.9c-3.6,0-6.6-2.9-6.6-6.6c0-0.3-0.3-0.6-0.6-0.6s-0.6,0.3-0.6,0.6
		c0,4.3,3.5,7.8,7.8,7.8c4,0,7.3-3,7.7-6.8C121,5.1,120.6,5,120.2,4.9z"/>
	<path fill="#F1F2F2" d="M117.3,4.4c-0.1,1.9-1.6,3.5-3.6,3.5c-2,0-3.6-1.6-3.6-3.6c0-0.3-0.2-0.5-0.5-0.5c-0.3,0-0.5,0.2-0.5,0.5
		c0,2.5,2,4.5,4.5,4.5c2.4,0,4.4-1.9,4.5-4.3C117.9,4.5,117.6,4.4,117.3,4.4z"/>
	<path fill="#F1F2F2" d="M148.4,9.6c-1.7,2.5-4.6,4.2-7.9,4.2c-3.2,0-6-1.6-7.8-4c-0.8-0.4-1.6-0.7-2.4-1.1
		c1.7,3.9,5.6,6.7,10.1,6.7c4.3,0,8-2.5,9.9-6.1C149.7,9.3,149,9.4,148.4,9.6z"/>
	<path fill="#F1F2F2" d="M145.2,10.4c-0.6,0.2-1.2,0.4-1.8,0.7c-0.8,0.3-1.4,0.6-1.9,0.9C142.9,11.8,144.2,11.2,145.2,10.4z"/>
	<path fill="#F1F2F2" d="M73.6,22.2c2.5,0,4.5-2,4.5-4.5c0-0.3-0.2-0.5-0.5-0.5c-0.3,0-0.5,0.2-0.5,0.5c0,2-1.6,3.6-3.6,3.6
		S70,19.7,70,17.7c0-0.3-0.2-0.5-0.5-0.5c-0.3,0-0.5,0.2-0.5,0.5C69.1,20.2,71.1,22.2,73.6,22.2z"/>
	<path fill="#F1F2F2" d="M100.3,22.2c2.5,0,4.5-2,4.5-4.5c0-0.3-0.2-0.5-0.5-0.5c-0.3,0-0.5,0.2-0.5,0.5c0,2-1.6,3.6-3.6,3.6
		s-3.6-1.6-3.6-3.6c0-0.3-0.2-0.5-0.5-0.5c-0.3,0-0.5,0.2-0.5,0.5C95.8,20.2,97.8,22.2,100.3,22.2z"/>
	<path fill="#F1F2F2" d="M127.1,22.2c2.5,0,4.5-2,4.5-4.5c0-0.3-0.2-0.5-0.5-0.5c-0.3,0-0.5,0.2-0.5,0.5c0,2-1.6,3.6-3.6,3.6
		c-2,0-3.6-1.6-3.6-3.6c0-0.3-0.2-0.5-0.5-0.5c-0.3,0-0.5,0.2-0.5,0.5C122.6,20.2,124.6,22.2,127.1,22.2z"/>
	<path fill="#F1F2F2" d="M140.5,43.6c-6.6,0-12-5.1-12.4-11.6c0.5,0,1-0.1,1.4-0.2c0.4,5.8,5.2,10.3,11,10.3c5.9,0,10.7-4.6,11-10.3
		c0.3,0,0.6,0.1,0.9,0.1c-0.1-0.4-0.2-0.7-0.4-1.1c-0.1-0.3-0.2-0.6-0.4-0.9c-5.6-1-9.8-5.7-10.2-11.4c0.5,0,1-0.1,1.4-0.2
		c0.3,4.7,3.6,8.7,8,9.9c-0.3-0.6-0.4-1.2-0.5-1.8c-3.4-1.4-5.9-4.6-6-8.5c0.6-0.2,1.2-0.4,1.8-0.6c0,0.1-0.1,0.2-0.1,0.2
		c0,3.2,2,6,4.7,7.2c0.2-0.4,0.5-0.7,0.7-1c-2.5-0.9-4.3-3.3-4.3-6.1c0-0.3-0.2-0.5-0.5-0.6c3.4-1.7,6-4.6,7.2-8.2
		c-0.7,0-1.3,0.1-2,0.2c-1.9,4.5-6.3,7.7-11.5,7.7c-5.6,0-10.4-3.8-11.9-8.9c-0.9-0.4-1.7-0.8-2.6-1.1c-1.1,5.7-6.2,10-12.2,10
		c-6.7,0-12.2-5.3-12.5-11.9c0-0.2,0-0.4,0-0.6c0-0.5-0.4-0.9-0.9-0.9c0,0,0,0,0,0c0,0,0,0,0,0c-0.5,0-0.9,0.4-0.9,0.9
		c0,0.2,0,0.4,0,0.6c-0.3,6.6-5.8,11.9-12.5,11.9c-5.3,0-9.9-3.4-11.7-8.1c-0.5,0.3-1.1,0.6-1.6,0.9c1.3,3.3,3.8,6,7,7.6
		c-0.3,0.1-0.5,0.3-0.5,0.6c0,3.6-2.9,6.6-6.6,6.6S67,21.3,67,17.7c0-0.3-0.2-0.5-0.5-0.6c3.1-1.6,5.6-4.2,6.9-7.5
		c-0.7,0.4-1.4,0.8-2,1.2c-0.4,0.3-0.8,0.5-1.2,0.8c-1.4,1.9-3.2,3.3-5.4,4.2c-1,0.8-1.9,1.7-2.8,2.6c0.2,0,0.3,0,0.5-0.1
		c0.4,5.8,5.2,10.3,11,10.3c5.9,0,10.7-4.6,11-10.3c0.5,0.1,0.9,0.1,1.4,0.2c-0.5,6.5-5.9,11.6-12.4,11.6c-6.3,0-11.6-4.8-12.4-10.9
		c-0.5,0.5-1.1,1.1-1.6,1.6c1,4.2,3.8,7.7,7.6,9.6c-0.3,0.1-0.5,0.3-0.5,0.6c0,3.6-2.9,6.6-6.6,6.6c-3.6,0-6.6-2.9-6.6-6.6
		c0-0.1,0-0.2-0.1-0.3c-0.3,0.8-0.6,1.7-0.8,2.5c1,3.2,3.9,5.5,7.4,5.5c4.3,0,7.8-3.5,7.8-7.8c0-0.1,0-0.2-0.1-0.2
		c0.6,0.2,1.2,0.4,1.8,0.6c-0.2,5.1-4.4,9.2-9.5,9.2c-3.3,0-6.3-1.7-8-4.3C52.1,37,52,37.7,52,38.5c2,2.2,4.9,3.7,8.2,3.7
		c5.9,0,10.7-4.6,11-10.3c0.5,0.1,0.9,0.1,1.4,0.2c-0.5,6.5-5.9,11.6-12.5,11.6c-3.2,0-6.1-1.2-8.3-3.2c0,0.8,0,1.6,0,2.3
		c2.4,1.7,5.2,2.7,8.3,2.7c6.1,0,11.3-3.9,13.4-9.2c2.1,5.4,7.3,9.2,13.4,9.2c6.1,0,11.3-3.9,13.4-9.2c2.1,5.4,7.3,9.2,13.4,9.2
		c6.1,0,11.3-3.9,13.4-9.2c2.1,5.4,7.3,9.2,13.4,9.2c6,0,11.2-3.8,13.3-9.1c-0.3-1.1-0.6-2.2-1-3.3C151.8,39,146.7,43.6,140.5,43.6z
		 M73.6,27.2c-5.1,0-9.3-4.1-9.5-9.2c0.6-0.2,1.2-0.4,1.8-0.6c0,0.1-0.1,0.2-0.1,0.2c0,4.3,3.5,7.8,7.8,7.8s7.8-3.5,7.8-7.8
		c0-0.1,0-0.2-0.1-0.2c0.6,0.2,1.2,0.4,1.8,0.6C82.9,23.1,78.7,27.2,73.6,27.2z M150,31.5c-0.2,5.1-4.4,9.2-9.5,9.2
		c-5.1,0-9.3-4.1-9.5-9.2c0.6-0.2,1.2-0.4,1.8-0.6c0,0.1-0.1,0.2-0.1,0.2c0,4.3,3.5,7.8,7.8,7.8c4.3,0,7.8-3.5,7.8-7.8
		c0-0.1,0-0.2-0.1-0.2C148.8,31.1,149.4,31.3,150,31.5z M140.5,22.8c1.3,3.4,3.8,6.1,7,7.7c-0.3,0.1-0.5,0.3-0.5,0.6
		c0,3.6-2.9,6.6-6.6,6.6c-3.6,0-6.6-2.9-6.6-6.6c0-0.3-0.2-0.5-0.5-0.6C136.7,28.9,139.2,26.1,140.5,22.8z M127.1,9.4
		c1.3,3.4,3.8,6.1,7,7.7c-0.3,0.1-0.5,0.3-0.5,0.6c0,3.6-2.9,6.6-6.6,6.6c-3.6,0-6.6-2.9-6.6-6.6c0-0.3-0.2-0.5-0.5-0.6
		C123.3,15.5,125.8,12.7,127.1,9.4z M119.4,17.4c0,0.1-0.1,0.2-0.1,0.2c0,4.3,3.5,7.8,7.8,7.8c4.3,0,7.8-3.5,7.8-7.8
		c0-0.1,0-0.2-0.1-0.2c0.6,0.2,1.2,0.4,1.8,0.6c-0.2,5.1-4.4,9.2-9.5,9.2c-5.1,0-9.3-4.1-9.5-9.2C118.2,17.9,118.8,17.7,119.4,17.4z
		 M120.7,30.5c-0.3,0.1-0.5,0.3-0.5,0.6c0,3.6-2.9,6.6-6.6,6.6c-3.6,0-6.6-2.9-6.6-6.6c0-0.3-0.2-0.5-0.5-0.6c3.2-1.6,5.7-4.4,7-7.7
		C115,26.1,117.5,28.9,120.7,30.5z M121.4,30.8c0.6,0.2,1.2,0.4,1.8,0.6c-0.2,5.1-4.4,9.2-9.5,9.2c-5.1,0-9.3-4.1-9.5-9.2
		c0.6-0.2,1.2-0.4,1.8-0.6c0,0.1-0.1,0.2-0.1,0.2c0,4.3,3.5,7.8,7.8,7.8c4.3,0,7.8-3.5,7.8-7.8C121.5,31,121.5,30.9,121.4,30.8z
		 M100.3,9.4c1.3,3.4,3.8,6.1,7,7.7c-0.3,0.1-0.5,0.3-0.5,0.6c0,3.6-2.9,6.6-6.6,6.6c-3.6,0-6.6-2.9-6.6-6.6c0-0.3-0.2-0.5-0.5-0.6
		C96.5,15.5,99,12.7,100.3,9.4z M92.6,17.4c0,0.1-0.1,0.2-0.1,0.2c0,4.3,3.5,7.8,7.8,7.8s7.8-3.5,7.8-7.8c0-0.1,0-0.2-0.1-0.2
		c0.6,0.2,1.2,0.4,1.8,0.6c-0.2,5.1-4.4,9.2-9.5,9.2c-5.1,0-9.3-4.1-9.5-9.2C91.4,17.9,92,17.7,92.6,17.4z M86.9,22.8
		c1.3,3.4,3.8,6.1,7,7.7c-0.3,0.1-0.5,0.3-0.5,0.6c0,3.6-2.9,6.6-6.6,6.6s-6.6-2.9-6.6-6.6c0-0.3-0.2-0.5-0.5-0.6
		C83.1,28.9,85.7,26.1,86.9,22.8z M79.2,30.8c0,0.1-0.1,0.2-0.1,0.2c0,4.3,3.5,7.8,7.8,7.8s7.8-3.5,7.8-7.8c0-0.1,0-0.2-0.1-0.2
		c0.6,0.2,1.2,0.4,1.8,0.6c-0.2,5.1-4.4,9.2-9.5,9.2c-5.1,0-9.3-4.1-9.5-9.2C78,31.3,78.6,31.1,79.2,30.8z M86.9,43.6
		c-6.6,0-12-5.1-12.5-11.6c0.5,0,1-0.1,1.4-0.2c0.4,5.8,5.2,10.3,11,10.3c5.9,0,10.7-4.6,11-10.3c0.5,0.1,0.9,0.1,1.4,0.2
		C98.9,38.4,93.5,43.6,86.9,43.6z M100.3,30.2c-6.6,0-12-5.1-12.4-11.6c0.5,0,1-0.1,1.4-0.2c0.4,5.8,5.2,10.3,11,10.3
		c5.9,0,10.7-4.6,11-10.3c0.5,0.1,0.9,0.1,1.4,0.2C112.3,25,106.9,30.2,100.3,30.2z M113.7,43.6c-6.6,0-12-5.1-12.5-11.6
		c0.5,0,1-0.1,1.4-0.2c0.4,5.8,5.2,10.3,11,10.3c5.9,0,10.7-4.6,11-10.3c0.5,0.1,0.9,0.1,1.4,0.2C125.7,38.4,120.3,43.6,113.7,43.6z
		 M127.1,30.2c-6.6,0-12-5.1-12.5-11.6c0.5,0,1-0.1,1.4-0.2c0.4,5.8,5.2,10.3,11,10.3c5.9,0,10.7-4.6,11-10.3
		c0.5,0.1,0.9,0.1,1.4,0.2C139.1,25,133.7,30.2,127.1,30.2z"/>
	<path fill="#F1F2F2" d="M153.3,22.1c0.2-0.1,0.3-0.3,0.5-0.4c0.2-0.2,0.4-0.3,0.6-0.5c-0.2,0-0.3,0-0.5,0c-2,0-3.6-1.6-3.6-3.6
		c0-0.3-0.2-0.5-0.5-0.5c-0.3,0-0.5,0.2-0.5,0.5C149.4,20,151.1,21.8,153.3,22.1z"/>
	<path fill="#F1F2F2" d="M64.7,31.1c0-0.3-0.2-0.5-0.5-0.5c-0.3,0-0.5,0.2-0.5,0.5c0,2-1.6,3.6-3.6,3.6s-3.6-1.6-3.6-3.6
		c0-0.3-0.2-0.5-0.5-0.5c-0.3,0-0.5,0.2-0.5,0.5c0,2.5,2,4.5,4.5,4.5C62.7,35.6,64.7,33.6,64.7,31.1z"/>
	<path fill="#F1F2F2" d="M86.9,35.6c2.5,0,4.5-2,4.5-4.5c0-0.3-0.2-0.5-0.5-0.5c-0.3,0-0.5,0.2-0.5,0.5c0,2-1.6,3.6-3.6,3.6
		c-2,0-3.6-1.6-3.6-3.6c0-0.3-0.2-0.5-0.5-0.5c-0.3,0-0.5,0.2-0.5,0.5C82.4,33.6,84.5,35.6,86.9,35.6z"/>
	<path fill="#F1F2F2" d="M113.7,35.6c2.5,0,4.5-2,4.5-4.5c0-0.3-0.2-0.5-0.5-0.5c-0.3,0-0.5,0.2-0.5,0.5c0,2-1.6,3.6-3.6,3.6
		c-2,0-3.6-1.6-3.6-3.6c0-0.3-0.2-0.5-0.5-0.5c-0.3,0-0.5,0.2-0.5,0.5C109.2,33.6,111.2,35.6,113.7,35.6z"/>
	<path fill="#F1F2F2" d="M140.5,34.7c-2,0-3.6-1.6-3.6-3.6c0-0.3-0.2-0.5-0.5-0.5c-0.3,0-0.5,0.2-0.5,0.5c0,2.5,2,4.5,4.5,4.5
		c2.5,0,4.5-2,4.5-4.5c0-0.3-0.2-0.5-0.5-0.5c-0.3,0-0.5,0.2-0.5,0.5C144.1,33.1,142.5,34.7,140.5,34.7z"/>
</g>
<g>
	<path fill="#3F5354" d="M166.7,39.1c-0.3-0.2-0.6-0.3-0.9-0.2c-1.7,0.5-6.8,1.5-9.3-0.1c-0.7-0.4-1.2-1.1-1.4-1.9
		c-0.9-4.1-2.1-7.8-3.7-11.1c8.6-5,15.1-16.7,15.3-17.2c0.2-0.3,0.2-0.7,0-0.9c-0.2-0.3-0.5-0.5-0.8-0.5c-0.6-0.1-14.7-1.4-23.7,3.3
		c-0.7,0.4-1.4,0.8-2.1,1.2C131.1,4.9,118,1.6,100,1.6c-20.2,0-37.6,10.2-45.5,24.9l-4.8-4.1c0.3-0.1,0.7-0.2,1-0.3
		c1.2-0.3,2.3-1,3.1-2c1.1-1.3,1.7-3,1.5-4.7c-0.1-1.7-0.9-3.3-2.2-4.4c-1.2-1-2.6-1.5-4.2-1.5c-1.9,0-3.7,0.8-4.9,2.2
		c-2.2,2.6-2,6.5,0.5,8.8c-1.2-0.2-2.6-0.4-4.3-0.9c-0.5-0.1-1.1,0.2-1.2,0.7s0.2,1.1,0.7,1.2c3.3,0.8,5.6,1.1,7.3,1.1c0,0,0,0,0,0
		l6.5,5.6C51.2,33.1,50,38.3,50,43.9c0,12.3,4.1,36.9,7.2,47l0.2,0.7h13.5l-0.1-1.1c0-0.1-0.4-5.3,1.1-11.7c0.3,0.2,0.6,0.3,0.9,0.5
		c1,4.8,1.9,8.8,2.8,11.7l0.2,0.7h12.4l1.1,0l-0.1-1.1c0,0-0.2-2.2,0.1-5.4c3.5,0.6,7,1,10.7,1c3.4,0,6.9-0.3,10.6-1
		c0.4,1.7,1,3.5,1.6,5.7l0.2,0.7h13.5l-0.1-1.1c0-0.1-0.2-2.9,0.2-7c0.5,2.3,1.2,4.7,2.1,7.5l0.2,0.7h13.5l-0.1-1.1
		c0-0.1-0.9-11.2,4.7-21.1c0,0,0-0.1,0-0.1c5.7-4.5,10.2-9.7,13.8-16c1.4-0.2,4.8-0.6,5.9-0.9c0.4-0.1,0.7-0.5,0.7-0.9l0.2-11.7
		C167.1,39.6,167,39.3,166.7,39.1z M46,19.2c-1.9-1.6-2.1-4.4-0.5-6.2c0.8-1,2.1-1.5,3.4-1.5c1,0,2.1,0.4,2.9,1.1
		c0.9,0.8,1.4,1.8,1.5,3c0.1,1.2-0.3,2.3-1,3.2c-0.2,0.2-0.3,0.3-0.5,0.5c-0.6,0.3-1.1,0.6-1.6,0.9c-0.4,0.1-0.8,0.2-1.3,0.2
		C47.8,20.3,46.8,19.9,46,19.2z M87.2,89.7h-9.9c-0.7-2.4-1.5-5.5-2.2-9.2c3.9,1.9,8,3.3,12.3,4.2C87.1,86.9,87.1,88.7,87.2,89.7z
		 M139.7,89.7h-9.9c-1.1-3.6-1.9-6.5-2.4-9.5c5.9-2.4,11.1-5.2,15.6-8.2C139.7,79.5,139.6,87,139.7,89.7z M164.9,50.7
		c-1.4,0.3-4.2,0.6-5.3,0.7c-0.3,0-0.6,0.2-0.8,0.5c-6.9,12-16.4,19.9-31.8,26.2c1.1-4.3,3-9,6.4-13.1c0.4-0.4,0.3-1.1-0.1-1.4
		c-0.4-0.4-1.1-0.3-1.4,0.1c-8.1,9.6-8.3,22.1-8.2,25.8h-9.9c-2.1-6.9-2.7-10.5-3.6-16.3c-0.3-2.2-0.7-4.6-1.3-7.7
		c-0.1-0.5-0.6-0.9-1.2-0.8c-0.5,0.1-0.9,0.6-0.8,1.2c0.5,3.1,0.9,5.5,1.3,7.7c0.6,3.6,1,6.4,1.8,9.6c-3.5,0.6-6.9,0.9-10.1,0.9
		c-10,0-19.5-2.5-27.6-7.3c1.1-3.9,3-8.1,6.1-11.8c0.4-0.4,0.3-1.1-0.1-1.4c-0.4-0.4-1.1-0.3-1.4,0.1c-8.1,9.6-8.3,22.1-8.2,25.8
		h-9.9C55.8,79.2,52,55.7,52,43.9c0-22.2,21.5-40.3,48-40.3c17.2,0,29.8,3.1,38.5,9.3c-5.6,4-7.7,8.5-5.5,12.6
		c0.3,0.5,0.9,0.7,1.3,0.4c0.5-0.3,0.7-0.9,0.4-1.4c-2-3.8,1.2-8.4,8.5-12.3c6.8-3.6,17.1-3.4,21-3.2c-0.5,0.8-1.1,1.8-1.9,3
		c-1.4-0.1-10.7-0.8-16.8,2.4c-3.1,1.7-5.3,3.5-6.5,5.4c-1.1,1.9-1.2,3.9-0.3,5.6c0.2,0.3,0.5,0.5,0.9,0.5c0.2,0,0.3,0,0.5-0.1
		c0.5-0.3,0.7-0.9,0.4-1.4c-0.6-1.1-0.5-2.4,0.3-3.7c0.9-1.6,2.9-3.2,5.7-4.7c4.6-2.4,11.6-2.4,14.5-2.3c-2.8,3.7-6.8,8.2-11.2,10.6
		c-0.5,0.3-0.7,0.9-0.4,1.4c0,0,0.1,0.1,0.1,0.1c1.6,3.3,2.9,7.2,3.8,11.4c0.3,1.4,1.1,2.5,2.3,3.2c2.8,1.7,7.4,1,9.6,0.6
		L164.9,50.7z"/>
	<circle fill="#3F5354" cx="144.4" cy="35.9" r="2"/>
</g>
</svg>
