<?xml version="1.0" encoding="utf-8"?>
<!-- Generator: Adobe Illustrator 18.1.1, SVG Export Plug-In . SVG Version: 6.00 Build 0)  -->
<!DOCTYPE svg PUBLIC "-//W3C//DTD SVG 1.1//EN" "http://www.w3.org/Graphics/SVG/1.1/DTD/svg11.dtd">
<svg version="1.1" id="Layer_1" xmlns="http://www.w3.org/2000/svg" xmlns:xlink="http://www.w3.org/1999/xlink" x="0px" y="0px"
	 viewBox="0 0 174 193.8" enable-background="new 0 0 174 193.8" xml:space="preserve">
<g>
	<path fill="#3F5354" d="M11.8,71.5c-1.7,2.6-4.5,4.4-7.6,5c0.8,3.4,3.9,5.9,7.5,5.9c3.7,0,6.7-2.6,7.5-6
		C16.1,75.8,13.5,74,11.8,71.5z"/>
	<path fill="#3F5354" d="M58.6,64.1c0-0.2,0.1-0.4,0.2-0.5c-1.6,1.6-3.6,2.7-5.9,3.1c0.7,3.1,3.3,5.4,6.4,5.9
		C58.5,69.8,57.8,67,58.6,64.1z"/>
	<path fill="#3F5354" d="M44.3,78.3c0.3-1,0.8-1.9,1.3-2.7c-0.8,0.4-1.7,0.6-2.6,0.8c0.2,0.9,0.6,1.8,1.2,2.6
		C44.2,78.8,44.3,78.6,44.3,78.3z"/>
	<path fill="#3F5354" d="M40.8,61.7c-1.7,2.5-4.3,4.3-7.4,4.9c0.8,3.4,3.9,6,7.5,6c3.6,0,6.7-2.5,7.5-5.9
		C45.3,66.2,42.5,64.3,40.8,61.7z"/>
	<path fill="#3F5354" d="M21.4,61.7c-1.7,2.5-4.3,4.3-7.4,4.9c0.8,3.4,3.9,6,7.5,6c3.6,0,6.7-2.5,7.5-5.9
		C25.8,66.2,23.1,64.3,21.4,61.7z"/>
	<path fill="#3F5354" d="M31.2,71.5c-1.7,2.6-4.5,4.4-7.6,5c0.8,3.4,3.9,5.9,7.5,5.9c3.7,0,6.7-2.6,7.5-6
		C35.5,75.8,32.9,74,31.2,71.5z"/>
	<path fill="#3F5354" d="M11.8,52c-1.7,2.6-4.5,4.4-7.6,5c0.8,3.4,3.9,5.9,7.5,5.9c3.7,0,6.7-2.6,7.5-6C16.1,56.3,13.5,54.5,11.8,52
		z"/>
	<path fill="#3F5354" d="M79.7,42.3c-1.7,2.5-4.3,4.3-7.4,4.9c0.7,2.9,3,5.2,5.9,5.8c0.6-0.6,1.4-1.1,2.5-1.1c0.8,0,1.5,0.2,2.1,0.6
		c2.3-0.9,4-2.9,4.6-5.3C84.2,46.7,81.5,44.9,79.7,42.3z"/>
	<path fill="#3F5354" d="M21.4,42.3c-1.7,2.5-4.3,4.3-7.4,4.9c0.8,3.4,3.9,6,7.5,6c3.6,0,6.7-2.5,7.5-5.9
		C25.8,46.7,23.1,44.9,21.4,42.3z"/>
	<path fill="#3F5354" d="M40.8,42.3c-1.7,2.5-4.3,4.3-7.4,4.9c0.8,3.4,3.9,6,7.5,6c3.6,0,6.7-2.5,7.5-5.9
		C45.3,46.7,42.5,44.9,40.8,42.3z"/>
	<path fill="#3F5354" d="M74.2,60.8c0-1.6,0.4-3.1,1-4.5c-2.1-0.9-3.8-2.4-5.1-4.2c-1.7,2.6-4.5,4.4-7.6,5c0.2,0.7,0.4,1.3,0.8,2
		c0.4-0.2,0.8-0.2,1.2-0.2c3.1,0.1,5.7,1.5,7.3,4c0.9-0.2,1.7-0.6,2.5-1.1C74.3,61.3,74.2,61,74.2,60.8z"/>
	<path fill="#3F5354" d="M31.2,52c-1.7,2.6-4.5,4.4-7.6,5c0.8,3.4,3.9,5.9,7.5,5.9c3.7,0,6.7-2.6,7.5-6C35.5,56.3,32.9,54.5,31.2,52
		z"/>
	<path fill="#3F5354" d="M50.7,52c-1.7,2.6-4.5,4.4-7.6,5c0.8,3.4,3.9,5.9,7.5,5.9c3.7,0,6.7-2.6,7.5-6C55,56.3,52.4,54.5,50.7,52z"
		/>
	<path fill="#3F5354" d="M60.3,42.3c-1.7,2.5-4.3,4.3-7.4,4.9c0.8,3.4,3.9,6,7.5,6c3.6,0,6.7-2.5,7.5-5.9
		C64.7,46.7,62,44.9,60.3,42.3z"/>
	<path fill="#3F5354" d="M11.8,110.4c-1.7,2.6-4.5,4.4-7.6,5c0.8,3.4,3.9,5.9,7.5,5.9c3.7,0,6.7-2.6,7.5-6
		C16.1,114.7,13.5,112.9,11.8,110.4z"/>
	<path fill="#3F5354" d="M21.4,100.7c-1.7,2.5-4.3,4.3-7.4,4.9c0.8,3.4,3.9,6,7.5,6c3.6,0,6.7-2.5,7.5-5.9
		C25.8,105.1,23.1,103.2,21.4,100.7z"/>
	<path fill="#3F5354" d="M36.8,114.8c-2.3-0.9-4.2-2.4-5.6-4.4c-1.7,2.6-4.5,4.4-7.6,5c0.8,3.4,3.9,5.9,7.5,5.9c3.2,0,5.9-2,7.1-4.7
		C37.5,116.1,37,115.5,36.8,114.8z"/>
	<path fill="#3F5354" d="M11.8,90.9c-1.7,2.6-4.5,4.4-7.6,5c0.8,3.4,3.9,5.9,7.5,5.9c3.7,0,6.7-2.6,7.5-6
		C16.1,95.3,13.5,93.4,11.8,90.9z"/>
	<path fill="#3F5354" d="M21.4,81.2c-1.7,2.5-4.3,4.3-7.4,4.9c0.8,3.4,3.9,6,7.5,6c3.6,0,6.7-2.5,7.5-5.9
		C25.8,85.6,23.1,83.8,21.4,81.2z"/>
	<path fill="#3F5354" d="M37.7,88.4c2.6-1.6,5.7-1.6,8.3,0c0.4,0.2,0.6,0.5,0.9,0.8c0.7-0.9,1.2-1.9,1.5-3.1c-3.2-0.6-5.9-2.4-7.6-5
		c-1.7,2.5-4.3,4.3-7.4,4.9c0.4,1.7,1.4,3.2,2.7,4.3C36.4,89.6,37,88.9,37.7,88.4z"/>
	<path fill="#3F5354" d="M36.2,95.1c-2-0.9-3.7-2.3-5-4.2c-1.7,2.6-4.5,4.4-7.6,5c0.8,3.4,3.9,5.9,7.5,5.9c3,0,5.7-1.8,6.9-4.4
		C37,97,36.4,96.1,36.2,95.1z"/>
	<path fill="#3F5354" d="M94.6,40.4c-3-0.6-5.3-3-6.8-5.8c-1.6,1.5-3.6,2.5-5.9,2.9c0.8,3.4,3.9,5.9,7.5,5.9c2.5,0,4.7-1.2,6.1-3
		C95.2,40.5,94.9,40.5,94.6,40.4z"/>
	<path fill="#3F5354" d="M70.1,32.6c-1.7,2.6-4.5,4.4-7.6,5c0.8,3.4,3.9,5.9,7.5,5.9c3.7,0,6.7-2.6,7.5-6
		C74.4,36.9,71.8,35.1,70.1,32.6z"/>
	<path fill="#3F5354" d="M86.2,28.5c0-0.3,0-0.6,0.1-0.9c-2.7-0.8-5-2.5-6.6-4.7c-1.7,2.5-4.3,4.3-7.4,4.9c0.8,3.4,3.9,6,7.5,6
		c2.7,0,5.1-1.4,6.5-3.6C86.3,29.6,86.2,29,86.2,28.5z"/>
	<path fill="#3F5354" d="M31.2,32.6c-1.7,2.6-4.5,4.4-7.6,5c0.8,3.4,3.9,5.9,7.5,5.9c3.7,0,6.7-2.6,7.5-6
		C35.5,36.9,32.9,35.1,31.2,32.6z"/>
	<path fill="#3F5354" d="M60.3,22.8c-1.7,2.5-4.3,4.3-7.4,4.9c0.8,3.4,3.9,6,7.5,6c3.6,0,6.7-2.5,7.5-5.9
		C64.7,27.2,62,25.4,60.3,22.8z"/>
	<path fill="#3F5354" d="M21.4,22.8c-1.7,2.5-4.3,4.3-7.4,4.9c0.8,3.4,3.9,6,7.5,6c3.6,0,6.7-2.5,7.5-5.9
		C25.8,27.2,23.1,25.4,21.4,22.8z"/>
	<path fill="#3F5354" d="M50.7,32.6c-1.7,2.6-4.5,4.4-7.6,5c0.8,3.4,3.9,5.9,7.5,5.9c3.7,0,6.7-2.6,7.5-6
		C55,36.9,52.4,35.1,50.7,32.6z"/>
	<path fill="#3F5354" d="M40.8,22.8c-1.7,2.5-4.3,4.3-7.4,4.9c0.8,3.4,3.9,6,7.5,6c3.6,0,6.7-2.5,7.5-5.9
		C45.3,27.2,42.5,25.4,40.8,22.8z"/>
	<path fill="#3F5354" d="M11.8,32.6c-1.7,2.6-4.5,4.4-7.6,5c0.8,3.4,3.9,5.9,7.5,5.9c3.7,0,6.7-2.6,7.5-6
		C16.1,36.9,13.5,35.1,11.8,32.6z"/>
	<path fill="#3F5354" d="M21.4,3.4C19.7,5.9,17,7.7,14,8.3c0.8,3.4,3.9,6,7.5,6c3.6,0,6.7-2.5,7.5-5.9C25.8,7.8,23.1,5.9,21.4,3.4z"
		/>
	<path fill="#3F5354" d="M11.8,13.1c-1.7,2.6-4.5,4.4-7.6,5C4.9,21.5,8,24,11.6,24c3.7,0,6.7-2.6,7.5-6
		C16.1,17.4,13.5,15.6,11.8,13.1z"/>
	<path fill="#3F5354" d="M31.2,13.1c-1.7,2.6-4.5,4.4-7.6,5c0.8,3.4,3.9,5.9,7.5,5.9c3.7,0,6.7-2.6,7.5-6
		C35.5,17.4,32.9,15.6,31.2,13.1z"/>
	<path fill="#3F5354" d="M40.8,3.4c-1.7,2.5-4.3,4.3-7.4,4.9c0.8,3.4,3.9,6,7.5,6c3.6,0,6.7-2.5,7.5-5.9C45.3,7.8,42.5,5.9,40.8,3.4
		z"/>
	<path fill="#3F5354" d="M50.7,13.1c-1.7,2.6-4.5,4.4-7.6,5c0.8,3.4,3.9,5.9,7.5,5.9c3.7,0,6.7-2.6,7.5-6
		C55,17.4,52.4,15.6,50.7,13.1z"/>
	<path fill="#3F5354" d="M60.3,3.4c-1.7,2.5-4.3,4.3-7.4,4.9c0.8,3.4,3.9,6,7.5,6c3.6,0,6.7-2.5,7.5-5.9C64.7,7.8,62,5.9,60.3,3.4z"
		/>
	<path fill="#3F5354" d="M87.7,22.5c0.9-1.2,1.6-2.6,2.6-3.7c0.9-1,2-1.7,3.3-2c-1.6-0.9-3-2.2-4-3.7c-1.7,2.6-4.5,4.4-7.6,5
		c0.6,2.7,2.7,4.8,5.3,5.6C87.3,23.2,87.4,22.8,87.7,22.5z"/>
	<path fill="#3F5354" d="M79.7,3.4c-1.7,2.5-4.3,4.3-7.4,4.9c0.8,3.4,3.9,6,7.5,6c3.6,0,6.7-2.5,7.5-5.9C84.2,7.8,81.5,5.9,79.7,3.4
		z"/>
	<path fill="#3F5354" d="M70.1,13.1c-1.7,2.6-4.5,4.4-7.6,5c0.8,3.4,3.9,5.9,7.5,5.9c3.7,0,6.7-2.6,7.5-6
		C74.4,17.4,71.8,15.6,70.1,13.1z"/>
	<path fill="#3F5354" d="M72.7,158.9c-1.1-2.5-3.5-4.6-5-6.9c0,0,0-0.1,0-0.1c-1.5,1.2-3.2,2-5.2,2.3c0.8,3.4,3.9,5.9,7.5,5.9
		c1.1,0,2.1-0.2,3-0.6C72.9,159.4,72.8,159.1,72.7,158.9z"/>
	<path fill="#3F5354" d="M40.8,139.6c-1.7,2.5-4.3,4.3-7.4,4.9c0.8,3.4,3.9,6,7.5,6c3.6,0,6.7-2.5,7.5-5.9
		C45.3,144,42.5,142.1,40.8,139.6z"/>
	<path fill="#3F5354" d="M50.7,149.3c-1.7,2.6-4.5,4.4-7.6,5c0.8,3.4,3.9,5.9,7.5,5.9c3.7,0,6.7-2.6,7.5-6
		C55,153.6,52.4,151.8,50.7,149.3z"/>
	<path fill="#3F5354" d="M59.1,141.9c-0.2-0.1-0.4-0.1-0.6-0.2c-1.5,1.4-3.4,2.4-5.5,2.8c0.8,3.4,3.9,6,7.5,6c3.3,0,6.1-2,7.2-4.9
		C64.6,144.8,62.1,142.7,59.1,141.9z"/>
	<path fill="#3F5354" d="M31.2,149.3c-1.7,2.6-4.5,4.4-7.6,5c0.8,3.4,3.9,5.9,7.5,5.9c3.7,0,6.7-2.6,7.5-6
		C35.5,153.6,32.9,151.8,31.2,149.3z"/>
	<path fill="#3F5354" d="M21.4,139.6c-1.7,2.5-4.3,4.3-7.4,4.9c0.8,3.4,3.9,6,7.5,6c3.6,0,6.7-2.5,7.5-5.9
		C25.8,144,23.1,142.1,21.4,139.6z"/>
	<path fill="#3F5354" d="M11.8,149.3c-1.7,2.6-4.5,4.4-7.6,5c0.8,3.4,3.9,5.9,7.5,5.9c3.7,0,6.7-2.6,7.5-6
		C16.1,153.6,13.5,151.8,11.8,149.3z"/>
	<path fill="#3F5354" d="M52,138c-1.3-0.1-2.2-0.8-2.7-1.7c-1.7-0.5-3.3-1-5-1.4c-0.2-0.1-0.4-0.2-0.6-0.2c-0.2,0.1-0.4,0.1-0.7,0.2
		c0.8,3.4,3.9,5.9,7.5,5.9c1.9,0,3.7-0.7,5.1-1.9C54.4,138.5,53.2,138.2,52,138z"/>
	<path fill="#3F5354" d="M31.2,129.8c-1.7,2.6-4.5,4.4-7.6,5c0.8,3.4,3.9,5.9,7.5,5.9c3.7,0,6.7-2.6,7.5-6
		C35.5,134.2,32.9,132.3,31.2,129.8z"/>
	<path fill="#3F5354" d="M21.4,120.1c-1.7,2.5-4.3,4.3-7.4,4.9c0.8,3.4,3.9,6,7.5,6c3.6,0,6.7-2.5,7.5-5.9
		C25.8,124.5,23.1,122.7,21.4,120.1z"/>
	<path fill="#3F5354" d="M11.8,129.8c-1.7,2.6-4.5,4.4-7.6,5c0.8,3.4,3.9,5.9,7.5,5.9c3.7,0,6.7-2.6,7.5-6
		C16.1,134.2,13.5,132.3,11.8,129.8z"/>
	<path fill="#3F5354" d="M40.8,178.5c-1.7,2.5-4.3,4.3-7.4,4.9c0.8,3.4,3.9,6,7.5,6c3.6,0,6.7-2.5,7.5-5.9
		C45.3,182.9,42.5,181,40.8,178.5z"/>
	<path fill="#3F5354" d="M21.4,178.5c-1.7,2.5-4.3,4.3-7.4,4.9c0.8,3.4,3.9,6,7.5,6c3.6,0,6.7-2.5,7.5-5.9
		C25.8,182.9,23.1,181,21.4,178.5z"/>
	<path fill="#3F5354" d="M79.7,178.5c-1.7,2.5-4.3,4.3-7.4,4.9c0.8,3.4,3.9,6,7.5,6c3.6,0,6.7-2.5,7.5-5.9
		C84.2,182.9,81.5,181,79.7,178.5z"/>
	<path fill="#3F5354" d="M60.3,178.5c-1.7,2.5-4.3,4.3-7.4,4.9c0.8,3.4,3.9,6,7.5,6c3.6,0,6.7-2.5,7.5-5.9
		C64.7,182.9,62,181,60.3,178.5z"/>
	<path fill="#3F5354" d="M11.8,168.7c-1.7,2.6-4.5,4.4-7.6,5c0.8,3.4,3.9,5.9,7.5,5.9c3.7,0,6.7-2.6,7.5-6
		C16.1,173.1,13.5,171.3,11.8,168.7z"/>
	<path fill="#3F5354" d="M21.4,159c-1.7,2.5-4.3,4.3-7.4,4.9c0.8,3.4,3.9,6,7.5,6c3.6,0,6.7-2.5,7.5-5.9
		C25.8,163.4,23.1,161.6,21.4,159z"/>
	<path fill="#3F5354" d="M31.2,168.7c-1.7,2.6-4.5,4.4-7.6,5c0.8,3.4,3.9,5.9,7.5,5.9c3.7,0,6.7-2.6,7.5-6
		C35.5,173.1,32.9,171.3,31.2,168.7z"/>
	<path fill="#3F5354" d="M40.8,159c-1.7,2.5-4.3,4.3-7.4,4.9c0.8,3.4,3.9,6,7.5,6c3.6,0,6.7-2.5,7.5-5.9
		C45.3,163.4,42.5,161.6,40.8,159z"/>
	<path fill="#3F5354" d="M50.7,168.7c-1.7,2.6-4.5,4.4-7.6,5c0.8,3.4,3.9,5.9,7.5,5.9c3.7,0,6.7-2.6,7.5-6
		C55,173.1,52.4,171.3,50.7,168.7z"/>
	<path fill="#3F5354" d="M70.1,168.7c-1.7,2.6-4.5,4.4-7.6,5c0.8,3.4,3.9,5.9,7.5,5.9c3.7,0,6.7-2.6,7.5-6
		C74.4,173.1,71.8,171.3,70.1,168.7z"/>
	<path fill="#3F5354" d="M74.9,164.3c-0.3-0.3-0.5-0.5-0.7-0.8c-0.6,0.2-1.2,0.4-1.8,0.5c0.8,3.4,3.9,6,7.5,6c3,0,5.5-1.7,6.8-4.1
		C82.9,165.9,78,167,74.9,164.3z"/>
	<path fill="#3F5354" d="M89.6,168.7c-1.7,2.6-4.5,4.4-7.6,5c0.8,3.4,3.9,5.9,7.5,5.9c3.7,0,6.7-2.6,7.5-6
		C93.9,173.1,91.3,171.3,89.6,168.7z"/>
	<path fill="#3F5354" d="M60.3,159c-1.7,2.5-4.3,4.3-7.4,4.9c0.8,3.4,3.9,6,7.5,6c3.6,0,6.7-2.5,7.5-5.9
		C64.7,163.4,62,161.6,60.3,159z"/>
</g>
<g>
	<path fill="#C49A6C" d="M100,154c-0.6,0-1.2-0.5-1.2-1.1c-0.3-3.8-7.3-92.1-7.3-96.1c0-4.7,3.8-8.5,8.5-8.5c4.7,0,8.5,3.8,8.5,8.5
		c0,4-7,92.4-7.3,96.1C101.2,153.5,100.7,154,100,154z M100,50.7c-3.3,0-6.1,2.7-6.1,6.1c0,2.9,4,54.2,6.1,80.6
		c2.1-26.4,6.1-77.6,6.1-80.6C106.1,53.4,103.4,50.7,100,50.7z"/>
	<path fill="#C49A6C" d="M98.4,154.1c-0.5,0-1-0.4-1.2-0.9c-0.9-3.6-22.9-88.5-23.6-92.5c-0.8-4.6,2.3-9,6.8-9.8
		c0.5-0.1,1-0.1,1.5-0.1c4.1,0,7.6,2.9,8.3,7c0.7,3.9,8.8,88.5,9.4,94.7c0,0.1,0.1,0.2,0.1,0.4C99.7,153.6,99.1,154.1,98.4,154.1
		C98.4,154.1,98.4,154.1,98.4,154.1z M81.9,53.3c-0.4,0-0.7,0-1.1,0.1c-3.3,0.6-5.4,3.7-4.9,7c0.5,2.9,13.2,52,19.7,77.4
		c-2.5-26.1-7.4-76.6-7.9-79.5C87.3,55.4,84.8,53.3,81.9,53.3z"/>
	<path fill="#C49A6C" d="M96.9,154.5c-0.5,0-0.9-0.3-1.1-0.7c-1.5-3.3-36.9-80.8-38.2-84.5c-0.8-2.1-0.7-4.3,0.3-6.3
		c0.9-2,2.6-3.5,4.6-4.3c0.9-0.3,1.9-0.5,2.8-0.5c3.4,0,6.6,2.2,7.7,5.4c1.3,3.6,23.4,83.2,25,89.1c0.1,0.2,0.1,0.4,0.1,0.5
		C98.1,154,97.6,154.6,96.9,154.5z M65.3,60.7c-0.7,0-1.3,0.1-2,0.4c-1.5,0.5-2.6,1.6-3.3,3c-0.7,1.4-0.7,3-0.2,4.4
		c1,2.6,21.1,47,31.8,70.3c-6.8-24.7-19.9-71.6-20.9-74.3C69.9,62.3,67.7,60.7,65.3,60.7z"/>
	<path fill="#C49A6C" d="M95.4,155.2c-0.4,0-0.8-0.2-1-0.5c-1.9-2.8-47.6-69.2-49.5-72.4c-2.2-3.7-0.9-8.6,2.9-10.7
		c1.2-0.7,2.5-1.1,3.9-1.1c2.8,0,5.4,1.5,6.8,3.9c1.8,3.1,35.4,73.7,37.9,78.8c0.1,0.2,0.2,0.5,0.2,0.7
		C96.6,154.7,96.1,155.2,95.4,155.2C95.4,155.2,95.4,155.2,95.4,155.2z M51.7,73c-0.9,0-1.9,0.3-2.7,0.7c-2.6,1.5-3.5,4.8-2,7.4
		c1.3,2.3,26.8,39.4,40.6,59.5c-10.5-22-29.9-62.7-31.3-65C55.4,74,53.6,73,51.7,73z"/>
	<path fill="#C49A6C" d="M94.1,156.2c-0.3,0-0.6-0.1-0.9-0.4c-2.2-2.3-54.5-55.4-56.7-58c-1.3-1.5-1.9-3.4-1.7-5.4
		c0.2-2,1.1-3.7,2.6-5c1.3-1.1,3-1.7,4.7-1.7c2.2,0,4.2,1,5.6,2.6c2.1,2.6,44.1,61.4,47.2,65.7c0.2,0.2,0.4,0.5,0.4,0.9
		C95.3,155.6,94.7,156.1,94.1,156.2C94.1,156.2,94.1,156.2,94.1,156.2z M42.1,88.2c-1.2,0-2.3,0.4-3.2,1.1c-1,0.8-1.6,2-1.7,3.3
		c-0.1,1.3,0.3,2.6,1.1,3.6c1.5,1.8,29.8,30.6,45.7,46.9c-13.2-18.6-36.7-51.4-38.2-53.2C45,88.8,43.6,88.2,42.1,88.2z"/>
	<path fill="#C49A6C" d="M92.9,157.3c-0.2,0-0.5-0.1-0.7-0.2c-2.3-1.7-57.4-40.9-59.7-42.9c-1.4-1.2-2.2-2.8-2.4-4.6
		c-0.2-1.8,0.4-3.6,1.6-4.9c1.3-1.5,3.2-2.4,5.2-2.4c1.6,0,3.1,0.6,4.3,1.6c2.3,1.9,49,47.9,52.4,51.2c0.3,0.2,0.5,0.6,0.5,1
		C94.2,156.8,93.6,157.3,92.9,157.3C92.9,157.3,92.9,157.3,92.9,157.3z M36.8,104.7c-1.3,0-2.5,0.6-3.3,1.6c-0.7,0.9-1.1,2-1,3.2
		c0.1,1.2,0.6,2.2,1.5,2.9c1.5,1.3,26.9,19.5,47,33.8c-17.6-17.3-40-39.2-41.4-40.4C38.9,105.1,37.9,104.7,36.8,104.7z"/>
	<path fill="#C49A6C" d="M92,158.6c-0.2,0-0.4,0-0.5-0.1c-2.3-1.1-56.6-26.9-59-28.3c-1.4-0.8-2.4-2.2-2.9-3.7
		c-0.4-1.6-0.2-3.2,0.6-4.7c1.1-1.9,3.1-3.1,5.3-3.1c1.1,0,2.1,0.3,3.1,0.8c2.3,1.4,50.3,34.4,53.9,36.8c0.4,0.2,0.7,0.6,0.7,1.1
		C93.2,158.1,92.7,158.6,92,158.6C92,158.6,92,158.6,92,158.6z M35.6,121.1c-1.3,0-2.6,0.7-3.2,1.9c-0.5,0.9-0.6,1.9-0.4,2.8
		c0.3,1,0.9,1.8,1.7,2.3c1.5,0.8,25.3,12.3,44.9,21.6c-17.9-12.3-39.7-27.2-41.1-28.1C36.9,121.3,36.2,121.1,35.6,121.1z"/>
	<path fill="#C49A6C" d="M101.7,154.1c-0.1,0-0.1,0-0.2,0c-0.6-0.1-1.1-0.7-1-1.3c0.4-3.7,8.7-91.1,9.4-95c0.7-4,4.2-7,8.3-7
		c0.5,0,1,0,1.5,0.1c4.6,0.8,7.6,5.2,6.8,9.8c-0.7,3.9-22.7,88.9-23.6,92.5C102.7,153.8,102.2,154.1,101.7,154.1z M118.2,53.3
		c-2.9,0-5.4,2.1-5.9,5c-0.5,2.9-5.4,53.4-7.9,79.5c6.6-25.4,19.2-74.5,19.7-77.4c0.6-3.3-1.6-6.4-4.9-7
		C118.9,53.3,118.5,53.3,118.2,53.3z"/>
	<path fill="#C49A6C" d="M103.2,154.5c-0.1,0-0.3,0-0.4-0.1c-0.6-0.2-0.9-0.9-0.8-1.5c1-3.5,23.7-85.6,25-89.3
		c1.2-3.2,4.3-5.4,7.7-5.4c1,0,1.9,0.2,2.8,0.5c4.3,1.6,6.5,6.3,4.9,10.5c-1.3,3.6-36.7,81.2-38.2,84.5
		C104.1,154.3,103.7,154.5,103.2,154.5z M134.8,60.7c-2.4,0-4.6,1.5-5.4,3.8c-1,2.6-14,49.6-20.9,74.3
		c10.6-23.3,30.8-67.7,31.8-70.3c0.5-1.5,0.5-3-0.2-4.4c-0.7-1.4-1.8-2.5-3.3-3C136.2,60.9,135.5,60.7,134.8,60.7z"/>
	<path fill="#C49A6C" d="M104.7,155.2c-0.2,0-0.4-0.1-0.6-0.2c-0.5-0.3-0.8-1-0.5-1.6c1.5-3.1,36.1-75.9,38-79
		c1.4-2.4,4-3.9,6.8-3.9c1.4,0,2.7,0.4,3.9,1.1c3.7,2.2,5,7,2.9,10.7c-1.8,3.2-47.5,69.6-49.5,72.4
		C105.5,155,105.1,155.2,104.7,155.2z M148.4,73c-1.9,0-3.7,1-4.7,2.7c-1.3,2.3-20.7,42.9-31.3,65c13.8-20.1,39.3-57.3,40.6-59.5
		c1.5-2.6,0.6-5.9-2-7.4C150.3,73.2,149.3,73,148.4,73z"/>
	<path fill="#C49A6C" d="M106,156.2c-0.3,0-0.6-0.1-0.8-0.3c-0.5-0.4-0.6-1.1-0.2-1.6c1.8-2.6,45.1-63.3,47.3-65.9
		c1.4-1.7,3.5-2.6,5.6-2.6c1.7,0,3.4,0.6,4.7,1.7c1.5,1.3,2.4,3,2.6,5c0.2,2-0.4,3.9-1.7,5.4c-2.2,2.6-54.5,55.7-56.7,58
		C106.7,156,106.3,156.2,106,156.2z M157.9,88.2c-1.5,0-2.8,0.6-3.8,1.8c-1.5,1.8-25,34.6-38.2,53.2c16-16.3,44.2-45,45.7-46.9
		c0.8-1,1.2-2.3,1.1-3.6c-0.1-1.3-0.7-2.5-1.7-3.3C160.2,88.6,159.1,88.2,157.9,88.2z"/>
	<path fill="#C49A6C" d="M107.2,157.3c-0.3,0-0.7-0.1-0.9-0.4c-0.4-0.5-0.4-1.2,0.1-1.6c2-2,50.2-49.4,52.6-51.4
		c1.2-1,2.8-1.6,4.3-1.6c2,0,3.9,0.9,5.2,2.4c1.2,1.4,1.7,3.1,1.6,4.9c-0.2,1.8-1,3.4-2.4,4.6c-2.4,2-57.4,41.2-59.7,42.9
		C107.7,157.2,107.4,157.3,107.2,157.3z M163.2,104.7c-1,0-2,0.4-2.8,1c-1.5,1.3-23.8,23.1-41.4,40.4c20.1-14.3,45.5-32.5,47-33.8
		c0.9-0.7,1.4-1.8,1.5-2.9c0.1-1.2-0.3-2.3-1-3.2C165.7,105.3,164.5,104.7,163.2,104.7z"/>
	<path fill="#C49A6C" d="M108.1,158.6c-0.4,0-0.8-0.2-1.1-0.6c-0.3-0.5-0.2-1.2,0.4-1.6c2.1-1.4,51.6-35.5,54-36.9
		c0.9-0.5,2-0.8,3.1-0.8c2.2,0,4.2,1.2,5.3,3.1c0.8,1.4,1,3.1,0.6,4.7c-0.4,1.6-1.4,2.9-2.9,3.7c-2.4,1.4-56.6,27.2-59,28.3
		C108.5,158.6,108.3,158.6,108.1,158.6z M164.5,121.1c-0.7,0-1.3,0.2-1.9,0.5c-1.5,0.8-23.3,15.8-41.1,28.1
		c19.5-9.3,43.4-20.8,44.9-21.6c0.9-0.5,1.5-1.3,1.7-2.3c0.3-1,0.1-2-0.4-2.8C167.1,121.8,165.8,121.1,164.5,121.1z"/>
	<path fill="#C49A6C" d="M100,166.6H74.7c-0.5,0-0.9-0.3-1.1-0.7l-10.4-21.2c-0.2-0.5-0.1-1,0.2-1.4c0.4-0.4,0.9-0.5,1.4-0.2
		l27.8,13.2c0.4,0.2,0.7,0.6,0.7,1.1c0,3.7,3,6.7,6.7,6.7c3.7,0,6.7-3,6.7-6.7c0-0.7,0.5-1.2,1.2-1.2s1.2,0.5,1.2,1.2
		C109.2,162.5,105.1,166.6,100,166.6z M75.5,164.2h18.4c-1.6-1.5-2.7-3.6-2.9-6l-24-11.4L75.5,164.2z"/>
	<path fill="#C49A6C" d="M125.3,166.6H99.9c-5.1,0-9.2-4.1-9.2-9.2c0-0.7,0.5-1.2,1.2-1.2c0.7,0,1.2,0.5,1.2,1.2
		c0,3.7,3,6.7,6.7,6.7c3.7,0,6.7-3,6.7-6.7c0-0.5,0.3-0.9,0.7-1.1l27.8-13.2c0.5-0.2,1-0.1,1.4,0.2c0.4,0.4,0.5,0.9,0.2,1.4
		l-10.4,21.2C126.2,166.3,125.7,166.6,125.3,166.6z M106.1,164.2h18.4l8.6-17.4l-24,11.4C108.9,160.6,107.8,162.6,106.1,164.2z"/>
</g>
<circle fill="none" stroke="#F1F2F2" stroke-width="2" stroke-miterlimit="10" cx="100" cy="28.3" r="13.2"/>
</svg>
