<?xml version="1.0" encoding="utf-8"?>
<!-- Generator: Adobe Illustrator 18.1.1, SVG Export Plug-In . SVG Version: 6.00 Build 0)  -->
<!DOCTYPE svg PUBLIC "-//W3C//DTD SVG 1.1//EN" "http://www.w3.org/Graphics/SVG/1.1/DTD/svg11.dtd">
<svg version="1.1" id="Layer_1" xmlns="http://www.w3.org/2000/svg" xmlns:xlink="http://www.w3.org/1999/xlink" x="0px" y="0px"
	 viewBox="0 0 360 360" enable-background="new 0 0 360 360" xml:space="preserve">
<path fill="#C49A6C" d="M355.7,72c-13,5.8-25.9,10.1-41.8,11.5c14.4-8.6,25.9-23,31.7-38.9c-14.4,8.6-28.8,14.4-46.1,17.3
	c-13-14.4-31.7-23-51.8-23c-38.9,0-72,31.7-72,72c0,5.8,0,11.5,1.4,15.8C119.5,123.8,66.2,95,31.7,51.8c-7.2,11.5-10.1,23-10.1,36
	c0,24.5,13,46.1,31.7,59c-11.5,0-23-2.9-33.1-8.6c0,0,0,0,0,1.4c0,34.6,24.5,63.4,57.6,70.6c-5.8,1.4-13,2.9-18.7,2.9
	c-4.3,0-8.6,0-13-1.4c8.6,28.8,36,49,66.2,49c-24.5,18.7-54.7,30.2-89.3,30.2c-5.8,0-11.5,0-17.3-1.4
	c31.7,20.2,69.1,31.7,109.4,31.7c131,0,203-109.4,203-203c0-2.9,0-5.8,0-8.6C334.1,99.4,345.6,86.4,355.7,72z"/>
</svg>
