<?xml version="1.0" encoding="utf-8"?>
<!-- Generator: Adobe Illustrator 18.1.1, SVG Export Plug-In . SVG Version: 6.00 Build 0)  -->
<!DOCTYPE svg PUBLIC "-//W3C//DTD SVG 1.1//EN" "http://www.w3.org/Graphics/SVG/1.1/DTD/svg11.dtd">
<svg version="1.1" id="Layer_1" xmlns="http://www.w3.org/2000/svg" xmlns:xlink="http://www.w3.org/1999/xlink" x="0px" y="0px"
	 viewBox="0 0 281.5 204.6" enable-background="new 0 0 281.5 204.6" xml:space="preserve">
<g>
	<g>
		<g>
			<path fill="#C59B6C" d="M74.7,34.9l0-1.4c1.1,0,1.9-0.2,2.7-0.9c0.7-0.6,0.8-1.3,0.4-1.8l0,0c-0.4-0.4-0.9-0.5-2.3,0.3
				c-1.6,0.9-2.7,1.1-3.7,0l0,0c-0.9-1.1-0.7-2.6,0.5-3.7c0.9-0.8,1.9-1.2,3-1.2l0.1,1.4c-0.9,0.1-1.7,0.3-2.3,0.9
				c-0.6,0.6-0.7,1.2-0.4,1.6l0,0c0.4,0.5,0.9,0.4,2.4-0.3c1.6-0.8,2.7-1,3.6,0.1l0,0c1,1.2,0.7,2.7-0.6,3.8
				C77.2,34.5,76,34.9,74.7,34.9z"/>
			<path fill="#C59B6C" d="M82.2,25.6l-2.7-4l1.2-0.8l2.7,3.9c0.9,1.3,2,1.5,3.1,0.8c1.1-0.7,1.3-1.8,0.4-3.1l-2.7-4l1.2-0.8
				l2.7,3.9c1.4,2.1,1,3.9-0.9,5.1C85.4,27.8,83.6,27.6,82.2,25.6z"/>
			<path fill="#C59B6C" d="M93.7,20.9l0.3-1.3c1,0.2,1.9,0.2,2.8-0.2c0.8-0.4,1.1-1.1,0.8-1.6l0,0c-0.3-0.5-0.7-0.7-2.3-0.3
				c-1.8,0.4-2.9,0.4-3.6-0.9l0,0c-0.7-1.3-0.1-2.7,1.4-3.5c1.1-0.6,2.1-0.7,3.2-0.5l-0.2,1.3c-0.9-0.2-1.7-0.1-2.4,0.3
				c-0.8,0.4-1,1-0.8,1.5l0,0c0.3,0.6,0.8,0.7,2.4,0.3c1.8-0.4,2.9-0.3,3.5,0.9l0,0c0.7,1.4,0.1,2.8-1.5,3.6
				C96.2,21.1,95,21.3,93.7,20.9z"/>
			<path fill="#C59B6C" d="M101.7,9.1l1.4-0.5l1.2,3.3l3.7-1.4l-1.2-3.3l1.4-0.5l2.9,7.8l-1.4,0.5l-1.2-3.3l-3.7,1.4l1.2,3.3
				l-1.4,0.5L101.7,9.1z"/>
			<path fill="#C59B6C" d="M114.4,4.9l1.4-0.4l2.1,8.1l-1.4,0.4L114.4,4.9z"/>
			<path fill="#C59B6C" d="M134.9,9.1c-0.7,0.7-1.5,1.2-2.5,1.3c-1.5,0.1-2.8-0.7-2.9-2.2l0,0c-0.1-1.1,0.5-1.9,1.6-2.5
				c-0.5-0.6-0.8-1.1-0.8-1.7l0,0c-0.1-1.1,0.7-2.2,2.2-2.3c1.3-0.1,2.3,0.7,2.4,1.8l0,0c0.1,1.1-0.6,1.8-1.7,2.3l1.5,1.3
				c0.3-0.5,0.5-1.1,0.8-1.7l1.2,0.5c-0.3,0.7-0.6,1.4-1,2l1.4,1.2l-1,0.9L134.9,9.1z M134,8.3l-2-1.7c-0.7,0.4-1,0.9-1,1.5l0,0
				c0.1,0.7,0.7,1.2,1.5,1.1C133.1,9.1,133.6,8.7,134,8.3z M133.6,3.7L133.6,3.7c0-0.6-0.5-0.9-1-0.9c-0.6,0-1,0.5-0.9,1.1l0,0
				c0,0.4,0.2,0.7,0.7,1.2C133.2,4.8,133.6,4.3,133.6,3.7z"/>
			<path fill="#C59B6C" d="M149.1,5.9L149.1,5.9c0.3-2.4,2.3-4.1,4.9-3.8s4.1,2.5,3.8,4.8l0,0c-0.3,2.3-2.3,4.1-4.9,3.8
				C150.3,10.4,148.8,8.2,149.1,5.9z M156.2,6.8L156.2,6.8c0.2-1.6-0.8-3.1-2.5-3.3c-1.6-0.2-3,1-3.2,2.6l0,0
				c-0.2,1.6,0.8,3.1,2.5,3.3C154.7,9.6,156,8.4,156.2,6.8z"/>
			<path fill="#C59B6C" d="M164.7,9.4l-2-5.7l1.7,0.4l1.4,4.2l3.2-3l1.6,0.4l-4.4,4.1l-0.8,3.2l-1.4-0.4L164.7,9.4z"/>
			<path fill="#C59B6C" d="M172.4,13.7l1.2-0.7c0.5,0.9,1.1,1.6,2.1,2c0.8,0.3,1.5,0.1,1.8-0.5l0,0c0.2-0.6,0-1-1.3-1.9
				c-1.5-1-2.3-1.9-1.7-3.3l0,0c0.5-1.3,2-1.8,3.5-1.3c1.1,0.4,1.9,1.1,2.5,2.1l-1.1,0.8c-0.5-0.8-1.1-1.3-1.8-1.6
				c-0.8-0.3-1.4-0.1-1.6,0.4l0,0c-0.2,0.6,0,1,1.4,1.9c1.5,1,2.1,1.9,1.6,3.2l0,0c-0.6,1.5-2,1.9-3.7,1.3
				C174,15.8,173.1,14.9,172.4,13.7z"/>
			<path fill="#C59B6C" d="M187.6,13.9l-2.4-1.2l0.6-1.2l6,3.1l-0.6,1.2l-2.4-1.2l-3.2,6.2l-1.3-0.7L187.6,13.9z"/>
			<path fill="#C59B6C" d="M196.9,17.7l5.1,3.5l-0.7,1.1l-3.9-2.7l-1.2,1.8l3.5,2.3l-0.7,1.1l-3.5-2.3l-1.3,1.9l4,2.7l-0.7,1.1
				l-5.2-3.5L196.9,17.7z"/>
			<path fill="#C59B6C" d="M206.9,24.9l2.8,2.4c0.8,0.7,1.2,1.5,1.3,2.2c0,0.6-0.2,1.3-0.7,1.8l0,0c-0.9,1-2.1,1.1-3.2,0.6l-0.4,3.9
				l-1.3-1.1l0.4-3.5l-1.4-1.2l-1.9,2.2l-1.1-1L206.9,24.9z M206.9,30.4c0.8,0.7,1.7,0.7,2.2,0.1l0,0c0.6-0.7,0.4-1.5-0.4-2.2
				l-1.6-1.4l-1.8,2.1L206.9,30.4z"/>
		</g>
		<g>
			<path fill="#C59B6C" d="M72.2,171.6L72.2,171.6c1.6-1.8,4.2-2.1,6.1-0.4c1.2,1,1.5,2,1.6,3.1l-1.4,0.2c-0.1-0.9-0.4-1.7-1.1-2.3
				c-1.2-1.1-2.9-0.8-4,0.4l0,0c-1.1,1.2-1.1,3,0.1,4.1c0.8,0.7,1.5,0.8,2.5,0.8l0.1,1.3c-1.3,0.1-2.4-0.1-3.5-1.1
				C70.7,176,70.6,173.4,72.2,171.6z"/>
			<path fill="#C59B6C" d="M84.4,176.3l1.2,0.8l-1.9,2.9l3.3,2.2l1.9-2.9l1.2,0.8l-4.7,6.9l-1.2-0.8l2-2.9l-3.3-2.2l-2,2.9l-1.2-0.8
				L84.4,176.3z"/>
			<path fill="#C59B6C" d="M95,182.9l1.3,0.7l-4,7.4l-1.3-0.7L95,182.9z"/>
			<path fill="#C59B6C" d="M101.2,186.1l1.3,0.5l1.9,7l2.2-5.3l1.3,0.5l-3.2,7.7l-1.1-0.5l-2-7.2l-2.3,5.5l-1.3-0.5L101.2,186.1z"/>
			<path fill="#C59B6C" d="M113,190.5l6,1.6l-0.3,1.3l-4.6-1.2l-0.6,2.1l4,1.1l-0.3,1.3l-4-1.1l-0.6,2.2l4.6,1.3l-0.3,1.3l-6-1.6
				L113,190.5z"/>
			<path fill="#C59B6C" d="M122.3,200.2l1-0.9c0.7,0.8,1.4,1.3,2.4,1.5c0.9,0.1,1.5-0.2,1.6-0.8l0,0c0.1-0.6-0.2-1-1.7-1.5
				c-1.7-0.7-2.6-1.4-2.4-2.9l0,0c0.2-1.4,1.5-2.2,3.2-2c1.2,0.2,2.1,0.7,2.8,1.5l-0.9,1c-0.7-0.7-1.4-1.1-2.1-1.2
				c-0.8-0.1-1.4,0.2-1.5,0.8l0,0c-0.1,0.6,0.2,1,1.8,1.6c1.7,0.7,2.5,1.4,2.3,2.8l0,0c-0.2,1.5-1.6,2.3-3.3,2
				C124.3,201.8,123.2,201.2,122.3,200.2z"/>
			<path fill="#C59B6C" d="M134.7,194.5l6.2,0.2l0,1.3l-4.7-0.2L136,198l4.2,0.2l0,1.3l-4.2-0.2l-0.1,2.2l4.8,0.2l0,1.3l-6.3-0.2
				L134.7,194.5z"/>
			<path fill="#C59B6C" d="M152.8,194l3.7-0.6c0.9-0.1,1.7,0,2.3,0.4c0.4,0.3,0.7,0.7,0.8,1.3l0,0c0.2,1-0.3,1.6-0.9,2
				c1,0.2,1.8,0.6,2,1.7l0,0c0.2,1.5-0.9,2.5-2.7,2.7l-3.8,0.6L152.8,194z M156.8,197c0.9-0.1,1.5-0.6,1.4-1.4l0,0
				c-0.1-0.6-0.7-1-1.6-0.8l-2.1,0.3l0.3,2.2L156.8,197z M157.8,200.4c1-0.2,1.5-0.6,1.4-1.4l0,0c-0.1-0.7-0.7-1-1.9-0.8l-2.3,0.4
				l0.4,2.3L157.8,200.4z"/>
			<path fill="#C59B6C" d="M164.6,191.8l1.4-0.4l2.1,8.1l-1.4,0.4L164.6,191.8z"/>
			<path fill="#C59B6C" d="M173.2,196.8l0.5-1.3c1,0.4,1.9,0.5,2.9,0.1c0.9-0.3,1.2-0.9,1-1.5l0,0c-0.2-0.6-0.6-0.8-2.2-0.6
				c-1.8,0.2-2.9,0.1-3.5-1.4l0,0c-0.5-1.3,0.3-2.7,1.9-3.3c1.1-0.4,2.2-0.4,3.2,0l-0.4,1.3c-0.9-0.3-1.7-0.3-2.4,0
				c-0.8,0.3-1.1,0.9-0.9,1.4l0,0c0.2,0.6,0.7,0.7,2.3,0.6c1.8-0.2,2.9,0.1,3.4,1.4l0,0c0.5,1.5-0.3,2.8-2,3.4
				C175.8,197.3,174.5,197.3,173.2,196.8z"/>
			<path fill="#C59B6C" d="M183.8,186.3l-2.4,1.2l-0.6-1.2l6.1-3l0.6,1.2l-2.4,1.2l3.1,6.3l-1.3,0.7L183.8,186.3z"/>
			<path fill="#C59B6C" d="M191,180.8l3.1-2c0.9-0.6,1.7-0.8,2.5-0.6c0.6,0.1,1.2,0.5,1.6,1.1l0,0c0.8,1.1,0.5,2.3-0.3,3.2l3.6,1.4
				l-1.5,0.9l-3.3-1.3l-1.5,1l1.6,2.4l-1.2,0.8L191,180.8z M196.3,182.3c0.9-0.6,1.1-1.4,0.7-2.1l0,0c-0.5-0.7-1.3-0.8-2.2-0.2
				l-1.8,1.2l1.5,2.3L196.3,182.3z"/>
			<path fill="#C59B6C" d="M203.1,177.6L203.1,177.6c-1.5-1.8-1.4-4.5,0.5-6.2c1.9-1.7,4.6-1.4,6.1,0.4l0,0c1.5,1.8,1.4,4.5-0.5,6.1
				C207.3,179.7,204.7,179.3,203.1,177.6z M208.6,172.9L208.6,172.9c-1.1-1.3-2.8-1.5-4.1-0.4c-1.3,1.1-1.3,2.8-0.2,4.1l0,0
				c1.1,1.2,2.8,1.5,4.1,0.4C209.7,175.9,209.7,174.1,208.6,172.9z"/>
		</g>
		<g>
			<path fill="#C59B6C" d="M125.3,39.4h3.7c1,0,1.7,0.3,2.2,0.7c0.4,0.4,0.6,0.8,0.6,1.4v0c0,1-0.6,1.5-1.2,1.9c1,0.3,1.7,0.9,1.7,2
				v0c0,1.5-1.2,2.3-3.1,2.3h-3.9V39.4z M128.7,42.9c0.9,0,1.6-0.4,1.6-1.1v0c0-0.7-0.5-1.1-1.5-1.1h-2.1v2.2H128.7z M129.1,46.4
				c1,0,1.6-0.4,1.6-1.1v0c0-0.7-0.6-1.1-1.7-1.1h-2.3v2.3H129.1z"/>
			<path fill="#C59B6C" d="M140.4,39.3h1.4l3.7,8.4h-1.6l-0.8-2h-3.9l-0.9,2h-1.5L140.4,39.3z M142.5,44.4l-1.4-3.3l-1.4,3.3H142.5z
				"/>
			<path fill="#C59B6C" d="M150.5,39.4h3.7c1.1,0,1.9,0.3,2.4,0.8c0.4,0.5,0.7,1.1,0.7,1.8v0c0,1.4-0.8,2.2-2,2.5l2.3,3.2h-1.7
				l-2.1-2.9h-1.8v2.9h-1.5V39.4z M154.1,43.5c1,0,1.7-0.5,1.7-1.4v0c0-0.9-0.6-1.4-1.7-1.4h-2.1v2.8H154.1z"/>
		</g>
		<rect x="128" y="161.7" fill="#C59B6C" width="26.1" height="3"/>
	</g>
	<g>
		<polygon fill="#C59B6C" points="54.6,75.5 49.8,75.5 35.3,93.5 23.2,75.7 2,75.7 22.9,106.4 2.7,130.3 7.7,130.3 24.9,109.4 
			39,130.2 60.2,130.2 37.3,96.5 		"/>
		<polygon fill="#C59B6C" points="145.1,75.6 145.1,130.1 148.4,130.1 148.4,81 177.7,130.1 194.6,130.1 197.8,130.1 198,130.1 
			197.8,129.9 197.8,75.6 194.6,75.6 194.6,124.5 165.4,75.6 		"/>
		<path fill="#C59B6C" d="M235.2,75.6l-22.1,54.6h3.3l8.1-20h25.1l11.1,20H280l-29.9-54.6H235.2z M225.5,107.7l9.6-23.8l13.2,23.8
			H225.5z"/>
		<polygon fill="#C59B6C" points="72.3,75.7 106.1,130.2 127.2,130.2 93.4,75.7 		"/>
	</g>
</g>
</svg>
