<?xml version="1.0" encoding="utf-8"?>
<!-- Generator: Adobe Illustrator 18.1.1, SVG Export Plug-In . SVG Version: 6.00 Build 0)  -->
<!DOCTYPE svg PUBLIC "-//W3C//DTD SVG 1.1//EN" "http://www.w3.org/Graphics/SVG/1.1/DTD/svg11.dtd">
<svg version="1.1" id="Layer_1" xmlns="http://www.w3.org/2000/svg" xmlns:xlink="http://www.w3.org/1999/xlink" x="0px" y="0px"
	 viewBox="117 104 126 149" enable-background="new 117 104 126 149" xml:space="preserve">
<g>
	<path fill="#F3805F" d="M235.9,188.1c-1.1-15.1-7.3-28.4-16.4-37.5c-0.2-0.2-0.4-0.4-0.6-0.6c-0.2-0.2-0.5-0.4-0.8-0.4
		c-0.6,0-1.1,0.6-1.1,1.2c0,0.1,0,0.1,0,0.2c0,0,0,0,0,0c0,0.3,0.1,0.5,0.1,0.8c0.5,3.1,0.8,6.3,0.8,9.5c0,15.7-6.5,30-17.1,40.2
		c-0.7,0.6-1.3,1.3-2,1.9c-10.2,9-23.6,14.5-38.2,14.5c-2.2,0-4.4-0.1-6.6-0.4c-0.3-0.3-0.5-0.6-0.8-0.9c-2.9-7.1-4.5-15-4.5-23.5
		c0-10,2.3-19.4,6.3-27.4c0.4-0.8,0.8-1.6,1.3-2.4c1.1-2,2.3-3.9,3.6-5.6c-0.5,1.4-0.9,2.8-1.2,4.3c-0.1,0.6-0.2,1.2-0.3,1.8
		c-0.1,0.8-0.2,1.7-0.3,2.5c0,0,0,0.1,0,0.1c0,0.6-0.1,1.3-0.1,2c0,6.8,2.1,13,5.6,17.8c1.4,2,2.9,3.8,5.6,3.8c0.5,0,1.1,0,1.6-0.1
		c5.1-0.5,9.5-3.4,12-7.6c0.4-0.7,0.8-1.3,1.1-2.1c0.1-0.3,0.2-0.5,0.3-0.8c0.2-0.6,0.4-1.2,0.6-1.8c0.5-2.3,0.9-5.7-0.8-7.6
		c-1.4-1.5-3.6-1.6-5.3-2.4c-1.9-0.9-3.6-2.1-5.1-3.6c-1-1-1.9-2.1-2.6-3.3c-0.5-0.9-1-1.7-1.3-2.6c-0.4-1.1-0.8-2.2-0.9-3.3
		c-0.2-1.5-0.2-2.8,0.2-4.1c0.3-1.2,0.8-2.3,1.6-3.2c1.3-0.9,2.6-1.7,3.9-2.4c0.3-0.1,0.6-0.3,0.8-0.4c0,0,0,0,0,0
		c0.3-0.2,0.7-0.3,1-0.5c0.5,1.1,1.2,2.1,1.9,3.1c2.9,3.7,7,6.1,11.7,6.7c0.8,0.1,1.5,0.2,2.3,0.2c3.9,0,7.6-1.3,10.7-3.6l0,0
		c0.3-0.2,0.5-0.5,0.5-0.9c0-0.6-0.5-1.1-1.2-1.1c-0.3,0-0.5,0.1-0.7,0.2l0,0c0,0-0.1,0-0.1,0.1c0,0-0.1,0-0.1,0.1
		c-3.2,2.4-7.1,3.4-11.1,2.9c-4-0.5-7.6-2.6-10.1-5.8c-0.7-0.9-1.3-1.9-1.8-3c0.3-0.2,0.5-0.3,0.8-0.5c0.4-0.3,0.8-0.6,1.2-0.9
		c0.3-0.2,0.5-0.4,0.8-0.6c0.7-0.5,1.3-1.1,1.9-1.7c0.2-0.2,0.5-0.5,0.7-0.8c1.9,1.3,4,2,6.2,2c0.6,0,1.2,0,1.7-0.1
		c2.9-0.5,5.4-2,7.1-4.4l0,0c0.2-0.2,0.3-0.4,0.3-0.7c0-0.6-0.5-1.1-1.2-1.1c-0.4,0-0.7,0.2-0.9,0.5l0,0c-2.7,3.7-7.9,4.6-11.7,2.1
		c2.7-3.6,4.6-8,5.1-12.8c0.1-0.8,0.1-1.7,0.1-2.6c0-0.1,0-0.1,0-0.2c0-2.8-0.5-5.6-1.3-8.1c-0.3-1-0.4-1.8-1.3-2.4
		c-0.4-0.3-2.6-0.4-2.7-0.5c0,0,0,0,0,0.1c-0.1,0-0.1-0.1-0.2-0.1c-1,0-1.9-0.1-2.9-0.1c-8.2,0-16.1,1.6-23.2,4.6
		c-0.9,0.4-1.8,0.8-2.7,1.2c-5.4,2.6-10.4,6-14.8,10c-0.7,0.7-1.4,1.3-2.1,2c-10,10.1-16.4,23.7-17,38.8c0,1.2-0.1,1.2,0,3
		c0.2,18.8,9.3,35.5,23.3,46.2c1.8,1.4,3.6,2.6,5.6,3.8c0.4,0.2,0.8,0.4,1.2,0.7c7.7,16.6,22.3,27.8,39.1,27.8c1.3,0,2.7-0.1,4-0.2
		c1-0.1,2.1-0.3,3.1-0.5c8.7-1.7,16.6-6.4,22.9-13.3c1.3-1.5,2.6-3.1,3.8-4.7c6.8-9.4,11-21.7,11.2-35.2c0-0.3,0-0.7,0-1
		C236.1,191.5,236.1,189.8,235.9,188.1z M148.6,175.8c-0.4,0.1-0.8,0.2-1.2,0.2c-2,0-3.6-1.5-3.8-3.5c1.6-0.3,3-1.2,3.9-2.5
		c0.6,0.8,1.4,1.5,2.3,1.9C149.3,173.2,148.9,174.5,148.6,175.8z M143.6,184c1.4-0.3,2.7-1.1,3.6-2.1c-0.3,1.8-0.5,3.6-0.7,5.5
		c0,0,0,0,0,0C144.9,187,143.8,185.7,143.6,184z M128.8,178.2c1.5-0.3,2.8-1.2,3.7-2.4c0.9,1.3,2.3,2.2,3.9,2.5
		c-0.1,2-1.8,3.6-3.8,3.6C130.5,181.8,128.9,180.2,128.8,178.2z M131.3,184c-0.1,1.9-1.7,3.4-3.5,3.5c-0.5-1.5-1-3.1-1.4-4.7
		c0.5-0.4,0.9-0.8,1.2-1.2C128.4,182.8,129.7,183.7,131.3,184z M125.3,160.4c0.9-0.4,1.7-1.1,2.3-1.9c0.9,1.2,2.2,2.1,3.7,2.4
		c-0.2,2-1.8,3.5-3.8,3.5c-1,0-1.9-0.4-2.6-1C125,162.4,125.1,161.4,125.3,160.4z M160.1,132.3c0.2,0.2,0.3,0.5,0.5,0.7
		c0.5,0.7,1,1.4,1.6,2c0.3,0.4,0.7,0.7,1,1.1l0,0c-0.3,0.1-0.5,0.1-0.8,0.1c-1.9,0-3.5-1.5-3.8-3.4
		C159.1,132.8,159.7,132.6,160.1,132.3C160.1,132.3,160.1,132.3,160.1,132.3z M162.4,147.2c-2,0-3.6-1.5-3.8-3.5
		c1.4-0.3,2.5-1.1,3.4-2.2c1,1.3,2.5,2.2,4.2,2.4C166,145.7,164.4,147.2,162.4,147.2z M160.8,138.4c0,0.1,0,0.2,0,0.3
		c-0.4,1.7-1.9,2.9-3.7,2.9c-1.8,0-3.3-1.2-3.7-2.9c0-0.1,0-0.1,0-0.2c1.6-0.3,3-1.2,3.9-2.5C158.2,137.2,159.4,138,160.8,138.4z
		 M142.5,193.3c-2,0-3.7-1.6-3.8-3.6c1.5-0.3,2.8-1.2,3.7-2.4c0.9,1.3,2.3,2.2,3.9,2.5C146.2,191.7,144.5,193.3,142.5,193.3z
		 M142.5,181.8c-2,0-3.7-1.6-3.8-3.6c1.5-0.3,2.8-1.2,3.7-2.4c0.9,1.3,2.3,2.2,3.9,2.5C146.2,180.2,144.5,181.8,142.5,181.8z
		 M141.2,160.9c-0.2,2-1.8,3.5-3.8,3.5c-2,0-3.6-1.5-3.8-3.5c1.6-0.3,3-1.2,3.9-2.5C138.4,159.7,139.7,160.6,141.2,160.9z
		 M138.7,155.2c1.5-0.3,2.8-1.2,3.7-2.4c0.9,1.3,2.3,2.2,3.9,2.5c-0.2,2-1.8,3.5-3.8,3.5C140.5,158.7,138.9,157.2,138.7,155.2z
		 M137.5,170c0.9,1.2,2.2,2.1,3.7,2.4c-0.2,2-1.8,3.5-3.8,3.5c-2,0-3.6-1.5-3.8-3.5C135.3,172.2,136.6,171.3,137.5,170z
		 M142.5,170.3c-2,0-3.7-1.6-3.8-3.6c1.5-0.3,2.8-1.2,3.7-2.4c0.9,1.3,2.3,2.2,3.9,2.5C146.2,168.7,144.5,170.3,142.5,170.3z
		 M143.6,161c1.6-0.3,3-1.2,3.9-2.5c0.9,1.2,2.2,2.1,3.7,2.4c-0.2,2-1.8,3.5-3.8,3.5C145.4,164.5,143.8,162.9,143.6,161z M147.4,153
		c-2,0-3.7-1.6-3.8-3.6c1.6-0.3,3-1.2,3.9-2.5c0.9,1.2,2.2,2.1,3.7,2.4C151.1,151.4,149.4,153,147.4,153z M148.7,143.8
		c1.5-0.3,2.7-1.2,3.6-2.3c0.9,1.2,2.3,2.1,4,2.3c-0.2,1.9-1.8,3.4-3.8,3.4C150.5,147.2,148.9,145.7,148.7,143.8z M152.4,136.3
		c-1.9,0-3.5-1.5-3.8-3.4c1.5-0.3,2.9-1.2,3.8-2.4c0.9,1.2,2.2,2.1,3.8,2.4C155.9,134.8,154.3,136.3,152.4,136.3z M151.1,138.5
		c0,0.1,0,0.2,0,0.2c-0.4,1.7-1.9,2.9-3.7,2.9c-1.8,0-3.3-1.2-3.7-2.9c0-0.1,0-0.2,0-0.2c1.5-0.3,2.8-1.2,3.7-2.4
		C148.3,137.2,149.6,138.1,151.1,138.5z M146.3,143.8c-0.2,1.9-1.8,3.4-3.8,3.4c-2,0-3.6-1.5-3.8-3.4c1.5-0.3,2.9-1.1,3.8-2.3
		C143.4,142.7,144.8,143.5,146.3,143.8z M141.2,149.4c-0.1,2-1.8,3.6-3.8,3.6c-2,0-3.7-1.6-3.8-3.6c1.6-0.3,3-1.2,3.9-2.5
		C138.4,148.2,139.7,149.1,141.2,149.4z M136.3,155.2c-0.2,2-1.8,3.5-3.8,3.5c-2,0-3.6-1.6-3.8-3.5c1.5-0.3,2.8-1.2,3.7-2.4
		C133.4,154,134.7,154.9,136.3,155.2z M132.5,164.2c0.9,1.3,2.3,2.2,3.9,2.5c-0.1,2-1.8,3.6-3.8,3.6c-2,0-3.7-1.6-3.8-3.6
		C130.3,166.3,131.6,165.4,132.5,164.2z M137.5,181.5c0.9,1.2,2.2,2.1,3.7,2.4c-0.2,2-1.8,3.5-3.8,3.5c-2,0-3.6-1.5-3.8-3.5
		C135.3,183.7,136.6,182.8,137.5,181.5z M137.5,193.1c0.9,1.2,2.2,2.1,3.7,2.4c-0.2,2-1.8,3.5-3.8,3.5c-2,0-3.6-1.5-3.8-3.5
		C135.3,195.2,136.6,194.3,137.5,193.1z M142.4,198.8c0.9,1.3,2.3,2.2,3.9,2.5c-0.1,2-1.8,3.6-3.8,3.6c-2,0-3.7-1.6-3.8-3.6
		C140.2,200.9,141.5,200,142.4,198.8z M143.6,195.5c1-0.2,1.9-0.6,2.6-1.2c0,1.5,0.1,3.1,0.2,4.6
		C144.9,198.5,143.8,197.2,143.6,195.5z M153.7,163c-0.4,0.8-0.8,1.6-1.2,2.4c-0.7,1.4-1.3,2.9-1.9,4.4c-1.1-0.6-1.8-1.8-1.9-3.1
		c1.5-0.3,2.8-1.2,3.7-2.4c0.1,0.2,0.3,0.3,0.4,0.5C153.1,164.1,153.4,163.5,153.7,163c0.1-0.2,0.2-0.4,0.3-0.6
		c-0.2-0.4-0.4-0.9-0.4-1.4c0.6-0.1,1.1-0.3,1.6-0.5c0,0,0,0,0,0C154.6,161.3,154.1,162.1,153.7,163z M152.5,158.7
		c-2,0-3.6-1.6-3.8-3.5c1.5-0.3,2.8-1.2,3.7-2.4c0.9,1.3,2.3,2.2,3.9,2.5C156.1,157.2,154.5,158.7,152.5,158.7z M153.6,149.4
		c1.6-0.3,3-1.2,3.9-2.5c0.9,1.2,2.2,2.1,3.7,2.4c-0.1,2-1.8,3.6-3.8,3.6C155.3,153,153.7,151.4,153.6,149.4z M169.3,187.6
		c-0.1,0-0.2,0-0.2,0c-3.2-0.4-5.2-5.5-6.3-8.1c-1.4-3.5-2.1-7.2-2.1-11c0-0.5,0-0.9,0-1.4c0-0.9,0.1-1.7,0.2-2.6
		c0-0.4,0.1-0.7,0.2-1c0.2-1.2,0.5-2.4,0.8-3.5c0.1-0.4,0.2-0.7,0.4-1.1c0,0.3-0.1,0.7-0.1,1c-0.1,1-0.1,1.9-0.1,2.9
		c0,0.7,0.1,1.4,0.2,2.2c0.1,1,0.3,1.9,0.6,2.9c0.2,0.6,0.3,1.1,0.6,1.7c2.8,7.5,9.3,12.6,16.2,13.1
		C177.4,185.4,173.1,187.9,169.3,187.6z M171.7,165.9c1.6,1.6,3.4,3,5.5,4c1,0.5,2,0.9,3,1.2c2,0.6,2.5,0.9,2.5,3.1
		c0,0.6,0,1.1-0.1,1.7c-0.1,1-0.3,1.9-0.7,2.8c-0.2,0.5-0.4,1-0.6,1.5c-0.2,0-0.3,0-0.5,0c-6.2,0-12.1-4.5-14.8-11.1
		c0-0.1-0.1-0.2-0.1-0.3c-0.3-0.9-0.6-1.8-0.8-2.7c-0.3-1.5-0.5-2.9-0.4-4.3c0-0.9,0.1-1.9,0.2-2.8c0.2-1.4,0.7-2.8,1.2-4.1
		c0,0.2,0,0.3,0,0.5c0.2,1,0.4,2.1,0.8,3.1c0.3,0.8,0.6,1.6,1,2.4C168.9,162.6,170.2,164.3,171.7,165.9z M166.9,141.6
		c-1.8,0-3.3-1.2-3.7-2.9c0-0.1,0-0.1,0-0.2c0.6-0.1,1.3-0.3,1.8-0.6c1.3,1.1,2.7,2.1,4.1,2.9l0,0
		C168.5,141.3,167.8,141.6,166.9,141.6z M173.2,142.8c-0.2,0.1-0.4,0.2-0.6,0.3c-0.1,0-0.1,0-0.2,0.1c-1.1,0.4-2.1,1.1-3,1.9
		c-0.1,0.1-0.2,0.2-0.3,0.2c-0.3-0.5-0.4-1-0.5-1.5c1.1-0.3,2-0.9,2.8-1.7c0.6,0.3,1.3,0.5,1.9,0.8
		C173.3,142.7,173.2,142.8,173.2,142.8z M177.3,140.5c-1-3.9-0.4-8.1,1.6-11.5c0,0.8,0,1.5,0.1,2.3c0.3,2.1,1.2,4,2.6,5.5
		C180.4,138.2,178.9,139.4,177.3,140.5z M158.5,117.5c7.2-3.2,15.1-5,23.5-5c1.7,0,3.6-0.5,4.6,1.3c1.1,1.9,1.2,5.2,1.2,7.3
		c0,0.2,0,0.4,0,0.6c0,0.9-0.1,1.8-0.2,2.6c-0.5,4-2.1,7.6-4.3,10.7c-0.9-1.2-1.6-2.5-1.8-4c-0.4-2.3,0.2-4.5,1.5-6.4l0,0
		c0.1-0.2,0.1-0.3,0.1-0.5c0-0.7-0.6-1.2-1.3-1.2c-0.4,0-0.8,0.2-1,0.5c-5.1,4.4-7.2,11.1-5.7,17.3c-4.2-1.3-7.9-3.8-10.7-7
		c-0.6-0.6-1.1-1.3-1.6-2c-2.7-3.8-4.2-8.4-4.2-13.4C158.4,117.9,158.5,117.7,158.5,117.5z M157.1,126c0.5,1.5,1.1,2.9,1.8,4.3
		c0,0,0,0,0,0c-0.5,0.2-1,0.4-1.6,0.4c-1.7,0-3.1-1.1-3.6-2.6C155.1,127.8,156.3,127.1,157.1,126C157.1,126,157.1,126,157.1,126z
		 M155.9,118.7c0,1.2,0.1,2.5,0.3,3.7c-0.1,2-1.8,3.5-3.8,3.5c-1.8,0-3.3-1.3-3.7-2.9c-0.7,0.5-1.3,1-2,1.5c0.8,1.8,2.3,3.1,4.2,3.6
		c-0.5,1.5-1.9,2.7-3.6,2.7c-2,0-3.7-1.6-3.8-3.6c-0.5,0.5-1.1,1-1.6,1.5C146.1,124.6,150.8,121.3,155.9,118.7z M140,130.5
		c0.5-0.6,1.1-1.1,1.6-1.6c0.7,2,2.4,3.6,4.6,4c-0.2,1.9-1.8,3.4-3.8,3.4c-2.1,0-3.8-1.7-3.8-3.8h-0.3
		C138.8,131.8,139.4,131.2,140,130.5z M136.6,134.5c0.7,2.1,2.5,3.6,4.7,4c0,0.1,0,0.1,0,0.2c-0.4,1.7-1.9,2.9-3.7,2.9
		c-1.9,0-3.5-1.5-3.8-3.4C134.8,136.9,135.7,135.7,136.6,134.5z M132.3,140.8c0.8,1.5,2.3,2.6,4,3c-0.2,1.9-1.8,3.4-3.8,3.4
		c-1.2,0-2.2-0.5-2.9-1.3C130.5,144.1,131.3,142.4,132.3,140.8z M128.7,148.2c0.7,0.6,1.6,1.1,2.6,1.3c-0.1,2-1.8,3.6-3.8,3.6
		c-0.2,0-0.3,0-0.5-0.1C127.5,151.3,128,149.7,128.7,148.2z M124.6,169.1c0-0.2,0-0.5,0-0.7l0.1-2.3c0.5,0.3,1.1,0.5,1.7,0.6
		c-0.1,1.3-0.8,2.4-1.8,3c0,0.4,0,0.7,0,1.1C124.6,170.2,124.6,169.6,124.6,169.1z M127.6,170c0.9,1.2,2.2,2.1,3.7,2.4
		c-0.2,2-1.8,3.5-3.8,3.5c-1,0-1.9-0.4-2.6-1c-0.1-0.9-0.2-1.8-0.2-2.8C125.8,171.8,126.9,171,127.6,170z M124.9,175
		c0.1,1,0.2,2,0.4,2.9c0.3,0.1,0.7,0.2,1.1,0.3c0,0.7-0.3,1.4-0.7,1.9C125.4,178.4,125.1,176.7,124.9,175z M127.8,187.6
		c0.3,1,0.7,2,1.1,2.9C128.5,189.6,128.1,188.6,127.8,187.6z M131.3,195.5C131.3,195.5,131.2,195.5,131.3,195.5
		C131.2,195.5,131.3,195.5,131.3,195.5C131.3,195.5,131.3,195.5,131.3,195.5z M129.3,191.4c-0.1-0.3-0.3-0.6-0.4-0.8
		c-0.1-0.3-0.1-0.6-0.2-0.9c1.5-0.3,2.8-1.2,3.7-2.4c0.9,1.3,2.3,2.2,3.9,2.5c-0.1,2-1.8,3.6-3.8,3.6
		C131.2,193.3,130,192.5,129.3,191.4z M136.3,201.2c0,0.5-0.2,1.1-0.4,1.5c-0.6-0.8-1.1-1.5-1.7-2.3
		C134.9,200.8,135.6,201.1,136.3,201.2z M135.9,202.8c0.5,0.7,1,1.3,1.5,1.9c0,0,0.1-0.1,0.1-0.1c0.9,1.2,2.2,2.1,3.7,2.4
		c0,0.5-0.2,1-0.4,1.4C139.1,206.7,137.4,204.8,135.9,202.8z M148.9,215.3c-1.3-0.9-2.5-1.9-3.7-2.8c0.7,0.3,1.4,0.4,2.2,0.4
		c0.6,0,1.2-0.1,1.7-0.3c-0.2-0.7-0.5-1.5-0.7-2.2c-0.3,0.1-0.7,0.2-1.1,0.2c-2,0-3.6-1.5-3.8-3.5c1.5-0.3,2.7-1.1,3.6-2.2
		c0.3,1.8,0.7,3.6,1.2,5.3c0.6,2.1,1.2,4.2,2,6.2C149.9,216,149.4,215.7,148.9,215.3z M199.6,244.6c-1,0.3-2,0.4-3.1,0.6
		c-1.8,0.3-3.5,0.4-5.4,0.4c-14.1,0-26.6-8.6-34.3-21.7c10.6,9.5,24.7,15.2,40.1,15.2c0.7,0,1.3,0,2-0.1c0.9,0,1.8-0.1,2.7-0.2
		c4.7-0.4,9.2-1.2,13.5-2.6C210.6,240.3,205.3,243.1,199.6,244.6z M219.6,232c-5.4,2.3-11.2,3.8-17.2,4.4c-0.9,0.1-1.8,0.2-2.7,0.2
		c-0.9,0-1.9,0.1-2.8,0.1c-13.2,0-25.3-4.4-35-11.8c6.3,2.2,13,3.4,20,3.4c6.9,0,13.6-1.2,19.8-3.3c0.9-0.3,1.7-0.6,2.6-1
		c12.1-4.8,22.3-13.5,29-24.5C232,212.3,227,223.7,219.6,232z M233.6,193.6c-6,12.3-16.4,22.1-29.2,27.5c-0.8,0.4-1.7,0.7-2.6,1
		c-6.2,2.3-12.9,3.5-19.9,3.5c-8.6,0-16.8-1.9-24.2-5.3c1,0,1.9,0.1,2.9,0.1c14.9,0,28.6-5.4,39.1-14.4c0.7-0.6,1.4-1.2,2.1-1.9
		c11.5-10.8,18.7-26,18.7-42.9c0-2.1-0.1-4.2-0.3-6.3c8.3,9.6,13.4,23.1,13.4,38.2C233.6,193.3,233.6,193.5,233.6,193.6z"/>
	<circle fill="#F3805F" cx="169.5" cy="120.8" r="2.5"/>
</g>
</svg>
